<?xml version="1.0" standalone="no"?>
<!DOCTYPE svg PUBLIC "-//W3C//DTD SVG 20010904//EN"
 "http://www.w3.org/TR/2001/REC-SVG-20010904/DTD/svg10.dtd">
<svg version="1.0" xmlns="http://www.w3.org/2000/svg"
 width="1280.000000pt" height="1270.000000pt" viewBox="0 0 1280.000000 1270.000000"
 preserveAspectRatio="xMidYMid meet">
<g transform="translate(0.000000,1270.000000) scale(0.100000,-0.100000)"
fill="#000000" stroke="none">
<path d="M1365 12690 c-11 -4 -47 -15 -80 -25 -33 -9 -127 -47 -210 -83 -176
-77 -228 -85 -375 -57 -105 20 -198 17 -255 -10 -60 -29 -142 -117 -156 -168
-49 -183 271 -586 581 -732 78 -37 92 -40 170 -40 107 0 156 22 255 116 166
158 308 421 360 664 27 130 15 228 -34 274 -54 50 -199 85 -256 61z"/>
<path d="M6322 12583 c-46 -22 -98 -86 -124 -152 -33 -85 -37 -262 -9 -365 41
-150 112 -255 203 -300 66 -33 101 -33 167 0 91 46 140 147 148 309 5 81 2
116 -15 183 -64 252 -227 396 -370 325z"/>
<path d="M11480 12569 c-82 -14 -206 -79 -269 -141 -230 -226 -47 -482 288
-403 198 47 351 196 351 342 0 75 -23 119 -83 159 -69 48 -168 62 -287 43z"/>
<path d="M8940 12530 c0 -6 20 -25 45 -42 58 -41 66 -70 31 -107 -33 -35 -41
-76 -23 -126 18 -48 69 -207 93 -288 24 -82 75 -127 144 -127 66 0 138 25 177
62 43 41 76 121 76 184 0 129 -131 285 -273 325 -25 7 -60 26 -79 42 -35 30
-151 87 -177 87 -8 0 -14 -5 -14 -10z"/>
<path d="M3605 12356 c-38 -18 -83 -44 -100 -58 -16 -14 -52 -32 -79 -41 -76
-26 -130 -62 -185 -124 -106 -118 -118 -251 -35 -361 35 -45 73 -67 144 -82
117 -25 171 20 214 176 15 54 41 132 57 172 39 98 38 141 -2 187 -29 32 -31
38 -19 59 6 13 32 38 56 55 43 30 56 51 32 51 -7 -1 -44 -16 -83 -34z"/>
<path d="M8012 12329 c3 -8 26 -22 52 -31 98 -37 115 -63 74 -118 -49 -67 -19
-127 88 -176 61 -27 80 -42 107 -81 80 -118 138 -154 225 -138 48 9 146 105
155 154 43 211 -107 353 -368 351 -67 0 -105 5 -149 20 -76 27 -191 39 -184
19z"/>
<path d="M5580 12279 c-39 -16 -88 -69 -102 -108 -7 -20 -12 -70 -11 -111 3
-196 144 -415 325 -505 71 -34 82 -37 146 -33 56 3 76 9 104 30 139 106 83
402 -112 599 -94 95 -166 132 -260 136 -36 2 -76 -2 -90 -8z"/>
<path d="M10443 12215 c-44 -19 -88 -83 -108 -160 -25 -90 -17 -181 35 -395
50 -207 49 -233 -5 -375 -51 -135 -58 -221 -23 -297 43 -94 101 -147 176 -161
151 -29 534 178 714 387 202 233 182 402 -77 661 -245 246 -571 402 -712 340z"/>
<path d="M4477 12169 c-21 -5 -48 -14 -60 -21 -13 -7 -67 -12 -132 -13 -85 -1
-123 -6 -167 -22 -86 -32 -140 -74 -173 -135 -25 -45 -29 -64 -29 -123 1 -83
15 -115 77 -172 108 -100 191 -77 314 89 34 46 50 59 92 73 59 19 107 60 117
100 5 22 0 42 -22 83 l-29 54 30 24 c17 14 49 29 72 35 23 6 48 17 54 25 10
12 2 14 -47 13 -33 -1 -76 -5 -97 -10z"/>
<path d="M7035 12071 c-54 -24 -119 -99 -147 -170 -20 -49 -23 -73 -23 -191 1
-152 15 -204 80 -292 166 -226 435 -58 435 271 0 274 -170 462 -345 382z"/>
<path d="M11980 12049 c-237 -61 -376 -220 -317 -362 20 -46 86 -101 153 -127
89 -35 263 -40 368 -11 225 62 358 204 316 338 -15 46 -71 108 -124 135 -94
49 -268 61 -396 27z"/>
<path d="M1720 11945 c-86 -39 -124 -106 -124 -220 0 -239 201 -481 399 -479
67 1 94 12 143 57 111 106 66 370 -91 530 -105 106 -238 152 -327 112z"/>
<path d="M7710 11867 c0 -19 93 -150 124 -174 13 -11 29 -39 36 -64 43 -161
190 -299 321 -299 47 0 114 24 156 56 36 27 76 98 87 153 14 78 -40 158 -121
180 -21 6 -64 17 -95 26 -44 12 -73 29 -119 70 -94 84 -147 84 -199 1 -12 -20
-27 -36 -33 -36 -20 0 -84 44 -107 73 -23 29 -50 36 -50 14z"/>
<path d="M259 11836 c-108 -38 -192 -151 -238 -319 -27 -99 -26 -134 3 -230
52 -169 140 -231 272 -192 142 41 254 234 254 436 0 223 -132 362 -291 305z"/>
<path d="M4595 11708 c-11 -6 -42 -32 -70 -58 -44 -41 -60 -49 -139 -68 -163
-40 -216 -115 -171 -243 23 -63 58 -104 117 -133 65 -32 152 -35 215 -7 90 41
180 150 212 259 13 42 31 71 63 105 45 46 98 125 98 146 0 20 -29 11 -50 -16
-48 -62 -110 -81 -131 -40 -24 46 -51 67 -88 67 -20 0 -45 -6 -56 -12z"/>
<path d="M9560 11656 c-110 -60 -125 -66 -185 -66 -41 0 -79 8 -120 25 -124
51 -238 22 -320 -82 -117 -149 -155 -225 -155 -308 0 -67 29 -127 94 -195 62
-65 91 -137 82 -203 -21 -147 -21 -141 18 -184 52 -58 143 -97 226 -97 112 0
179 39 291 169 206 240 369 535 369 668 0 82 -26 144 -85 203 -89 89 -146 107
-215 70z"/>
<path d="M2955 11506 c-86 -38 -163 -142 -180 -243 -23 -142 193 -527 428
-765 84 -84 123 -103 227 -103 74 0 92 4 140 28 103 53 141 111 121 184 -29
105 -8 185 71 270 71 76 90 118 90 193 -1 76 -21 125 -97 235 -78 112 -121
150 -194 171 -63 19 -108 14 -192 -21 -96 -41 -169 -32 -264 32 -54 36 -98 42
-150 19z"/>
<path d="M5361 11453 c-70 -36 -101 -90 -101 -173 0 -113 59 -232 163 -326
171 -154 386 -170 478 -36 20 30 24 47 24 117 0 74 -3 88 -38 158 -51 103
-140 193 -242 243 -63 31 -89 38 -153 42 -70 4 -82 1 -131 -25z"/>
<path d="M6408 11407 c-95 -27 -165 -95 -237 -227 -80 -151 -137 -366 -147
-565 -8 -138 5 -233 41 -313 21 -45 31 -56 72 -74 39 -17 59 -20 122 -15 105
8 200 58 366 192 174 140 200 152 350 165 126 10 162 18 211 43 71 36 154 165
154 237 0 131 -205 329 -475 460 -187 92 -352 126 -457 97z"/>
<path d="M11817 11369 c-59 -14 -110 -44 -150 -88 -34 -38 -37 -46 -37 -103 0
-81 25 -132 101 -202 106 -98 258 -156 414 -156 153 0 260 46 303 130 28 57
28 102 -3 168 -50 108 -205 214 -361 247 -76 16 -208 18 -267 4z"/>
<path d="M1342 11323 c-77 -38 -114 -125 -115 -268 -1 -178 58 -330 173 -446
79 -79 134 -104 211 -97 125 12 198 142 186 329 -17 261 -194 500 -369 499
-29 0 -68 -8 -86 -17z"/>
<path d="M800 11261 c-99 -30 -167 -110 -216 -253 -77 -224 -15 -509 128 -584
39 -20 122 -18 166 5 140 72 233 314 203 528 -15 109 -42 179 -88 233 -56 66
-126 91 -193 71z"/>
<path d="M8388 11025 c-3 -4 -68 -9 -143 -14 l-138 -7 -28 -32 c-17 -19 -29
-44 -29 -60 0 -39 -16 -53 -49 -41 -14 6 -33 17 -43 25 -9 9 -27 14 -40 12
-21 -3 -19 -7 32 -57 30 -29 75 -64 100 -77 25 -14 71 -46 103 -73 97 -81 235
-119 335 -91 54 14 123 76 152 134 26 55 27 145 0 203 -28 63 -67 83 -166 83
-44 0 -83 -2 -86 -5z"/>
<path d="M11153 10960 c-205 -41 -253 -230 -100 -398 153 -167 436 -219 582
-107 44 33 65 82 65 152 0 207 -301 401 -547 353z"/>
<path d="M4073 10869 c-87 -25 -129 -179 -77 -282 23 -46 72 -95 118 -119 33
-17 54 -20 125 -16 101 5 166 31 250 99 30 24 74 55 97 69 48 27 144 114 144
130 0 16 -22 11 -65 -15 -58 -36 -71 -33 -78 16 -3 23 -16 52 -28 65 -27 29
-89 48 -129 39 -15 -3 -81 1 -146 9 -132 18 -164 18 -211 5z"/>
<path d="M1120 10212 c0 -9 11 -34 25 -54 27 -40 33 -99 13 -115 -7 -6 -25
-13 -41 -17 -72 -17 -90 -102 -40 -186 25 -42 27 -53 27 -172 1 -138 7 -156
70 -202 36 -27 164 -29 212 -3 48 25 110 101 124 152 35 125 -40 291 -171 379
-33 22 -62 54 -85 92 -34 57 -110 144 -126 144 -4 0 -8 -8 -8 -18z"/>
<path d="M11500 10090 c0 -6 14 -36 30 -67 17 -31 30 -68 30 -83 0 -24 -6 -29
-45 -40 -89 -25 -108 -94 -55 -194 30 -55 31 -61 28 -169 -3 -97 0 -116 17
-146 36 -62 66 -76 160 -76 77 0 87 2 127 30 23 17 58 55 76 85 28 47 32 63
32 125 0 52 -6 82 -24 120 -34 72 -99 150 -159 190 -37 24 -59 48 -71 76 -10
22 -43 67 -73 99 -53 58 -73 71 -73 50z"/>
<path d="M9200 10080 c-72 -12 -135 -34 -304 -109 -76 -34 -159 -65 -185 -68
-27 -3 -92 3 -161 16 -137 25 -161 26 -228 6 -36 -11 -69 -32 -111 -70 -103
-96 -113 -166 -41 -312 100 -207 324 -428 540 -532 87 -42 100 -46 170 -45
102 0 168 33 270 134 226 223 410 678 349 861 -31 93 -154 141 -299 119z"/>
<path d="M586 10039 c-3 -17 -6 -75 -6 -128 0 -77 -4 -106 -20 -139 -46 -95
-51 -243 -11 -333 66 -150 257 -197 380 -93 82 69 81 163 -2 267 -48 59 -67
100 -67 144 0 121 -67 180 -163 144 -13 -5 -28 -6 -34 -3 -19 13 -36 57 -42
111 -7 62 -25 78 -35 30z"/>
<path d="M3800 9934 c-90 -24 -178 -72 -239 -133 -65 -63 -88 -101 -100 -167
-33 -176 139 -289 369 -240 140 30 276 119 337 223 37 63 43 154 14 212 -52
101 -221 147 -381 105z"/>
<path d="M10975 9930 c-5 -8 -11 -70 -15 -139 -5 -96 -12 -140 -30 -186 -33
-85 -33 -219 -1 -290 61 -138 212 -197 338 -132 126 65 141 175 40 303 -53 69
-67 100 -67 155 0 48 -20 97 -48 123 -22 19 -68 19 -130 0 -19 -5 -24 -1 -37
30 -8 19 -15 53 -15 74 0 45 -22 83 -35 62z"/>
<path d="M6482 9876 c2 -7 23 -29 48 -48 25 -19 46 -42 48 -52 2 -10 -9 -31
-25 -48 -37 -39 -37 -98 0 -190 15 -36 38 -107 51 -158 14 -50 33 -105 43
-123 39 -67 119 -86 219 -53 121 40 185 186 139 316 -35 98 -138 195 -252 237
-36 13 -80 36 -97 50 -30 25 -147 83 -168 83 -5 0 -8 -6 -6 -14z"/>
<path d="M1964 9753 c3 -21 9 -53 12 -71 8 -41 -9 -62 -50 -62 -17 0 -42 -7
-54 -16 -23 -16 -62 -83 -62 -108 0 -8 -27 -75 -60 -149 -66 -148 -73 -191
-40 -244 23 -39 84 -79 144 -95 97 -26 220 34 267 129 19 37 25 68 27 140 4
105 -12 177 -54 239 -15 21 -31 59 -36 84 -4 25 -24 78 -43 118 -38 80 -62 96
-51 35z"/>
<path d="M5556 9681 c-8 -12 12 -26 56 -40 45 -15 88 -47 88 -67 0 -8 -9 -27
-20 -42 -11 -15 -22 -41 -26 -58 -8 -42 33 -89 110 -124 62 -28 89 -52 143
-127 86 -122 190 -129 292 -21 93 99 76 269 -36 354 -76 58 -144 78 -268 79
-67 1 -119 6 -133 14 -21 11 -156 41 -187 41 -8 0 -16 -4 -19 -9z"/>
<path d="M12345 9649 c-4 -6 -2 -30 5 -53 6 -23 10 -56 8 -72 -3 -26 -8 -30
-45 -35 -53 -7 -87 -38 -109 -98 -28 -78 -75 -194 -99 -241 -61 -123 -31 -208
93 -261 91 -39 202 -11 273 68 49 54 64 101 64 203 0 96 -18 163 -65 237 -17
26 -30 59 -30 73 0 24 -73 190 -84 190 -3 0 -8 -5 -11 -11z"/>
<path d="M2785 9585 c-39 -19 -81 -84 -102 -155 -24 -82 -12 -211 36 -410 23
-91 41 -176 41 -190 0 -32 -19 -99 -60 -213 -40 -111 -42 -184 -7 -260 28 -61
78 -122 118 -143 36 -18 129 -18 203 1 248 65 601 347 683 545 29 71 24 170
-14 250 -145 312 -705 670 -898 575z"/>
<path d="M4324 9420 c-196 -51 -324 -167 -324 -294 0 -58 17 -92 68 -138 59
-54 138 -79 262 -85 118 -6 230 15 327 63 66 32 148 106 173 155 24 45 26 128
6 167 -18 35 -72 85 -113 106 -93 47 -275 59 -399 26z"/>
<path d="M9600 9350 c-55 -10 -98 -37 -125 -78 -134 -203 80 -606 334 -629
132 -12 213 57 227 194 27 257 -225 552 -436 513z"/>
<path d="M8108 9234 c-66 -20 -159 -108 -198 -187 -73 -151 -80 -313 -19 -434
21 -41 49 -79 72 -98 35 -27 46 -30 105 -30 81 0 125 19 186 82 93 94 141 232
134 388 -3 70 -10 102 -29 145 -55 117 -146 166 -251 134z"/>
<path d="M5250 9217 c0 -21 58 -108 105 -157 30 -32 48 -62 59 -101 32 -112
141 -236 235 -268 83 -27 203 1 258 60 35 38 63 110 63 163 0 90 -53 140 -183
170 -79 19 -120 38 -140 67 -28 39 -79 69 -119 69 -40 0 -65 -18 -99 -69 -21
-34 -60 -22 -116 35 -45 45 -63 54 -63 31z"/>
<path d="M133 9123 c3 -40 15 -92 25 -116 11 -25 23 -69 27 -98 24 -175 152
-319 284 -319 80 0 122 18 177 74 37 38 54 65 63 100 11 44 10 53 -11 95 -19
38 -41 58 -134 121 -61 41 -130 92 -154 112 -68 59 -115 61 -182 7 -33 -27
-51 -16 -69 39 -21 68 -32 62 -26 -15z"/>
<path d="M10505 9067 c-10 -24 13 -155 35 -205 11 -25 20 -57 20 -72 0 -42 33
-139 63 -187 82 -129 185 -175 310 -139 100 29 167 113 167 208 0 66 -29 100
-162 192 -65 45 -136 96 -159 114 -55 42 -113 44 -158 6 -39 -33 -57 -26 -72
28 -15 54 -35 79 -44 55z"/>
<path d="M1205 8989 c-201 -60 -265 -139 -251 -314 5 -71 3 -86 -17 -130 -22
-46 -91 -125 -109 -125 -17 0 -48 -67 -48 -102 0 -108 95 -238 200 -273 42
-14 71 -16 139 -12 250 18 639 143 773 249 22 17 50 55 69 94 30 60 32 69 26
144 -9 138 -48 186 -160 200 -108 13 -170 58 -218 157 -69 142 -189 175 -404
112z"/>
<path d="M7051 8980 c-98 -60 -142 -62 -281 -11 -66 25 -113 26 -171 6 -64
-23 -102 -57 -168 -150 -83 -116 -103 -159 -109 -232 -7 -87 15 -140 89 -216
79 -81 91 -124 75 -272 -7 -64 -6 -73 16 -105 35 -51 141 -103 221 -108 93 -6
164 24 241 102 219 219 436 587 436 740 0 73 -33 145 -92 203 -100 96 -155
106 -257 43z"/>
<path d="M11619 8871 c-229 -61 -292 -130 -288 -319 3 -124 -11 -156 -101
-243 -68 -65 -70 -68 -70 -117 0 -133 89 -251 219 -289 49 -14 70 -14 161 -4
209 24 476 102 643 188 149 77 205 166 194 308 -5 75 -29 136 -65 168 -13 12
-47 22 -91 28 -112 14 -174 55 -221 150 -39 77 -91 126 -153 144 -69 20 -105
18 -228 -14z"/>
<path d="M4133 8731 c-143 -49 -197 -165 -134 -289 25 -49 112 -130 181 -169
156 -88 393 -108 520 -43 81 41 128 125 113 202 -24 127 -173 251 -359 298
-101 26 -248 27 -321 1z"/>
<path d="M9200 8729 c-154 -64 -182 -346 -59 -591 37 -74 137 -181 196 -209
58 -28 138 -29 185 -3 179 104 147 507 -56 709 -34 34 -79 69 -101 80 -47 22
-130 29 -165 14z"/>
<path d="M8605 8641 c-88 -40 -169 -165 -201 -309 -32 -146 -2 -346 66 -441
97 -133 255 -116 359 40 127 190 129 493 5 656 -52 69 -148 91 -229 54z"/>
<path d="M5920 8370 c-30 -4 -95 -8 -145 -9 -130 -1 -164 -22 -192 -116 -11
-35 -38 -37 -83 -5 -29 21 -60 27 -60 11 0 -16 107 -109 151 -131 24 -13 63
-40 87 -62 98 -90 265 -133 366 -94 50 19 120 89 142 141 34 81 5 203 -59 249
-31 23 -116 29 -207 16z"/>
<path d="M3478 8326 c-201 -54 -224 -257 -48 -420 106 -97 233 -142 381 -134
97 5 148 27 197 82 49 56 56 148 16 231 -24 53 -127 154 -191 188 -108 58
-256 80 -355 53z"/>
<path d="M9040 7611 c-164 -88 -201 -410 -74 -652 46 -87 124 -161 188 -179
117 -32 228 61 266 222 5 24 10 84 10 134 1 314 -210 570 -390 475z"/>
<path d="M3579 7387 c-117 -61 -185 -290 -145 -492 42 -214 165 -354 301 -343
124 10 208 141 222 343 21 324 -185 593 -378 492z"/>
<path d="M11281 7384 c-30 -14 -72 -39 -92 -55 -21 -16 -63 -38 -93 -49 -153
-52 -266 -191 -266 -325 1 -148 114 -254 258 -243 85 7 117 48 158 201 13 49
36 119 51 155 37 91 37 142 -1 181 -38 39 -30 67 29 109 77 54 52 69 -44 26z"/>
<path d="M6530 7334 c0 -8 11 -34 24 -57 31 -54 39 -92 23 -105 -6 -5 -29 -15
-49 -21 -83 -27 -97 -91 -42 -194 26 -49 27 -59 25 -168 -1 -105 0 -118 21
-149 42 -61 71 -75 153 -74 60 1 81 6 119 28 50 29 96 89 116 150 36 109 -48
288 -175 372 -37 25 -61 50 -75 78 -21 44 -115 156 -131 156 -5 0 -9 -7 -9
-16z"/>
<path d="M8327 7315 c-91 -23 -136 -93 -137 -210 0 -150 63 -290 184 -411 90
-90 167 -134 246 -142 142 -13 220 62 220 213 0 93 -13 144 -61 243 -56 115
-164 229 -263 276 -85 41 -125 48 -189 31z"/>
<path d="M4395 7293 c-71 -22 -178 -132 -228 -235 -53 -110 -70 -191 -65 -318
3 -89 8 -113 30 -155 30 -59 51 -79 101 -100 75 -31 160 -8 242 66 118 109
185 257 193 430 7 169 -34 265 -133 310 -48 22 -74 23 -140 2z"/>
<path d="M1480 7205 c0 -8 20 -28 45 -45 57 -39 67 -71 30 -102 -40 -35 -43
-89 -11 -171 15 -36 42 -119 61 -184 29 -100 39 -123 69 -150 46 -42 92 -50
169 -29 82 23 110 46 146 118 58 114 35 222 -70 333 -50 53 -152 115 -189 115
-10 0 -35 14 -56 31 -45 36 -72 51 -143 79 -42 16 -51 17 -51 5z"/>
<path d="M12157 7194 c-31 -7 -70 -20 -85 -28 -20 -10 -41 -12 -77 -6 -66 11
-186 -10 -251 -43 -63 -32 -129 -103 -143 -153 -16 -58 -13 -134 8 -179 24
-54 100 -122 145 -130 84 -16 144 20 223 137 25 37 47 54 110 85 64 31 81 45
97 76 l18 38 -27 54 c-15 29 -25 60 -22 67 5 13 59 43 120 67 75 29 -11 41
-116 15z"/>
<path d="M5995 7173 c-5 -10 -9 -70 -10 -133 -2 -96 -6 -123 -26 -165 -32 -69
-39 -211 -14 -285 33 -100 119 -168 225 -177 102 -10 213 63 226 149 9 53 -11
108 -67 180 -45 60 -52 74 -60 137 -10 81 -29 124 -64 147 -21 14 -32 15 -69
5 -25 -6 -52 -11 -60 -11 -23 0 -39 37 -45 104 -6 60 -22 82 -36 49z"/>
<path d="M9760 7105 c-140 -63 -214 -285 -165 -493 43 -180 172 -293 298 -261
94 23 173 130 203 271 37 173 -30 383 -147 464 -50 34 -135 43 -189 19z"/>
<path d="M552 6999 c2 -7 24 -21 49 -29 58 -21 99 -49 99 -67 0 -8 -9 -28 -20
-43 -48 -68 -27 -131 57 -170 26 -12 59 -27 72 -33 13 -7 49 -46 80 -87 91
-122 173 -148 264 -83 64 45 98 101 104 170 12 135 -52 226 -202 283 -47 18
-84 23 -170 25 -75 1 -124 8 -155 19 -62 24 -184 34 -178 15z"/>
<path d="M7370 6889 c0 -11 5 -40 11 -64 15 -61 1 -85 -50 -85 -32 0 -45 -6
-69 -34 -17 -19 -38 -60 -47 -91 -8 -31 -39 -106 -67 -167 -45 -99 -50 -115
-46 -164 6 -67 30 -95 113 -135 69 -33 91 -35 164 -13 72 21 134 80 161 150
38 102 19 271 -39 353 -12 17 -31 63 -42 103 -21 75 -66 168 -81 168 -4 0 -8
-9 -8 -21z"/>
<path d="M12275 6734 c-16 -8 -48 -33 -70 -54 -44 -43 -87 -64 -155 -75 -150
-25 -209 -128 -149 -265 26 -58 44 -77 102 -106 66 -34 122 -40 190 -20 104
30 215 160 247 288 8 30 21 53 36 63 27 18 124 152 124 172 0 23 -26 14 -58
-22 -18 -19 -45 -41 -61 -50 -29 -14 -61 -12 -61 5 0 5 -15 25 -34 44 -37 40
-64 45 -111 20z"/>
<path d="M3025 6715 c-144 -73 -186 -336 -86 -540 127 -258 383 -277 464 -34
52 155 8 366 -103 491 -75 86 -197 122 -275 83z"/>
<path d="M4777 6556 c-168 -60 -307 -269 -307 -461 0 -95 19 -145 73 -192 62
-55 174 -57 267 -7 62 34 165 141 202 210 52 97 73 236 47 327 -13 47 -63 106
-106 123 -41 18 -127 17 -176 0z"/>
<path d="M250 6537 c0 -20 67 -114 110 -155 26 -24 42 -49 46 -72 18 -100 116
-230 208 -277 67 -34 152 -35 217 -4 63 30 87 55 116 119 20 43 24 65 21 110
-5 51 -9 60 -47 93 -34 30 -58 41 -119 55 -94 20 -117 32 -162 79 -42 45 -80
65 -117 65 -33 -1 -50 -13 -82 -57 -13 -20 -31 -33 -44 -33 -27 0 -69 27 -97
63 -22 28 -50 36 -50 14z"/>
<path d="M10658 6540 c-77 -23 -166 -110 -192 -187 -33 -97 -16 -184 68 -351
115 -228 349 -514 459 -563 109 -47 263 -16 337 68 40 45 45 72 31 154 -18
100 1 160 78 243 124 133 122 240 -7 426 -66 95 -101 130 -157 156 -67 32
-141 31 -220 -1 -101 -42 -197 -32 -277 28 -39 29 -82 39 -120 27z"/>
<path d="M8095 6492 c-71 -34 -115 -103 -115 -181 0 -54 33 -157 70 -215 49
-76 134 -152 219 -194 63 -31 87 -38 153 -41 97 -4 155 20 196 82 24 36 27 50
27 126 0 78 -3 93 -34 156 -46 94 -151 198 -246 245 -89 43 -205 53 -270 22z"/>
<path d="M9124 6436 c-57 -18 -123 -67 -166 -124 -81 -105 -157 -301 -194
-497 -24 -127 -24 -339 1 -424 25 -86 72 -136 138 -146 130 -20 244 30 452
196 77 62 159 120 181 130 26 12 88 23 164 29 146 13 213 36 269 91 125 125
119 254 -16 395 -226 236 -639 409 -829 350z"/>
<path d="M2056 6308 c-92 -56 -162 -63 -254 -24 -76 32 -167 35 -227 7 -47
-22 -103 -80 -170 -175 -117 -167 -114 -287 9 -416 71 -74 80 -106 71 -240
l-7 -108 32 -36 c18 -20 60 -49 95 -66 78 -37 176 -42 248 -11 180 77 547 629
547 822 0 98 -66 204 -164 259 -69 40 -98 38 -180 -12z"/>
<path d="M5533 6258 c3 -41 13 -92 22 -114 9 -21 23 -73 30 -116 24 -133 112
-267 200 -304 55 -22 151 -18 212 10 82 38 142 137 130 212 -9 55 -41 89 -160
169 -62 41 -131 91 -155 110 -70 56 -113 58 -172 9 -27 -23 -33 -25 -46 -13
-8 8 -20 34 -27 59 -7 24 -19 46 -26 48 -12 4 -13 -9 -8 -70z"/>
<path d="M3836 6240 c-65 -17 -208 -97 -293 -165 -105 -84 -209 -197 -283
-307 -104 -155 -126 -263 -72 -349 35 -54 83 -96 142 -123 56 -25 152 -26 270
-1 119 24 164 18 305 -44 212 -94 299 -121 391 -121 176 0 244 59 244 212 0
287 -264 760 -485 869 -69 34 -153 45 -219 29z"/>
<path d="M6635 6124 c-121 -32 -192 -69 -232 -122 -44 -58 -57 -110 -49 -205
9 -104 -11 -150 -101 -233 -61 -57 -66 -65 -71 -112 -4 -42 1 -62 29 -122 88
-191 231 -222 603 -129 158 40 269 79 380 135 107 53 147 89 183 162 47 95 27
262 -37 316 -21 17 -47 26 -92 31 -35 4 -77 13 -94 20 -48 20 -105 75 -125
121 -24 57 -85 123 -134 145 -55 25 -149 23 -260 -7z"/>
<path d="M11722 5880 c-69 -43 -94 -177 -51 -267 26 -54 96 -116 147 -131 106
-32 251 9 359 102 26 23 68 54 93 68 25 15 67 49 95 77 48 49 48 51 23 51 -15
0 -30 -5 -34 -11 -3 -6 -20 -17 -38 -24 -36 -16 -56 -5 -56 31 0 33 -18 68
-43 84 -21 14 -102 22 -352 35 -100 6 -113 5 -143 -15z"/>
<path d="M905 5695 c-55 -7 -131 -14 -170 -14 -81 -1 -131 -25 -140 -66 -3
-14 -7 -36 -10 -50 -4 -17 -12 -25 -26 -25 -11 0 -37 11 -57 25 -37 25 -62 32
-62 17 0 -14 104 -110 151 -139 25 -15 74 -49 108 -75 84 -64 157 -90 251 -92
65 -1 81 3 123 27 88 52 134 143 124 245 -14 136 -89 174 -292 147z"/>
<path d="M11934 4991 c-206 -93 -288 -500 -149 -736 16 -28 46 -58 73 -76 190
-120 407 142 389 470 -9 172 -65 292 -157 339 -54 27 -101 28 -156 3z"/>
<path d="M6569 4936 c-44 -16 -73 -35 -97 -67 -175 -224 -80 -707 153 -774 75
-22 123 -8 185 54 126 126 143 418 38 625 -36 70 -115 144 -171 161 -60 18
-62 18 -108 1z"/>
<path d="M11168 4900 c-49 -9 -83 -33 -114 -80 -130 -197 -6 -608 218 -719
124 -62 221 -26 279 104 18 40 23 69 23 150 1 122 -13 184 -69 300 -82 171
-214 268 -337 245z"/>
<path d="M7323 4815 c-172 -87 -302 -381 -263 -595 13 -73 31 -113 69 -153 86
-93 215 -73 335 53 185 194 223 570 69 687 -53 40 -140 44 -210 8z"/>
<path d="M9400 4830 c0 -5 18 -21 40 -35 22 -14 47 -36 56 -50 17 -25 16 -27
-16 -60 -28 -29 -33 -41 -33 -79 1 -24 11 -66 23 -92 12 -27 36 -102 54 -166
37 -131 53 -160 99 -188 39 -24 86 -25 155 -5 101 30 166 120 166 230 0 79
-28 140 -100 215 -55 58 -156 120 -195 120 -10 0 -34 13 -52 30 -37 32 -152
90 -179 90 -10 0 -18 -4 -18 -10z"/>
<path d="M4170 4794 c0 -9 9 -29 21 -45 25 -36 41 -88 33 -111 -3 -10 -23 -22
-45 -28 -65 -18 -83 -42 -76 -109 3 -31 15 -77 26 -103 18 -40 21 -63 19 -155
-3 -123 9 -159 65 -193 40 -25 182 -28 226 -6 41 22 107 98 121 140 41 126
-40 306 -178 395 -31 20 -54 44 -65 69 -17 40 -122 162 -138 162 -5 0 -9 -7
-9 -16z"/>
<path d="M1300 4636 c-69 -15 -111 -37 -143 -75 -79 -94 -54 -224 65 -337 160
-153 442 -192 568 -78 139 125 56 335 -175 445 -74 35 -173 60 -235 58 -14 0
-50 -6 -80 -13z"/>
<path d="M3643 4638 c-4 -7 -10 -69 -13 -138 -4 -88 -10 -134 -22 -155 -39
-73 -47 -205 -17 -304 18 -61 88 -135 146 -155 107 -36 228 -4 280 75 22 33
25 47 21 97 -4 52 -10 67 -56 129 -59 80 -72 109 -72 163 0 83 -41 140 -101
140 -21 0 -49 -4 -63 -10 -19 -7 -29 -6 -40 6 -18 18 -36 77 -36 121 0 35 -14
51 -27 31z"/>
<path d="M8483 4622 c10 -11 33 -23 51 -26 17 -3 47 -19 66 -35 l34 -28 -27
-41 c-38 -58 -36 -99 6 -140 18 -17 54 -39 79 -48 49 -16 87 -52 146 -138 51
-74 133 -103 205 -72 39 17 112 91 126 129 21 55 13 149 -16 208 -55 106 -169
160 -353 164 -71 1 -119 7 -150 19 -25 10 -76 20 -115 23 -70 6 -70 6 -52 -15z"/>
<path d="M5010 4354 c0 -8 5 -35 11 -59 6 -25 8 -56 5 -70 -5 -21 -12 -25 -45
-25 -53 0 -95 -42 -117 -118 -9 -31 -39 -105 -65 -163 -42 -90 -49 -115 -49
-167 0 -76 24 -107 111 -147 51 -23 71 -27 114 -22 91 9 164 60 201 142 20 42
24 66 24 150 0 105 -19 173 -67 241 -11 16 -23 47 -26 68 -8 47 -72 186 -87
186 -5 0 -10 -7 -10 -16z"/>
<path d="M12491 4317 c-58 -18 -147 -111 -185 -191 -85 -176 -73 -391 27 -494
90 -94 195 -89 307 14 69 65 111 142 140 258 26 102 25 133 -5 231 -48 160
-150 225 -284 182z"/>
<path d="M2330 4277 c-159 -47 -341 -160 -493 -306 -170 -164 -236 -277 -237
-407 0 -102 43 -185 161 -309 218 -228 555 -396 710 -355 77 21 159 130 174
232 9 57 -5 120 -52 242 -44 114 -45 175 -5 328 45 168 54 221 53 311 -1 182
-74 288 -199 286 -20 0 -71 -10 -112 -22z"/>
<path d="M5980 4248 c-49 -26 -102 -95 -120 -156 -6 -20 -14 -73 -17 -117 -13
-189 89 -386 236 -453 158 -72 301 68 301 294 0 142 -45 267 -126 354 -88 94
-189 123 -274 78z"/>
<path d="M8170 4172 c0 -17 64 -109 105 -152 32 -32 50 -62 64 -107 34 -112
109 -206 203 -254 63 -33 157 -32 223 3 28 14 57 34 66 44 25 29 56 95 64 136
16 83 -49 166 -146 187 -103 24 -148 42 -173 71 -36 44 -95 80 -128 80 -28 0
-55 -20 -100 -78 -15 -18 -21 -20 -46 -11 -16 5 -46 28 -67 49 -36 37 -65 51
-65 32z"/>
<path d="M10710 4148 c-160 -83 -140 -369 39 -561 83 -88 159 -127 248 -127
114 0 181 56 205 172 35 167 -92 411 -261 502 -76 41 -168 47 -231 14z"/>
<path d="M711 4129 c-106 -18 -197 -73 -231 -139 -72 -141 59 -306 294 -370
66 -19 98 -21 200 -18 147 5 219 29 282 92 208 207 -158 499 -545 435z"/>
<path d="M7741 4094 c-67 -24 -111 -55 -173 -122 -70 -76 -113 -163 -135 -267
-26 -130 4 -226 88 -282 90 -60 236 -24 344 84 110 109 158 218 159 358 1 109
-24 171 -85 212 -49 32 -136 40 -198 17z"/>
<path d="M10030 3967 c-14 -7 -45 -26 -69 -42 -64 -43 -154 -47 -239 -11 -88
37 -169 36 -237 -3 -61 -35 -76 -51 -154 -166 -122 -178 -121 -278 4 -414 79
-86 96 -143 76 -247 -7 -35 -10 -75 -7 -88 11 -43 53 -82 128 -117 93 -43 167
-45 252 -6 125 57 346 339 474 605 51 105 57 125 60 193 5 102 -19 160 -99
234 -75 69 -137 89 -189 62z"/>
<path d="M11694 3841 c-65 -16 -132 -59 -205 -132 -267 -268 -443 -785 -313
-921 63 -65 219 -80 355 -35 41 14 137 53 213 87 168 74 203 79 349 51 129
-25 157 -26 225 -6 36 11 69 32 111 70 105 98 113 169 35 324 -120 239 -414
500 -628 557 -55 15 -94 16 -142 5z"/>
<path d="M6802 3775 c-120 -26 -275 -127 -423 -276 -147 -147 -243 -303 -264
-426 -9 -55 18 -117 76 -173 93 -90 169 -105 358 -70 149 28 162 26 355 -59
198 -88 255 -105 356 -106 106 0 188 32 216 86 52 101 16 310 -92 539 -109
230 -256 406 -389 465 -68 31 -118 36 -193 20z"/>
<path d="M3183 3709 c3 -36 15 -89 26 -117 11 -28 25 -82 31 -119 13 -82 57
-166 116 -227 58 -59 116 -80 194 -73 103 9 178 70 210 170 25 78 -7 125 -147
218 -58 38 -126 88 -153 110 -32 27 -61 42 -88 46 -34 4 -44 1 -76 -28 -45
-39 -63 -33 -86 29 -24 65 -33 62 -27 -9z"/>
<path d="M4242 3570 c-106 -31 -163 -67 -207 -129 -29 -41 -30 -48 -35 -169
-5 -116 -7 -131 -32 -174 -15 -25 -47 -61 -70 -79 -63 -49 -67 -58 -68 -125 0
-142 115 -270 262 -290 96 -13 446 62 623 134 180 73 264 132 306 214 26 52
27 205 0 263 -27 59 -51 75 -125 86 -118 16 -179 56 -223 143 -28 57 -84 120
-125 142 -47 24 -197 17 -306 -16z"/>
<path d="M885 3434 c-89 -17 -218 -81 -283 -139 -63 -57 -102 -132 -102 -197
0 -81 43 -138 135 -180 68 -30 229 -37 330 -14 153 36 300 137 351 241 48 99
21 198 -69 254 -79 49 -222 63 -362 35z"/>
<path d="M8839 3326 c-3 -3 -65 -10 -139 -14 -133 -9 -133 -9 -162 -40 -17
-21 -28 -43 -28 -62 0 -44 -25 -49 -83 -16 -30 17 -53 24 -59 18 -12 -12 100
-116 155 -143 23 -12 61 -39 84 -60 50 -46 104 -74 180 -94 108 -28 178 -15
249 48 63 55 84 101 84 182 0 75 -16 119 -54 155 -25 22 -37 25 -124 28 -53 2
-100 1 -103 -2z"/>
<path d="M1652 3029 c-192 -33 -368 -183 -388 -330 -10 -69 10 -122 61 -167
56 -49 117 -67 220 -66 257 4 494 218 453 410 -24 114 -179 182 -346 153z"/>
<path d="M3604 2370 c-76 -43 -151 -155 -188 -280 -36 -121 -30 -291 13 -393
38 -89 123 -156 197 -157 43 0 127 45 168 90 100 111 159 323 136 487 -31 228
-176 340 -326 253z"/>
<path d="M9405 2388 c-121 -44 -244 -186 -303 -350 -22 -62 -26 -90 -27 -183
0 -96 3 -116 24 -158 50 -102 154 -135 266 -83 115 52 234 203 287 361 30 92
32 251 4 305 -23 45 -63 88 -98 106 -31 16 -110 17 -153 2z"/>
<path d="M11830 2282 c0 -5 23 -28 50 -51 50 -43 64 -76 35 -88 -21 -7 -45
-56 -45 -88 0 -15 11 -54 25 -88 13 -34 38 -111 55 -172 18 -60 41 -124 51
-141 39 -64 125 -80 223 -43 60 22 92 53 126 124 19 39 22 58 18 115 -6 81
-36 139 -110 213 -43 43 -154 107 -186 107 -7 0 -36 18 -65 39 -29 22 -76 49
-105 60 -58 23 -72 25 -72 13z"/>
<path d="M1160 2267 c0 -7 12 -30 27 -52 17 -25 27 -53 27 -78 1 -37 -1 -39
-49 -58 -27 -10 -56 -27 -62 -36 -21 -28 -15 -84 17 -152 29 -60 30 -69 28
-175 -3 -101 -1 -114 20 -148 35 -56 97 -82 175 -74 73 9 100 22 149 73 49 51
68 99 68 175 0 108 -75 232 -186 309 -24 16 -55 51 -72 81 -34 59 -112 148
-130 148 -7 0 -12 -6 -12 -13z"/>
<path d="M6343 2252 c-104 -37 -156 -90 -193 -195 -36 -103 -21 -159 59 -216
85 -61 111 -117 111 -240 0 -95 15 -142 61 -195 44 -50 96 -74 234 -110 114
-30 163 -32 226 -11 70 24 114 67 153 150 23 46 49 84 73 104 38 32 116 61
160 61 41 0 82 29 104 73 26 50 36 163 20 223 -15 56 -64 126 -109 158 -88 61
-379 157 -572 190 -155 26 -268 29 -327 8z"/>
<path d="M8617 2165 c-145 -37 -262 -231 -262 -435 0 -196 88 -320 226 -320
52 0 132 36 171 77 42 44 97 142 119 213 24 76 29 211 10 280 -39 141 -145
215 -264 185z"/>
<path d="M633 2108 c-4 -7 -9 -65 -10 -128 -2 -99 -6 -124 -29 -180 -34 -83
-38 -206 -10 -289 47 -138 203 -208 331 -147 124 58 154 159 79 265 -72 102
-84 127 -93 200 -14 113 -56 154 -132 132 -20 -6 -44 -11 -52 -11 -23 0 -47
51 -47 99 0 62 -17 89 -37 59z"/>
<path d="M4335 2070 c-131 -51 -270 -212 -327 -379 -16 -47 -22 -90 -23 -151
0 -75 3 -90 28 -133 40 -67 90 -91 177 -85 168 12 356 192 423 403 32 100 30
214 -3 273 -50 88 -160 116 -275 72z"/>
<path d="M10902 2079 c3 -8 27 -22 54 -32 27 -10 60 -29 74 -43 l25 -24 -28
-50 c-47 -84 -26 -123 94 -179 54 -26 73 -41 107 -89 69 -98 116 -132 183
-132 70 0 169 85 190 164 25 90 -7 193 -79 258 -64 58 -139 82 -267 85 -77 2
-127 9 -166 22 -76 27 -193 39 -187 20z"/>
<path d="M9959 1887 c-134 -46 -249 -134 -328 -253 -80 -118 -100 -217 -62
-301 55 -121 239 -138 426 -40 88 47 223 184 265 270 53 108 54 217 3 278 -60
71 -179 89 -304 46z"/>
<path d="M2905 1871 c-171 -77 -241 -393 -134 -606 31 -62 106 -131 159 -145
181 -49 348 203 310 469 -31 222 -184 351 -335 282z"/>
<path d="M2004 1825 c-4 -8 -1 -28 6 -44 6 -16 10 -46 8 -67 -3 -39 -3 -39
-52 -45 -59 -6 -89 -37 -112 -118 -9 -30 -38 -103 -64 -161 -27 -58 -51 -122
-55 -142 -14 -72 40 -143 135 -179 66 -25 118 -21 187 15 60 30 86 58 115 121
19 42 23 65 22 145 -1 101 -16 157 -58 221 -13 19 -31 63 -40 97 -16 64 -58
156 -76 167 -6 3 -13 -1 -16 -10z"/>
<path d="M5802 1658 c-19 -6 -56 -31 -83 -56 -86 -77 -129 -176 -134 -307 -2
-44 -10 -105 -19 -135 -18 -61 -22 -170 -6 -170 11 0 25 29 34 71 3 15 14 37
25 50 19 23 19 23 53 5 48 -26 98 -15 151 32 54 48 116 96 199 155 126 89 137
178 36 292 -17 20 -44 43 -60 51 -38 20 -153 27 -196 12z"/>
<path d="M10600 1617 c0 -20 56 -103 104 -155 28 -30 48 -63 56 -92 19 -73 60
-138 126 -199 112 -105 216 -118 336 -42 85 54 125 192 78 269 -27 43 -70 68
-153 87 -84 19 -113 33 -152 75 -35 37 -94 70 -126 70 -21 0 -74 -47 -95 -85
-11 -19 -12 -19 -52 -1 -23 11 -53 34 -67 52 -26 34 -55 45 -55 21z"/>
<path d="M12470 1423 c-8 -3 -39 -22 -68 -41 -46 -31 -63 -37 -123 -40 -57 -4
-80 0 -134 22 -74 29 -156 34 -209 12 -52 -22 -101 -71 -171 -172 -76 -109
-95 -155 -95 -233 1 -72 25 -124 85 -181 64 -61 85 -108 84 -190 -1 -36 -4
-78 -8 -95 -16 -70 31 -135 133 -181 79 -37 166 -38 243 -5 124 55 378 383
492 636 41 91 45 107 45 180 0 70 -3 87 -29 133 -55 101 -179 179 -245 155z"/>
<path d="M7225 1297 c-91 -44 -130 -116 -104 -194 6 -21 38 -91 71 -157 32
-65 58 -126 58 -135 0 -27 38 -79 69 -95 20 -11 43 -14 74 -10 56 8 62 -2 47
-67 -9 -37 -9 -54 -1 -62 15 -15 70 106 81 180 4 32 19 81 31 108 48 106 35
280 -27 362 -64 85 -201 117 -299 70z"/>
<path d="M8900 1304 c-294 -33 -579 -146 -728 -288 -48 -45 -82 -103 -82 -139
0 -48 33 -119 80 -170 60 -66 129 -107 272 -163 278 -110 276 -108 369 -245
107 -157 163 -193 299 -193 100 0 136 15 180 75 65 91 100 233 107 444 13 367
-86 607 -270 659 -57 16 -171 26 -227 20z"/>
<path d="M4525 1267 c-99 -33 -188 -97 -252 -182 -139 -183 -135 -363 10 -437
63 -32 179 -23 271 21 93 45 201 152 246 244 44 90 52 191 22 260 -31 70 -85
101 -181 104 -43 2 -94 -3 -116 -10z"/>
<path d="M165 1250 c-9 -15 14 -160 32 -194 8 -16 19 -58 24 -95 18 -129 105
-263 199 -304 153 -68 340 43 340 202 0 66 -32 103 -163 188 -54 36 -115 79
-136 98 -68 62 -135 69 -181 20 -13 -14 -29 -25 -36 -25 -13 0 -44 58 -44 83
0 20 -26 41 -35 27z"/>
<path d="M3512 1209 c-196 -34 -458 -176 -619 -334 -84 -83 -133 -162 -133
-217 0 -56 41 -141 95 -194 63 -64 113 -81 271 -94 60 -5 130 -17 154 -26 24
-10 100 -62 168 -117 164 -130 227 -171 320 -201 96 -32 123 -32 192 2 43 22
59 36 77 72 89 181 40 590 -104 873 -103 200 -229 271 -421 236z"/>
<path d="M1259 1051 c-109 -31 -174 -66 -214 -113 -47 -56 -56 -90 -53 -202 2
-98 1 -105 -29 -157 -16 -30 -50 -69 -74 -88 -57 -43 -68 -65 -69 -127 0 -66
54 -180 105 -219 74 -56 118 -68 234 -63 242 11 643 139 783 250 22 17 50 55
69 94 30 60 32 69 26 144 -6 93 -35 163 -76 184 -14 8 -49 17 -76 21 -115 16
-173 55 -227 157 -77 145 -191 179 -399 119z"/>
<path d="M9890 1040 c-76 -16 -186 -77 -255 -142 -135 -126 -170 -285 -84
-382 87 -99 301 -94 458 11 188 124 266 328 169 439 -17 19 -49 44 -70 55 -46
24 -151 33 -218 19z"/>
<path d="M6139 966 c-133 -47 -186 -140 -177 -309 3 -66 11 -96 36 -151 27
-57 32 -80 32 -140 0 -40 7 -96 15 -124 22 -74 42 -68 36 10 -3 38 17 105 32
111 8 3 35 0 61 -6 41 -9 50 -8 74 10 44 32 59 80 62 190 0 12 21 52 46 88 55
81 66 107 66 162 0 51 -22 91 -68 122 -71 49 -146 62 -215 37z"/>
<path d="M6630 838 c-32 -16 -52 -36 -68 -68 -21 -40 -23 -53 -16 -120 11
-111 8 -142 -15 -189 -12 -23 -25 -63 -28 -89 -7 -60 16 -90 83 -112 42 -13
49 -19 52 -43 2 -17 -8 -52 -23 -84 -18 -35 -24 -58 -18 -64 15 -15 83 67 121
145 21 44 42 70 61 80 41 22 116 108 145 169 64 131 50 242 -41 328 -52 50
-73 59 -146 65 -52 5 -69 2 -107 -18z"/>
<path d="M11235 770 c-27 -5 -85 -9 -128 -9 -84 -1 -140 -18 -155 -48 -5 -10
-12 -35 -16 -55 -6 -31 -11 -38 -30 -38 -13 0 -34 8 -47 18 -33 25 -57 33 -65
21 -9 -15 86 -103 138 -130 24 -12 61 -38 84 -59 81 -75 193 -120 294 -120 94
0 189 69 225 164 33 86 4 209 -59 247 -33 20 -141 24 -241 9z"/>
</g>
</svg>
