<?xml version="1.0" standalone="no"?>
<!DOCTYPE svg PUBLIC "-//W3C//DTD SVG 20010904//EN"
 "http://www.w3.org/TR/2001/REC-SVG-20010904/DTD/svg10.dtd">
<svg version="1.0" xmlns="http://www.w3.org/2000/svg"
 width="1056.000000pt" height="1280.000000pt" viewBox="0 0 1056.000000 1280.000000"
 preserveAspectRatio="xMidYMid meet">
<metadata>
Created by potrace 1.15, written by Peter Selinger 2001-2017
</metadata>
<g transform="translate(0.000000,1280.000000) scale(0.100000,-0.100000)"
fill="#000000" stroke="none">
<path d="M6515 12794 c-792 -64 -1434 -353 -2195 -990 -394 -329 -897 -842
-1265 -1289 -640 -778 -1212 -1675 -1738 -2725 -262 -521 -412 -855 -602
-1335 -270 -680 -460 -1291 -539 -1735 -157 -877 -215 -1800 -141 -2238 20
-114 74 -285 89 -279 149 61 310 128 313 131 2 1 -6 29 -17 61 -109 318 -81
1096 76 2095 50 314 104 544 213 896 345 1117 951 2423 1642 3534 394 636 845
1242 1275 1717 256 282 645 663 894 874 839 711 1535 977 2427 929 270 -14
656 -54 911 -95 1032 -165 1630 -650 2080 -1690 98 -226 198 -507 221 -622
105 -511 28 -1428 -205 -2463 -426 -1889 -1242 -3786 -2232 -5190 -509 -721
-1087 -1339 -1672 -1787 -97 -74 -335 -244 -368 -262 -11 -6 8 -41 85 -154
l100 -146 119 80 c746 509 1476 1264 2100 2174 669 976 1235 2112 1684 3380
641 1813 935 3657 720 4515 -42 167 -191 549 -314 805 -437 907 -1015 1405
-1896 1634 -233 60 -558 109 -1045 157 -146 14 -619 26 -720 18z"/>
<path d="M6120 11983 c-92 -6 -289 -33 -395 -54 -476 -96 -981 -354 -1407
-721 l-68 -59 36 -45 c36 -43 37 -44 59 -26 12 9 78 62 146 117 388 313 817
526 1236 614 414 87 891 78 1463 -28 512 -95 1193 -325 1580 -534 127 -69 298
-185 369 -252 144 -136 360 -483 491 -788 125 -293 200 -571 231 -857 37 -350
22 -1166 -26 -1405 -6 -29 -5 -30 46 -42 29 -7 56 -10 60 -5 13 14 38 230 50
432 13 232 7 840 -11 1015 -47 468 -227 969 -507 1407 -162 253 -248 346 -441
474 -358 238 -992 484 -1622 629 -435 100 -935 150 -1290 128z"/>
<path d="M6200 11433 c-547 -36 -1122 -193 -1625 -442 -292 -144 -513 -285
-773 -494 l-122 -99 31 -39 c17 -21 35 -41 40 -44 5 -4 46 25 91 63 592 493
1324 808 2120 912 575 74 1061 35 1648 -135 102 -30 223 -68 270 -85 47 -18
108 -40 135 -50 226 -80 552 -248 733 -377 158 -112 320 -306 482 -573 155
-257 259 -564 286 -848 8 -83 12 -88 80 -77 l46 7 -7 71 c-12 126 -63 358
-105 482 -78 230 -212 472 -402 726 -47 63 -115 142 -150 174 -418 392 -1372
754 -2168 825 -103 9 -495 11 -610 3z"/>
<path d="M6025 10930 c-666 -35 -1731 -481 -2380 -996 -144 -114 -382 -354
-472 -475 -171 -230 -327 -477 -674 -1071 -634 -1085 -816 -1367 -1000 -1549
-37 -37 -83 -73 -104 -80 l-37 -14 4 -52 c3 -29 8 -56 11 -60 14 -13 93 23
147 67 194 157 383 436 936 1383 500 854 678 1138 843 1345 209 262 553 541
946 768 509 293 1136 526 1615 600 280 43 753 22 1165 -52 688 -125 1310 -417
1709 -804 143 -139 214 -235 296 -405 178 -363 299 -769 357 -1195 25 -185 25
-624 1 -787 -54 -352 -143 -648 -411 -1353 -135 -355 -162 -443 -176 -571 -19
-172 -25 -370 -12 -431 13 -60 61 -141 97 -165 19 -12 23 -10 53 33 l33 45
-26 28 c-49 51 -56 127 -36 391 13 175 29 232 150 555 283 751 368 1017 424
1330 121 674 -6 1460 -352 2185 -107 224 -279 421 -539 616 -496 374 -1171
619 -1908 693 -220 23 -475 30 -660 21z"/>
<path d="M5955 10493 c-304 -16 -795 -103 -1045 -185 -341 -111 -734 -391
-1185 -843 -351 -351 -647 -723 -775 -972 -22 -44 -65 -154 -94 -244 -143
-439 -359 -934 -561 -1284 -265 -460 -576 -804 -868 -959 -103 -54 -235 -95
-333 -102 -47 -4 -87 -10 -89 -14 -2 -4 -2 -30 2 -59 l6 -51 42 0 c176 0 424
99 625 249 102 76 289 263 389 390 330 417 651 1050 882 1745 80 239 110 303
214 457 323 477 889 1049 1335 1347 266 178 493 263 915 341 447 83 984 96
1445 35 347 -45 689 -141 945 -264 243 -117 384 -239 534 -462 374 -559 558
-1548 442 -2376 -59 -414 -170 -743 -470 -1384 -194 -416 -232 -520 -232 -643
0 -81 40 -215 105 -350 53 -112 154 -283 179 -303 10 -8 24 -4 59 19 l46 30
-59 92 c-125 191 -212 404 -212 517 0 104 10 130 298 755 326 708 435 1156
435 1784 0 756 -181 1452 -503 1938 -85 129 -247 296 -356 368 -352 231 -871
381 -1477 425 -119 9 -497 10 -639 3z"/>
<path d="M5445 10055 c-484 -59 -941 -284 -1434 -707 -46 -40 -46 -41 2 -97
l27 -33 88 74 c214 180 426 323 632 427 506 256 936 291 1805 145 633 -106
1102 -311 1432 -627 213 -203 292 -353 357 -677 42 -206 59 -493 74 -1237 4
-210 10 -384 14 -388 10 -10 119 6 112 16 -3 5 -10 260 -14 567 -10 575 -22
778 -60 1007 -62 366 -148 544 -370 765 -434 435 -1057 664 -2079 765 -184 18
-435 18 -586 0z"/>
<path d="M5440 9710 c-52 -4 -129 -13 -170 -19 -89 -14 -292 -61 -302 -70 -8
-7 10 -91 22 -104 4 -5 32 -1 61 7 255 74 596 93 904 52 219 -30 645 -127 970
-221 434 -126 800 -458 1035 -937 67 -137 143 -344 156 -426 6 -38 9 -43 28
-38 12 3 38 9 59 12 37 7 37 7 31 43 -4 20 -15 65 -26 101 -136 454 -405 852
-753 1113 -119 89 -336 196 -490 242 -181 54 -569 151 -739 184 -281 56 -579
79 -786 61z"/>
<path d="M5240 9354 c-317 -25 -728 -106 -903 -180 -283 -119 -560 -408 -809
-844 -134 -235 -234 -447 -470 -1000 -266 -622 -396 -885 -561 -1130 -288
-430 -627 -675 -1107 -799 -117 -31 -364 -71 -434 -71 l-39 0 7 -57 c4 -31 9
-59 11 -61 4 -5 150 11 270 29 109 16 304 66 409 104 288 104 512 249 727 471
271 281 467 629 820 1454 268 629 388 878 543 1128 186 300 418 538 625 641
115 58 199 82 461 135 443 89 932 86 1330 -8 633 -149 1233 -559 1570 -1071
206 -314 319 -670 365 -1154 49 -505 -24 -961 -212 -1325 -52 -100 -129 -208
-174 -244 -16 -13 -41 -45 -57 -70 -26 -45 -27 -53 -26 -177 0 -105 6 -150 27
-237 37 -149 97 -330 176 -531 71 -177 235 -545 250 -560 10 -10 114 32 109
42 -206 417 -380 875 -433 1135 -17 85 -22 208 -10 247 4 13 35 53 69 89 263
280 429 841 413 1395 -15 494 -107 909 -279 1247 -113 224 -226 377 -417 569
-231 231 -463 399 -751 543 -290 144 -555 226 -885 271 -107 15 -505 27 -615
19z"/>
<path d="M4980 8939 c-41 -5 -95 -14 -120 -20 -65 -17 -185 -79 -258 -133
-398 -293 -895 -1079 -1262 -1996 -212 -529 -578 -1227 -795 -1514 -110 -146
-266 -266 -480 -370 -360 -175 -799 -277 -1207 -280 l-176 -1 -4 -56 -3 -57
75 -6 c134 -11 423 14 635 55 545 106 1015 338 1224 604 163 207 404 629 628
1100 87 184 158 346 278 640 73 178 258 559 365 752 373 667 731 1073 1015
1148 129 34 413 29 640 -10 469 -81 911 -273 1228 -533 98 -79 226 -219 297
-322 226 -331 388 -863 441 -1445 19 -215 1 -343 -67 -483 -53 -108 -138 -188
-312 -291 -77 -46 -163 -103 -190 -127 -105 -92 -169 -230 -158 -342 22 -250
221 -654 611 -1242 119 -180 389 -566 414 -593 4 -4 28 8 54 28 l46 35 -81
113 c-550 756 -902 1386 -925 1656 -5 60 -2 75 22 130 37 83 108 146 272 245
243 146 339 255 401 457 38 123 46 216 33 383 -49 630 -226 1208 -478 1564
-345 488 -1074 851 -1828 912 -138 11 -229 11 -335 -1z"/>
<path d="M5135 8479 c-99 -13 -220 -52 -290 -94 -155 -93 -365 -360 -582 -740
-191 -334 -464 -902 -820 -1710 -192 -437 -342 -720 -511 -965 -345 -502 -770
-809 -1217 -880 -201 -32 -712 -80 -847 -80 l-68 0 0 -60 0 -60 48 0 c151 0
639 48 927 90 998 148 2097 468 3155 920 899 384 1717 847 2006 1136 128 127
214 291 266 504 8 36 13 122 13 250 0 168 -3 209 -23 300 -34 152 -75 269
-142 405 -172 352 -355 524 -775 730 -402 197 -832 293 -1140 254z m343 -124
c441 -62 966 -297 1213 -544 221 -222 370 -553 410 -915 28 -251 -39 -512
-179 -697 -125 -165 -438 -385 -927 -654 -1034 -567 -2327 -1052 -3507 -1314
-76 -17 -143 -31 -149 -31 -5 0 20 21 58 46 210 144 432 373 621 642 184 262
328 533 550 1037 414 939 674 1468 900 1835 178 288 341 478 465 539 136 66
328 86 545 56z"/>
<path d="M5407 8005 c-252 -35 -456 -132 -615 -294 -121 -122 -224 -291 -290
-476 -225 -626 -626 -1389 -1195 -2275 -58 -90 -104 -166 -102 -169 6 -5 121
13 320 50 877 165 2104 658 2825 1135 226 150 378 287 428 387 38 76 55 186
55 352 0 224 -43 394 -152 602 -179 340 -509 617 -818 687 -88 20 -313 20
-456 1z m396 -109 c363 -70 728 -426 860 -841 42 -130 51 -192 52 -340 0 -142
-14 -243 -43 -300 -39 -78 -209 -225 -412 -357 -547 -356 -1365 -717 -2170
-959 -180 -55 -650 -165 -650 -153 0 2 25 42 55 89 30 47 129 208 218 357 418
697 714 1288 888 1772 161 448 426 677 839 725 200 23 269 25 363 7z"/>
<path d="M5510 7590 c-135 -12 -235 -65 -350 -187 -93 -97 -173 -220 -265
-408 -81 -165 -102 -215 -245 -576 -132 -330 -170 -420 -251 -583 -94 -189
-163 -290 -290 -420 -59 -61 -107 -111 -106 -112 5 -5 431 76 523 99 681 170
1264 485 1596 862 103 117 160 213 204 343 131 385 18 712 -306 881 -91 48
-225 88 -318 96 -37 3 -78 7 -92 9 -14 1 -59 -1 -100 -4z m284 -141 c212 -53
373 -181 437 -347 31 -81 38 -242 14 -348 -38 -176 -111 -308 -250 -453 -304
-318 -775 -578 -1337 -741 -107 -30 -320 -81 -325 -77 -1 1 19 34 43 72 114
176 187 332 366 780 159 398 188 465 270 630 135 268 265 427 395 482 89 37
243 38 387 2z"/>
<path d="M5614 7191 c-68 -17 -132 -58 -200 -125 -117 -118 -198 -271 -326
-621 -127 -347 -143 -380 -248 -515 -37 -47 -70 -90 -74 -97 -10 -17 285 105
449 187 366 181 659 430 775 660 140 278 25 503 -265 516 -44 2 -94 0 -111 -5z
m221 -141 c66 -33 95 -77 95 -145 0 -177 -170 -397 -470 -606 -141 -98 -386
-229 -376 -201 16 52 178 479 205 542 98 230 201 368 312 420 61 29 165 24
234 -10z"/>
<path d="M6260 5395 c-41 -107 -37 -298 9 -476 101 -391 400 -902 807 -1379
131 -155 380 -401 483 -478 87 -65 196 -126 210 -118 14 9 45 100 35 103 -35
12 -151 90 -228 154 -399 332 -893 996 -1101 1479 -110 254 -151 496 -111 648
11 40 12 54 3 57 -100 36 -97 36 -107 10z"/>
<path d="M5689 5002 c-123 -129 -229 -197 -484 -311 -498 -223 -1534 -521
-2203 -633 l-132 -22 0 -35 c0 -20 3 -46 6 -58 6 -20 11 -22 48 -17 331 48
970 199 1455 345 530 159 977 338 1189 474 40 26 74 46 76 44 1 -2 7 -40 13
-85 41 -294 257 -684 607 -1093 128 -151 495 -514 671 -665 167 -143 408 -327
482 -368 l49 -27 27 55 c25 50 26 55 10 61 -31 11 -183 118 -298 209 -179 142
-310 258 -489 434 -528 517 -815 927 -923 1315 -26 94 -28 111 -26 278 1 97 0
177 -1 177 -2 0 -36 -35 -77 -78z"/>
<path d="M5295 4312 c-119 -96 -261 -168 -485 -245 -522 -180 -1335 -327
-2225 -402 -530 -44 -1286 -47 -1648 -6 -76 8 -72 11 -81 -61 l-5 -46 37 -6
c107 -18 494 -36 767 -36 1329 0 2887 257 3513 580 l112 58 6 -26 c28 -133
103 -307 187 -434 195 -298 440 -526 1027 -953 293 -213 471 -348 577 -437 51
-43 97 -78 102 -78 15 0 73 79 66 90 -13 21 -319 260 -525 410 -516 376 -653
485 -839 665 -307 298 -456 560 -502 884 -7 50 -15 91 -19 91 -3 0 -32 -22
-65 -48z"/>
<path d="M4805 3476 c-190 -82 -518 -153 -887 -190 -533 -55 -1550 -53 -2688
4 -102 5 -254 12 -337 16 l-153 7 0 -60 0 -60 172 -6 c95 -4 259 -12 363 -17
988 -51 2066 -55 2575 -9 364 32 669 89 897 168 l82 28 33 -34 c45 -47 336
-315 483 -444 520 -458 1124 -898 1472 -1072 l71 -36 26 44 c14 24 26 47 26
52 0 5 -21 19 -47 32 -80 38 -279 159 -438 264 -408 270 -991 747 -1443 1180
-84 81 -158 147 -165 147 -7 -1 -25 -7 -42 -14z"/>
<path d="M4457 2834 c-15 -8 -78 -22 -140 -31 -95 -14 -214 -17 -797 -16 -650
0 -872 4 -2037 38 -271 8 -524 15 -563 15 l-70 0 0 -59 0 -59 118 -1 c64 -1
253 -6 418 -11 1768 -57 2815 -60 3050 -9 l51 12 154 -125 c439 -356 795 -593
1199 -797 183 -93 393 -191 410 -191 7 0 53 101 48 105 -2 1 -52 24 -113 50
-512 221 -1001 535 -1579 1013 -54 45 -103 82 -110 82 -6 -1 -24 -8 -39 -16z"/>
<path d="M840 2341 c0 -28 0 -54 0 -58 0 -8 49 -12 385 -32 750 -45 1259 -62
2034 -68 l734 -5 221 -177 c558 -448 819 -635 1151 -830 169 -99 416 -222 581
-289 l121 -50 21 51 c12 28 19 54 14 58 -4 4 -43 22 -87 39 -183 72 -456 210
-660 333 -295 178 -572 382 -1137 834 l-187 150 -793 6 c-883 6 -1391 25
-2290 83 l-108 7 0 -52z"/>
</g>
</svg>
