<?xml version="1.0" standalone="no"?>
<!DOCTYPE svg PUBLIC "-//W3C//DTD SVG 20010904//EN"
 "http://www.w3.org/TR/2001/REC-SVG-20010904/DTD/svg10.dtd">
<svg version="1.0" xmlns="http://www.w3.org/2000/svg"
 width="468pt" height="168pt" viewBox="0 0 468 168"
 preserveAspectRatio="xMidYMid meet">
<metadata>
Created by POTRACE VERSION, written by Peter Selinger 2001-2007
</metadata>
<g transform="translate(0,168) scale(0.052000,-0.052000)"
fill="#000000" stroke="none">
<path d="M3576 3072 c-16 -2 -49 -19 -75 -37 -25 -19 -75 -52 -111 -73 -36
-22 -74 -49 -84 -61 -11 -12 -23 -21 -28 -21 -5 0 -51 -31 -101 -70 -51 -38
-112 -90 -136 -115 -25 -25 -48 -45 -52 -45 -4 0 -42 -35 -85 -78 -44 -44
-101 -107 -129 -142 -27 -35 -76 -97 -107 -138 -32 -42 -58 -79 -58 -84 0 -4
-9 -8 -20 -8 -11 0 -20 -4 -20 -8 0 -4 -21 -24 -47 -43 -27 -19 -56 -38 -65
-41 -9 -4 -43 -27 -75 -52 -32 -24 -72 -53 -89 -63 -16 -10 -52 -31 -78 -48
-26 -16 -59 -40 -72 -52 -14 -13 -31 -23 -37 -23 -7 0 -35 -18 -62 -41 -27
-22 -58 -45 -69 -51 -12 -6 -37 -24 -56 -39 -19 -15 -51 -35 -70 -46 -19 -10
-51 -30 -70 -44 -19 -14 -64 -40 -100 -59 -36 -18 -68 -39 -73 -46 -4 -7 -20
-19 -35 -26 -15 -8 -36 -20 -47 -26 -11 -6 -36 -18 -55 -27 -19 -8 -64 -33
-100 -54 -36 -22 -76 -45 -90 -51 -14 -6 -43 -20 -65 -32 -22 -12 -55 -32 -74
-45 -19 -13 -42 -23 -53 -23 -10 0 -26 -4 -36 -9 -9 -5 -60 -31 -112 -56 -52
-26 -117 -54 -145 -62 -27 -7 -59 -18 -70 -22 -11 -5 -31 -13 -45 -19 -14 -5
-38 -15 -55 -21 -16 -6 -56 -18 -88 -26 -32 -8 -80 -15 -108 -15 -27 0 -63 7
-78 15 -16 8 -42 31 -58 52 -16 21 -35 52 -42 69 -8 21 -11 67 -8 140 3 60 9
129 14 154 5 25 24 79 43 120 19 41 50 98 69 125 19 28 42 59 51 70 10 11 51
54 92 95 41 41 90 89 108 106 19 17 71 57 115 89 44 33 126 90 182 128 57 37
123 77 148 88 24 11 47 24 50 29 4 6 23 18 43 28 20 10 55 29 77 42 22 12 73
40 113 61 39 22 78 39 85 39 7 0 22 8 33 18 10 10 51 30 89 46 39 15 90 37
114 48 24 10 65 24 90 29 25 6 63 13 84 16 22 3 43 0 52 -7 8 -7 15 -24 15
-39 0 -14 -6 -43 -14 -65 -7 -21 -35 -65 -62 -97 -27 -32 -55 -58 -62 -58 -7
-1 -34 -12 -60 -25 -26 -13 -70 -30 -98 -37 -48 -11 -54 -11 -82 9 -16 12 -35
22 -42 22 -6 0 -24 -7 -40 -15 -24 -13 -30 -22 -30 -50 0 -22 8 -41 22 -55 16
-14 35 -20 70 -20 27 0 56 4 66 9 9 5 33 14 53 20 19 6 42 11 50 11 8 0 34 10
59 23 25 12 67 38 93 57 27 19 64 56 83 83 20 27 44 70 55 94 13 30 19 68 19
117 0 67 -2 74 -29 100 -27 26 -33 27 -97 23 -38 -3 -87 -9 -109 -15 -22 -5
-62 -20 -90 -32 -27 -12 -81 -37 -120 -56 -38 -19 -92 -48 -120 -63 -27 -16
-87 -48 -132 -71 -46 -23 -83 -46 -83 -51 0 -5 -9 -9 -20 -9 -11 0 -20 -5 -20
-10 0 -6 -17 -18 -37 -27 -21 -10 -53 -30 -72 -46 -18 -16 -43 -32 -56 -37
-12 -5 -80 -47 -150 -95 -71 -47 -162 -112 -203 -143 -41 -31 -94 -75 -118
-97 -24 -22 -64 -58 -90 -80 -25 -22 -72 -75 -105 -117 -32 -43 -59 -81 -59
-86 0 -5 -11 -19 -25 -32 -14 -13 -25 -30 -25 -37 0 -7 -6 -23 -12 -36 -7 -12
-16 -24 -20 -27 -3 -3 -13 -25 -22 -50 -9 -25 -16 -59 -16 -75 0 -17 -6 -37
-13 -44 -8 -8 -12 -49 -12 -134 1 -81 6 -135 15 -157 7 -19 24 -52 37 -73 13
-21 49 -54 80 -74 55 -35 58 -36 132 -30 42 3 87 9 101 15 14 5 45 15 70 22
25 7 65 21 89 32 24 11 86 35 138 54 53 19 129 52 171 75 41 22 82 44 91 49 9
4 41 18 71 31 30 13 81 38 112 56 31 17 67 35 80 39 13 3 35 17 50 30 16 12
65 41 110 64 46 23 108 55 138 72 30 17 57 34 58 39 2 5 10 9 17 9 7 0 27 11
43 25 17 14 34 25 40 25 5 0 20 8 33 19 13 10 44 29 69 42 25 14 64 37 87 52
24 15 45 27 49 27 3 0 18 9 32 21 15 11 105 72 201 135 95 63 178 114 184 114
6 0 23 12 39 27 15 14 30 24 33 21 3 -2 -4 -38 -16 -79 -11 -41 -25 -82 -30
-91 -5 -10 -9 -36 -9 -57 0 -22 -4 -43 -10 -46 -5 -3 -10 -44 -10 -90 0 -46 5
-87 10 -90 6 -3 10 -15 10 -27 0 -11 9 -33 21 -49 18 -26 26 -29 74 -29 30 0
87 11 127 24 40 13 102 36 138 50 36 15 93 40 128 57 35 16 66 29 69 29 3 0
-16 -24 -43 -54 -27 -30 -53 -60 -59 -67 -5 -8 -42 -57 -82 -110 -40 -53 -85
-104 -100 -114 -15 -10 -45 -36 -66 -59 -21 -22 -49 -65 -62 -94 -14 -29 -25
-68 -25 -86 0 -18 7 -39 15 -46 9 -8 27 -10 46 -6 18 3 40 15 50 27 10 11 46
61 81 111 35 50 91 128 124 173 34 45 67 92 73 104 7 12 48 65 91 119 43 53
110 128 147 165 37 38 128 116 202 175 74 59 141 119 149 134 12 21 14 34 6
55 -5 16 -18 29 -29 31 -13 1 -67 -36 -153 -109 -74 -60 -174 -135 -223 -165
-49 -30 -95 -54 -101 -54 -6 0 -45 -19 -87 -41 -42 -23 -92 -52 -111 -65 -19
-13 -44 -24 -55 -24 -11 0 -31 -6 -45 -13 -14 -7 -49 -21 -79 -31 -31 -10 -65
-15 -82 -11 -23 5 -30 13 -35 40 -3 19 -4 70 -2 112 2 43 14 112 27 153 12 41
27 83 32 92 5 10 9 23 9 28 0 6 18 48 40 93 26 53 52 90 73 105 17 13 57 41
87 63 30 23 64 49 75 59 11 10 39 37 63 59 23 23 47 41 52 41 5 0 15 6 22 13
7 7 27 21 43 31 17 11 48 39 69 63 21 23 44 43 51 43 7 0 32 20 56 43 24 24
51 48 61 53 9 5 53 43 98 84 45 41 101 95 126 118 24 24 52 57 61 73 10 16 21
29 25 29 4 0 8 22 8 49 0 30 -5 50 -12 53 -7 2 -26 2 -42 0z m-416 -422 c0 -5
-11 -15 -24 -22 -13 -7 -52 -39 -87 -70 -35 -32 -78 -71 -96 -88 -17 -16 -36
-30 -42 -30 -6 0 -11 4 -11 8 0 5 19 26 42 48 24 21 76 67 118 101 41 35 81
63 88 63 6 0 12 -4 12 -10z"/>
<path d="M4965 2959 c-11 -4 -32 -8 -47 -8 -15 -1 -61 -12 -102 -25 -41 -14
-87 -31 -103 -40 -15 -8 -47 -33 -70 -54 -24 -22 -43 -43 -43 -47 0 -4 -8 -19
-19 -33 -10 -15 -26 -55 -35 -90 -9 -35 -16 -94 -16 -131 0 -37 7 -89 16 -114
9 -26 32 -64 53 -85 20 -20 45 -43 56 -50 11 -7 34 -21 50 -32 17 -11 39 -38
49 -60 17 -36 18 -45 7 -76 -7 -20 -10 -38 -7 -41 3 -4 17 4 31 17 19 18 25
34 25 66 0 23 -6 55 -12 71 -7 16 -46 60 -86 97 -40 38 -80 85 -90 105 -10 22
-17 59 -17 98 0 36 6 68 13 75 6 6 12 19 12 27 0 8 11 29 25 47 14 18 25 36
25 39 0 4 14 20 31 36 16 15 63 44 104 64 40 19 82 35 93 35 10 0 22 3 25 6 4
4 35 8 69 9 34 0 77 -4 94 -10 18 -6 44 -20 58 -30 16 -12 26 -30 26 -45 0
-14 7 -38 16 -55 13 -24 15 -48 10 -115 -3 -47 -10 -99 -15 -115 -5 -17 -14
-50 -22 -75 -7 -25 -16 -49 -21 -54 -4 -6 -8 -20 -8 -33 0 -13 -11 -46 -25
-75 -14 -28 -25 -57 -25 -64 0 -7 -9 -29 -19 -51 -11 -21 -37 -74 -59 -118
-21 -44 -43 -89 -49 -100 -6 -11 -24 -47 -39 -79 -16 -33 -45 -76 -65 -95 -19
-20 -55 -49 -79 -66 -23 -16 -67 -45 -97 -62 -30 -18 -78 -52 -106 -76 -29
-24 -69 -55 -90 -70 -22 -14 -64 -47 -95 -74 -31 -26 -85 -75 -120 -108 -35
-33 -69 -65 -75 -71 -7 -7 -39 -42 -72 -80 -33 -37 -69 -77 -81 -88 -11 -12
-45 -59 -74 -106 -30 -47 -61 -92 -70 -100 -8 -8 -33 -55 -54 -105 -21 -49
-42 -99 -47 -110 -5 -11 -14 -33 -20 -50 -6 -16 -15 -55 -20 -85 -6 -30 -12
-69 -16 -87 -3 -17 0 -63 7 -100 6 -41 24 -91 41 -121 21 -37 36 -52 50 -52
12 0 38 17 58 38 20 20 50 55 66 77 17 21 48 60 70 86 22 25 53 64 70 85 16
22 68 91 114 154 47 63 105 144 129 180 24 36 54 76 66 90 13 14 32 41 42 60
10 19 32 53 49 74 16 22 38 55 48 75 11 20 31 52 46 71 14 19 35 51 45 70 10
19 39 63 63 97 23 34 43 64 43 67 0 3 27 48 60 100 33 53 60 98 60 102 0 3 17
29 37 58 20 29 44 57 53 62 9 5 50 25 91 45 41 20 112 45 159 57 58 13 91 17
102 11 10 -6 18 -21 18 -36 0 -14 -11 -40 -23 -57 -13 -17 -27 -42 -30 -56 -3
-14 -20 -39 -36 -57 -16 -18 -39 -57 -50 -88 -12 -31 -21 -71 -21 -90 0 -24 5
-35 19 -40 11 -3 32 -3 48 1 15 3 51 13 78 21 28 8 68 23 90 33 22 9 89 41
149 71 60 29 122 64 138 77 26 22 28 22 28 5 0 -10 -5 -24 -10 -29 -6 -6 -10
-41 -8 -80 l3 -69 34 -3 c19 -2 53 4 75 14 23 9 61 26 86 36 24 11 72 39 105
63 33 23 67 45 75 49 8 4 24 12 35 19 11 7 36 24 56 40 20 15 41 27 46 27 6 0
16 7 23 15 7 8 16 15 21 15 4 0 5 -17 2 -37 -3 -21 -15 -51 -26 -67 -11 -16
-22 -50 -25 -75 -3 -35 0 -50 12 -60 14 -12 30 -8 111 24 52 20 95 41 95 46 0
5 9 9 19 9 11 0 26 8 33 18 7 9 31 26 53 37 22 11 77 44 122 73 46 28 85 52
88 52 3 0 5 -9 5 -20 0 -11 -3 -20 -8 -20 -4 0 -15 -26 -25 -57 -10 -32 -17
-76 -15 -98 2 -29 8 -41 22 -43 10 -2 82 28 160 68 77 39 152 78 166 85 14 7
41 20 60 28 19 8 49 21 65 28 17 8 54 29 83 47 37 23 52 28 52 18 0 -8 -16
-38 -35 -67 -19 -30 -35 -61 -35 -71 0 -9 -4 -20 -10 -23 -5 -3 -10 -28 -10
-55 0 -39 4 -52 19 -60 13 -7 22 -7 26 0 3 5 28 10 54 10 30 0 53 6 60 14 7 8
32 24 56 35 25 12 56 21 70 21 14 0 25 -5 25 -10 0 -6 -11 -16 -25 -22 -14 -6
-25 -15 -25 -19 0 -5 -11 -14 -24 -21 -13 -7 -52 -38 -87 -68 -34 -30 -92 -85
-128 -122 -36 -36 -82 -84 -101 -106 -19 -22 -51 -63 -70 -91 -19 -29 -42 -60
-51 -69 -9 -9 -25 -37 -36 -62 -12 -25 -26 -62 -32 -82 -6 -21 -15 -53 -21
-71 -5 -18 -10 -65 -10 -105 0 -54 6 -85 26 -131 14 -33 33 -62 41 -65 8 -3
24 -1 36 6 12 6 47 31 77 55 30 24 69 60 87 81 18 20 56 63 85 95 29 32 57 66
62 75 5 9 19 27 31 39 12 12 53 64 92 115 38 51 89 120 114 153 24 33 67 96
95 140 28 44 61 103 74 130 17 34 24 67 24 102 -1 31 -9 64 -20 84 -10 17 -26
35 -34 40 -8 4 -24 11 -35 15 -11 4 -28 6 -37 5 -10 -1 -18 2 -18 6 0 5 31 40
69 79 37 38 79 88 93 109 13 22 30 61 38 87 10 38 10 54 0 78 -11 28 -16 30
-61 30 -27 0 -65 -7 -86 -16 -21 -9 -47 -20 -58 -24 -11 -5 -38 -16 -60 -25
-22 -10 -52 -29 -67 -42 -16 -16 -33 -23 -45 -19 -10 3 -25 1 -33 -4 -9 -5
-19 -5 -27 2 -9 7 -19 6 -35 -5 -13 -8 -32 -23 -43 -33 -11 -11 -40 -30 -65
-43 -25 -14 -59 -35 -76 -48 -17 -13 -35 -23 -41 -23 -5 0 -59 -25 -118 -55
-60 -30 -112 -60 -116 -67 -6 -9 -11 -9 -18 -3 -6 6 -3 22 8 45 9 19 22 54 29
77 11 36 10 48 -3 79 -14 35 -17 36 -55 31 -22 -3 -43 -1 -46 4 -3 5 -9 9 -15
9 -5 0 -19 -10 -31 -22 -12 -12 -76 -59 -143 -103 -66 -45 -141 -94 -167 -109
-26 -15 -52 -26 -58 -24 -5 2 1 25 15 52 14 27 25 62 25 78 0 15 -4 28 -10 28
-5 0 -10 6 -10 13 0 8 -12 19 -26 25 -18 9 -31 9 -45 2 -13 -7 -25 -7 -38 -1
-14 8 -29 5 -62 -13 -24 -12 -70 -39 -101 -59 -31 -21 -61 -37 -65 -37 -4 0
-24 -16 -43 -35 -19 -19 -38 -35 -44 -35 -5 0 -17 -6 -25 -13 -9 -8 -32 -20
-51 -27 -19 -8 -40 -21 -47 -30 -11 -13 -12 -13 -13 2 0 10 9 32 20 50 11 18
29 63 41 100 11 37 19 76 17 85 -3 15 -15 18 -63 20 -46 1 -64 -3 -80 -18 -11
-10 -31 -28 -45 -40 -14 -11 -40 -33 -59 -47 -19 -15 -54 -43 -79 -64 -24 -20
-58 -43 -76 -51 -17 -9 -62 -30 -99 -47 -38 -17 -71 -29 -75 -26 -3 3 1 14 9
23 8 10 19 27 25 38 6 11 27 50 47 87 21 36 37 79 37 96 0 16 -7 46 -15 66 -8
19 -27 43 -41 53 -18 12 -44 16 -87 15 -34 -1 -78 -6 -97 -12 -19 -5 -55 -10
-80 -10 -25 0 -50 -4 -55 -9 -6 -4 -22 -11 -37 -15 -16 -3 -28 -4 -28 0 0 3 8
18 18 32 11 15 30 50 45 77 14 28 44 91 67 140 23 50 46 100 51 113 5 12 14
34 20 50 6 15 15 34 19 42 4 9 11 30 14 48 4 17 12 34 17 37 5 4 9 19 9 35 0
16 5 32 10 35 6 3 10 26 10 51 0 25 5 55 11 66 6 11 13 55 16 97 4 58 1 92
-13 140 -13 44 -30 75 -56 102 -21 21 -53 42 -75 48 -21 6 -76 10 -123 9 -47
-1 -94 -5 -105 -9z m2696 -1116 c-5 -10 -30 -37 -55 -60 -25 -23 -56 -47 -68
-54 -13 -7 -35 -25 -51 -40 -15 -16 -31 -29 -35 -29 -4 0 -12 4 -18 8 -8 5 -5
22 12 58 16 35 40 64 83 97 35 28 70 47 85 47 13 0 28 5 32 11 5 8 10 6 16 -5
5 -9 5 -23 -1 -33z m-2901 -284 c0 -6 -5 -20 -12 -32 -6 -12 -18 -27 -27 -34
-9 -6 -24 -28 -35 -50 -10 -21 -21 -43 -25 -49 -3 -7 -28 -45 -55 -85 -27 -41
-51 -82 -54 -91 -2 -10 -8 -18 -12 -18 -4 0 -17 -19 -29 -42 -12 -24 -44 -74
-71 -113 -27 -38 -88 -127 -135 -196 -47 -69 -94 -134 -105 -144 -11 -10 -20
-22 -20 -27 0 -6 -20 -33 -45 -61 -25 -29 -45 -56 -45 -61 0 -4 -14 -25 -31
-45 -17 -20 -38 -45 -48 -56 -9 -11 -32 -42 -51 -70 -19 -27 -48 -65 -64 -83
-17 -17 -35 -32 -42 -32 -7 0 -18 24 -24 56 -9 42 -9 72 0 127 7 40 28 113 46
162 19 50 49 117 66 151 18 33 54 91 79 130 25 38 84 112 131 164 47 52 110
120 140 151 31 31 99 92 153 135 53 44 111 89 128 101 18 12 54 37 80 55 26
18 58 41 69 51 12 9 25 17 30 17 4 0 8 -5 8 -11z m2898 -86 c2 -31 -5 -56 -28
-100 -17 -32 -43 -78 -56 -103 -14 -25 -36 -56 -48 -70 -13 -14 -26 -32 -29
-40 -4 -8 -30 -47 -59 -87 -29 -39 -78 -102 -108 -139 -30 -36 -79 -91 -107
-121 -29 -30 -53 -61 -53 -68 0 -8 -8 -16 -17 -20 -10 -3 -30 -16 -45 -30 -16
-13 -28 -28 -28 -33 0 -4 -13 -18 -30 -30 -16 -12 -33 -22 -38 -22 -5 0 -12
31 -16 69 -5 53 -3 78 10 112 9 24 21 48 26 54 4 5 8 19 8 30 0 12 17 49 38
83 20 33 51 78 67 98 17 20 61 72 99 116 37 43 116 122 175 174 58 53 110 103
114 110 4 8 16 14 26 14 10 0 28 11 41 25 13 14 31 24 40 23 10 -2 16 -17 18
-45z"/>
<path d="M8636 1761 c-12 -13 -16 -32 -14 -57 2 -26 11 -43 30 -57 22 -16 30
-18 42 -8 10 8 33 10 73 6 52 -6 60 -5 78 15 14 15 16 25 9 37 -5 8 -34 28
-64 44 -38 20 -63 27 -82 24 -14 -4 -29 -1 -33 4 -3 6 -10 11 -14 11 -4 0 -16
-9 -25 -19z"/>
<path d="M3652 1402 c-12 -2 -27 -12 -32 -22 -6 -11 -22 -31 -35 -44 -14 -14
-25 -34 -25 -44 0 -11 6 -25 14 -31 7 -6 22 -8 32 -4 10 4 25 12 34 19 8 7 30
25 48 39 19 16 32 36 32 49 0 14 -9 26 -22 32 -13 6 -33 8 -46 6z"/>
<path d="M1532 1278 c-7 -7 -12 -29 -12 -50 0 -35 2 -38 43 -49 23 -6 54 -17
69 -25 22 -11 36 -12 75 -3 26 7 74 19 106 28 41 11 57 20 57 33 0 9 -5 20
-11 23 -6 4 -38 7 -72 7 -34 0 -80 6 -102 14 -22 7 -50 14 -62 14 -12 0 -25 5
-28 10 -3 6 -16 10 -29 10 -12 0 -27 -5 -34 -12z"/>
</g>
</svg>
