<?xml version="1.0" standalone="no"?>
<!DOCTYPE svg PUBLIC "-//W3C//DTD SVG 20010904//EN"
 "http://www.w3.org/TR/2001/REC-SVG-20010904/DTD/svg10.dtd">
<svg version="1.0" xmlns="http://www.w3.org/2000/svg"
 width="1280.000000pt" height="1280.000000pt" viewBox="0 0 1280.000000 1280.000000"
 preserveAspectRatio="xMidYMid meet">
<metadata>
Created by potrace 1.15, written by Peter Selinger 2001-2017
</metadata>
<g transform="translate(0.000000,1280.000000) scale(0.100000,-0.100000)"
fill="#2196f3" stroke="none">
<path d="M6095 12794 c-27 -2 -115 -8 -195 -14 -1157 -85 -2296 -503 -3249
-1194 -563 -407 -1061 -909 -1466 -1477 -904 -1267 -1313 -2828 -1149 -4379
139 -1318 672 -2537 1548 -3545 131 -150 433 -452 594 -593 1444 -1267 3361
-1816 5262 -1507 1055 172 2059 614 2912 1282 370 290 751 669 1055 1048 1775
2220 1861 5379 208 7694 -889 1245 -2188 2133 -3660 2500 -327 82 -625 132
-990 167 -150 14 -756 27 -870 18z m225 -548 l0 -204 -72 -6 c-192 -14 -421
-27 -424 -24 -4 5 -46 400 -42 403 3 3 256 19 506 33 l32 2 0 -204z m510 183
c96 -6 178 -14 181 -17 5 -6 -29 -393 -36 -400 -2 -3 -236 11 -422 24 l-73 6
0 204 0 205 88 -6 c48 -3 166 -10 262 -16z m-1054 -219 c11 -107 18 -198 15
-201 -3 -3 -67 -14 -141 -23 -74 -9 -195 -28 -269 -42 -74 -14 -137 -21 -141
-17 -10 12 -84 382 -78 388 8 9 240 51 378 70 69 9 132 18 140 20 8 2 29 2 45
2 l30 -2 21 -195z m1519 170 c144 -21 335 -57 342 -64 5 -5 -72 -384 -80 -392
-2 -2 -65 7 -138 20 -74 14 -195 33 -269 42 -74 9 -138 20 -141 23 -4 3 1 87
12 186 10 99 18 188 18 199 1 21 22 20 256 -14z m-2160 -92 c16 -70 75 -355
75 -364 0 -6 -69 -28 -152 -49 -84 -20 -206 -53 -271 -73 -64 -19 -119 -33
-120 -31 -1 2 -29 85 -61 184 -32 99 -61 185 -63 191 -4 12 160 63 402 125
179 45 183 45 190 17z m2735 -22 c192 -49 367 -100 377 -110 7 -6 -104 -365
-117 -379 -4 -4 -58 7 -121 26 -63 19 -183 52 -266 73 -89 21 -153 42 -153 49
0 15 68 355 75 373 6 18 13 16 205 -32z m-3291 -307 c34 -102 61 -190 61 -195
0 -5 -33 -20 -73 -32 -39 -13 -157 -58 -261 -99 -103 -41 -190 -73 -191 -71
-3 3 -99 218 -146 325 l-18 42 47 22 c107 48 513 201 518 195 1 0 29 -85 63
-187z m4036 68 c77 -30 161 -65 186 -76 l47 -21 -80 -177 c-44 -98 -82 -181
-86 -185 -4 -4 -88 26 -187 65 -99 40 -215 83 -258 97 -42 14 -77 30 -77 35 0
8 100 332 115 372 5 14 115 -22 340 -110z m-1785 -18 c553 -40 1136 -175 1675
-390 189 -75 580 -268 750 -370 429 -256 768 -521 1121 -873 442 -442 766
-889 1043 -1436 547 -1079 729 -2287 526 -3494 -298 -1772 -1461 -3317 -3090
-4107 -950 -460 -1990 -643 -3043 -534 -1897 197 -3578 1357 -4436 3065 -908
1805 -782 3945 330 5631 207 315 432 588 718 875 456 455 901 776 1476 1062
727 363 1457 547 2320 586 112 5 445 -3 610 -15z m-2820 -274 c46 -102 81
-187 79 -189 -2 -2 -60 -31 -129 -64 -69 -32 -167 -82 -218 -110 l-92 -50 -48
81 c-158 268 -158 268 -136 284 16 12 451 233 459 233 1 0 40 -83 85 -185z
m5121 59 c102 -52 193 -100 203 -107 17 -13 12 -25 -79 -183 -54 -93 -99 -171
-101 -173 -5 -6 -443 213 -444 221 0 4 28 69 61 145 34 76 70 157 80 180 l18
42 38 -15 c21 -9 122 -58 224 -110z m-5753 -320 c35 -60 79 -137 98 -171 l35
-61 -108 -67 c-59 -37 -152 -99 -207 -137 -54 -38 -102 -66 -106 -61 -21 23
-230 314 -230 321 1 16 427 295 444 289 6 -2 39 -53 74 -113z m6248 40 c96
-61 296 -196 313 -210 3 -3 -204 -297 -229 -327 -4 -5 -52 23 -106 61 -55 38
-148 100 -207 137 -59 37 -107 71 -105 76 12 35 195 339 204 339 6 0 65 -34
130 -76z m-6672 -394 c64 -88 116 -162 116 -164 0 -3 -39 -35 -87 -73 -112
-86 -305 -247 -322 -267 -8 -9 -17 -16 -21 -16 -10 0 -270 290 -270 301 0 16
441 379 461 379 4 0 59 -72 123 -160z m7151 58 c140 -109 325 -266 325 -275 0
-4 -185 -216 -251 -287 -17 -19 -19 -17 -91 45 -91 81 -159 136 -270 222 -49
38 -88 71 -88 74 0 13 226 322 235 322 6 1 69 -45 140 -101z m-7633 -435 c68
-76 127 -144 131 -150 5 -8 -62 -83 -190 -211 l-198 -199 -144 131 c-80 73
-146 137 -148 142 -4 11 402 424 417 424 4 0 63 -62 132 -137z m8202 -69 c113
-114 206 -210 206 -213 0 -7 -264 -251 -287 -264 -9 -6 -72 51 -211 190 l-198
198 131 147 c71 81 135 148 141 148 7 0 104 -93 218 -206z m-8629 -370 c77
-69 144 -129 149 -134 4 -5 -22 -43 -58 -84 -81 -93 -267 -326 -273 -343 -3
-7 -10 -13 -15 -13 -11 0 -315 218 -324 231 -10 17 351 469 374 469 4 0 70
-57 147 -126z m8963 11 c51 -61 134 -163 184 -228 75 -99 88 -121 77 -131 -31
-28 -309 -226 -318 -226 -5 0 -11 6 -14 13 -6 17 -192 250 -273 343 l-67 77
89 81 c49 44 114 104 144 133 30 29 62 52 70 50 8 -1 56 -52 108 -112z m-9349
-487 c86 -61 160 -114 164 -118 5 -4 -23 -52 -60 -106 -38 -55 -100 -147 -137
-206 -38 -60 -70 -108 -72 -108 -4 0 -335 190 -343 196 -2 2 1 16 8 31 15 33
273 423 280 423 2 0 74 -50 160 -112z m9778 -85 c147 -223 158 -242 146 -253
-4 -5 -80 -50 -168 -100 -88 -51 -163 -94 -166 -96 -4 -2 -38 44 -75 104 -37
59 -99 151 -137 206 -37 54 -66 101 -63 104 20 19 313 231 321 231 6 1 70 -88
142 -196z m-10139 -489 c92 -53 170 -98 174 -100 3 -2 -22 -57 -57 -121 -35
-65 -85 -164 -111 -220 -26 -57 -50 -103 -54 -103 -10 0 -353 151 -362 159
-12 10 222 481 239 481 2 0 79 -43 171 -96z m10500 -132 c62 -123 112 -230
110 -239 -2 -12 -280 -146 -347 -168 -14 -4 -27 15 -65 97 -26 57 -76 157
-112 223 -36 66 -61 121 -57 123 4 1 80 45 168 97 88 51 167 93 175 92 9 -1
62 -96 128 -225z m-10560 -438 c2 -1 -30 -87 -71 -191 -41 -103 -85 -221 -98
-260 -13 -40 -29 -73 -35 -73 -6 0 -95 27 -197 60 l-186 60 45 128 c45 127
115 306 154 394 l20 46 183 -81 c100 -44 184 -82 185 -83z m10738 57 c53 -124
164 -425 164 -445 0 -10 -60 -34 -183 -75 -100 -34 -187 -61 -192 -61 -6 0
-21 33 -34 73 -13 39 -57 157 -98 262 -41 104 -71 191 -66 193 4 1 85 38 178
82 94 43 174 77 178 76 5 -1 29 -48 53 -105z m222 -623 c56 -191 119 -448 110
-448 -2 0 -87 -18 -188 -40 -101 -22 -190 -40 -196 -40 -6 0 -27 66 -48 150
-20 82 -53 202 -72 266 -19 64 -32 119 -29 123 5 5 359 128 376 130 3 1 25
-63 47 -141z m-11359 76 c97 -31 180 -60 184 -64 5 -4 -8 -61 -28 -126 -20
-66 -52 -186 -72 -269 -20 -82 -37 -151 -37 -151 -2 -4 -385 82 -391 88 -17
16 135 578 157 578 6 0 90 -25 187 -56z m11500 -656 c31 -161 74 -466 68 -482
-4 -10 -239 -41 -386 -50 -11 -1 -19 30 -32 133 -10 73 -30 197 -44 274 -14
77 -22 143 -18 147 4 3 89 23 188 44 99 21 182 40 184 42 14 13 21 -7 40 -108z
m-11651 62 c102 -22 187 -42 189 -44 2 -2 -8 -66 -22 -142 -14 -76 -33 -197
-42 -268 -9 -72 -19 -134 -22 -138 -6 -6 -392 30 -400 38 -8 8 50 405 79 542
7 28 16 52 22 52 5 0 93 -18 196 -40z m-78 -606 c96 -9 177 -18 179 -20 2 -1
-2 -62 -8 -135 -6 -72 -11 -162 -11 -199 0 -37 -3 -88 -6 -114 l-7 -46 -202 0
-203 0 4 88 c9 192 26 437 30 444 3 5 15 6 27 3 12 -2 101 -12 197 -21z
m11810 0 c0 -14 4 -89 9 -167 6 -78 12 -188 15 -244 l5 -103 -203 0 -203 0 -7
46 c-3 26 -6 77 -6 114 0 37 -5 127 -11 199 -6 73 -10 134 -8 136 4 3 334 42
382 44 23 1 27 -3 27 -25z m-11656 -720 c3 -26 6 -77 6 -114 0 -37 5 -127 11
-199 6 -73 10 -134 8 -136 -5 -4 -400 -47 -404 -43 -3 3 -21 282 -29 451 l-4
87 203 0 202 0 7 -46z m11681 -41 c-17 -296 -27 -439 -33 -444 -4 -3 -96 3
-206 14 l-199 21 7 65 c3 37 8 120 11 186 3 66 8 148 11 183 l6 62 204 0 204
0 -5 -87z m-11633 -573 c9 -73 29 -196 43 -273 14 -77 22 -143 18 -147 -12
-10 -382 -84 -389 -78 -15 15 -100 555 -91 581 2 8 70 19 193 33 104 12 193
21 199 19 5 -1 17 -61 27 -135z m11428 114 c91 -9 167 -18 169 -20 10 -10 -78
-577 -93 -591 -4 -5 -386 74 -393 81 -2 2 8 64 21 139 14 75 33 194 42 264 20
163 17 155 56 149 18 -3 107 -13 198 -22z m-11315 -716 c21 -84 53 -204 72
-267 19 -62 31 -117 26 -121 -10 -10 -349 -120 -368 -120 -9 0 -23 31 -39 83
-39 125 -129 487 -123 494 7 6 342 80 373 82 20 1 25 -13 59 -151z m11163 122
c75 -16 154 -32 175 -36 21 -3 41 -12 43 -18 8 -21 -132 -555 -150 -573 -6 -6
-366 106 -379 117 -5 4 7 59 26 121 19 63 51 183 72 267 32 131 40 152 57 152
11 0 81 -13 156 -30z m-118 -601 c91 -28 168 -54 172 -58 13 -12 -197 -561
-216 -561 -11 0 -349 149 -359 159 -4 4 17 65 47 137 29 71 72 183 95 249 23
66 44 126 46 132 3 9 11 10 27 3 13 -5 97 -32 188 -61z m-10901 -12 c13 -39
57 -157 98 -260 41 -104 73 -190 71 -191 -10 -7 -345 -155 -356 -158 -16 -4
-68 115 -163 372 -46 126 -64 186 -56 190 54 20 355 118 367 119 10 1 23 -23
39 -72z m253 -614 c37 -76 87 -175 112 -220 l45 -83 -92 -53 c-265 -155 -258
-152 -274 -131 -19 25 -234 456 -230 461 7 6 353 162 362 162 6 1 41 -61 77
-136z m10412 61 c94 -42 174 -79 179 -83 7 -7 -195 -424 -225 -464 -13 -18
-24 -13 -190 83 l-176 101 45 82 c24 45 74 144 111 220 36 75 70 137 75 137 5
0 86 -34 181 -76z m-10042 -709 c73 -110 133 -203 133 -207 0 -8 -312 -238
-323 -238 -4 0 -62 82 -128 183 -159 240 -169 256 -157 268 16 16 327 197 335
195 4 0 67 -91 140 -201z m9726 109 c92 -53 169 -99 172 -101 7 -7 -33 -73
-159 -263 -64 -96 -119 -179 -123 -184 -4 -6 -227 145 -335 228 -3 2 271 416
275 416 2 0 79 -43 170 -96z m-261 -482 c67 -48 122 -91 123 -95 0 -18 -341
-444 -371 -462 -8 -5 -82 57 -298 251 -11 10 -2 25 51 86 74 85 207 250 257
320 l34 48 41 -31 c23 -17 96 -69 163 -117z m-9272 95 c44 -62 178 -230 253
-315 l65 -74 -24 -23 c-77 -74 -272 -245 -279 -245 -19 0 -375 438 -375 461 0
11 305 238 320 238 6 0 23 -18 40 -42z m8938 -622 c31 -29 57 -56 57 -62 0
-14 -407 -418 -421 -418 -6 0 -71 65 -143 145 l-133 145 201 201 201 201 90
-80 c49 -44 116 -104 148 -132z m-8403 8 l197 -198 -131 -145 c-72 -80 -136
-145 -144 -145 -13 0 -422 403 -422 416 0 8 288 269 296 269 3 0 95 -89 204
-197z m296 -278 c71 -63 296 -243 342 -275 21 -15 20 -17 -96 -177 -64 -89
-121 -162 -125 -162 -23 -2 -462 356 -462 376 0 9 255 303 263 303 2 0 37 -29
78 -65z m7584 -84 c71 -80 130 -148 130 -152 0 -15 -427 -365 -459 -377 -10
-3 -241 310 -241 326 0 5 6 12 13 15 18 7 300 233 362 290 28 25 53 45 57 44
5 -1 66 -67 138 -146z m-7000 -355 c107 -71 199 -132 203 -136 6 -5 -163 -315
-190 -350 -7 -8 -75 33 -263 158 -102 68 -187 125 -188 127 -5 5 232 335 238
332 3 -1 93 -60 200 -131z m6524 -30 c64 -87 116 -161 116 -165 0 -6 -324
-223 -404 -271 -38 -23 -39 -23 -53 -4 -18 24 -182 309 -185 322 -3 10 390
280 404 278 4 -1 59 -72 122 -160z m-5871 -343 c75 -37 137 -70 137 -75 0 -10
-150 -351 -159 -361 -7 -7 -427 197 -465 226 -19 14 -17 18 43 123 35 60 81
139 102 176 l39 67 83 -45 c45 -25 144 -75 220 -111z m5303 -24 c92 -161 97
-172 80 -185 -24 -17 -332 -174 -408 -207 l-56 -25 -83 184 c-45 102 -80 186
-78 188 2 2 90 46 196 98 105 53 202 103 214 111 12 9 26 14 30 12 4 -3 51
-82 105 -176z m-4963 -127 c88 -35 202 -79 255 -97 54 -19 96 -37 96 -42 -2
-8 -110 -346 -119 -370 -3 -9 -35 -2 -117 27 -191 68 -448 174 -448 185 0 10
142 333 156 357 3 5 9 8 12 6 4 -2 78 -32 165 -66z m4470 -109 c43 -98 79
-182 79 -187 0 -16 -507 -216 -547 -216 -9 0 -34 63 -74 183 -34 100 -61 187
-61 192 0 6 39 23 88 39 48 16 161 59 252 96 91 37 170 68 175 69 6 0 45 -79
88 -176z m-3984 -62 c79 -25 280 -77 404 -105 16 -4 27 -13 27 -23 0 -28 -73
-368 -81 -377 -14 -16 -579 135 -579 154 0 18 121 380 127 380 3 0 49 -13 102
-29z m3415 -156 c33 -101 60 -188 60 -192 1 -4 -37 -20 -84 -36 -109 -35 -490
-131 -496 -124 -7 7 -87 388 -82 393 3 2 85 24 184 49 98 24 213 55 254 69 41
13 82 24 90 25 11 0 31 -50 74 -184z m-2716 -5 c95 -16 207 -32 248 -36 l76
-7 -6 -41 c-3 -23 -13 -113 -22 -201 -9 -88 -18 -162 -19 -164 -10 -10 -578
79 -592 93 -5 4 25 156 64 330 l15 68 32 -7 c17 -3 109 -19 204 -35z m2124
-140 c20 -96 37 -185 38 -197 0 -18 -8 -23 -52 -32 -221 -44 -527 -87 -538
-74 -13 15 -47 395 -36 398 6 2 83 13 171 25 88 12 201 30 250 40 50 10 99 17
110 17 17 -2 24 -25 57 -177z m-1462 70 c96 -5 176 -10 178 -10 1 0 2 -92 2
-205 l0 -204 -87 5 c-277 15 -439 27 -444 32 -4 4 3 96 14 206 l21 198 71 -6
c38 -3 149 -11 245 -16z m840 13 c0 -5 9 -91 20 -193 11 -102 20 -190 20 -196
0 -10 -46 -14 -462 -39 l-78 -4 0 203 0 204 73 6 c99 8 333 22 385 24 23 1 42
-1 42 -5z"/>
<path d="M5780 11805 c0 -10 10 -15 30 -15 24 0 30 -5 38 -32 5 -18 69 -274
141 -568 l133 -535 -94 -395 -94 -395 -57 -3 c-42 -2 -57 -7 -57 -17 0 -12 22
-15 120 -15 98 0 120 3 120 15 0 10 -15 15 -53 17 l-54 3 87 363 c48 199 89
365 92 367 3 3 45 -156 93 -352 49 -197 90 -364 93 -370 3 -9 -6 -13 -27 -13
-21 0 -31 -5 -31 -15 0 -13 18 -15 122 -13 82 2 123 7 125 15 3 7 -9 13 -28
15 l-33 3 -123 490 c-67 270 -123 500 -123 512 0 12 38 183 85 380 47 197 95
400 107 451 l22 92 88 0 88 0 0 -965 0 -965 -30 0 c-20 0 -30 -5 -30 -15 0
-13 34 -15 245 -15 211 0 245 2 245 15 0 10 -10 15 -30 15 l-30 0 0 965 0 965
30 0 c20 0 30 5 30 15 0 13 -48 15 -370 15 -322 0 -370 -2 -370 -15 0 -12 13
-15 56 -15 53 0 56 -1 51 -22 -6 -24 -185 -771 -197 -823 l-7 -30 -11 40 c-6
22 -56 219 -110 437 l-99 397 30 3 c17 2 32 9 35 16 3 9 -26 12 -122 12 -105
0 -126 -2 -126 -15z m1060 -980 l0 -965 -65 0 -65 0 0 965 0 965 65 0 65 0 0
-965z"/>
<path d="M7720 11563 c-24 -74 -132 -270 -195 -355 -36 -47 -114 -132 -174
-187 -132 -123 -155 -165 -156 -281 0 -62 5 -85 28 -132 31 -63 100 -131 153
-150 19 -7 34 -16 34 -21 0 -13 -211 -841 -216 -846 -2 -2 -63 8 -136 22 -203
41 -354 58 -568 64 -885 26 -1729 -302 -2363 -917 -261 -253 -438 -483 -606
-788 -349 -633 -476 -1390 -355 -2112 146 -872 631 -1640 1359 -2151 305 -215
684 -389 1050 -484 1101 -284 2276 21 3087 803 325 313 562 649 738 1046 58
131 143 373 171 484 11 46 15 51 33 46 19 -6 20 -5 4 7 -17 13 -17 21 7 139
113 580 74 1178 -112 1714 -175 503 -439 916 -825 1291 -364 354 -769 600
-1253 760 -87 29 -161 57 -163 63 -1 5 44 196 103 424 58 228 105 418 105 421
0 4 17 7 38 7 113 0 221 69 273 175 44 91 44 154 0 294 -18 57 -40 140 -48
185 -17 97 -19 330 -4 435 13 83 9 101 -9 44z m-1065 -1903 c196 -17 507 -69
528 -89 5 -5 -35 -179 -88 -387 -53 -208 -132 -518 -175 -689 -43 -170 -152
-598 -241 -950 -89 -352 -185 -731 -213 -842 l-51 -202 -48 -25 -48 -24 -107
27 c-189 49 -383 94 -386 90 -2 -2 -6 -16 -9 -30 l-6 -25 222 -54 c292 -70
287 -69 287 -86 0 -8 11 -25 24 -38 l25 -22 -64 -247 -63 -247 25 -6 c13 -4
28 -3 33 2 4 5 23 69 41 142 l33 132 35 2 36 1 -32 4 c-18 2 -33 6 -33 9 0 3
12 52 26 109 35 140 42 145 167 114 51 -12 96 -24 102 -27 5 -3 18 -7 30 -8
20 -2 129 -28 930 -224 220 -54 488 -119 596 -146 l197 -48 5 -56 c9 -78 38
-142 89 -193 99 -98 209 -116 379 -60 158 52 267 66 463 60 94 -2 179 -8 189
-12 21 -9 21 -10 -25 -165 -222 -754 -763 -1447 -1450 -1856 -1037 -617 -2315
-618 -3350 -3 -1016 603 -1632 1723 -1595 2899 16 501 126 939 347 1375 101
202 182 333 306 498 557 743 1414 1217 2339 1296 143 12 390 12 530 1z m875
-192 c168 -62 460 -204 605 -296 420 -266 772 -618 1038 -1039 91 -145 234
-437 296 -604 84 -228 149 -505 183 -779 19 -157 16 -573 -5 -741 -18 -140
-61 -366 -71 -377 -9 -8 -108 34 -204 86 -126 70 -240 161 -351 281 -122 130
-164 154 -278 154 -123 0 -233 -69 -280 -175 -9 -21 -22 -38 -29 -38 -7 0
-151 34 -320 75 -666 163 -899 220 -1144 280 l-255 62 -6 44 -6 44 -1 -43 c-2
-36 -5 -42 -19 -38 -10 3 -58 15 -106 27 -115 28 -117 32 -87 161 30 126 30
126 72 100 44 -27 71 -57 102 -112 14 -25 26 -40 26 -34 0 33 -75 122 -140
165 l-24 16 16 64 c21 87 332 1318 418 1654 158 620 290 1143 290 1148 0 9
140 -33 280 -85z"/>
<path d="M6378 6703 c12 -2 32 -2 45 0 12 2 2 4 -23 4 -25 0 -35 -2 -22 -4z"/>
<path d="M6234 6658 c-47 -32 -114 -109 -114 -131 0 -6 13 9 28 34 34 52 52
69 112 103 25 14 40 26 34 26 -7 0 -33 -15 -60 -32z"/>
<path d="M6093 6395 c0 -22 2 -30 4 -17 2 12 2 30 0 40 -3 9 -5 -1 -4 -23z"/>
<path d="M6120 6274 c0 -15 52 -85 76 -104 10 -8 7 -1 -7 15 -15 17 -36 46
-48 65 -11 19 -21 30 -21 24z"/>
<path d="M6662 6256 c-6 -13 -25 -41 -43 -62 -28 -33 -29 -35 -6 -14 31 27 72
88 65 96 -3 2 -10 -7 -16 -20z"/>
<path d="M6257 6129 c7 -7 15 -10 18 -7 3 3 -2 9 -12 12 -14 6 -15 5 -6 -5z"/>
<path d="M6530 6130 c-9 -6 -10 -10 -3 -10 6 0 15 5 18 10 8 12 4 12 -15 0z"/>
<path d="M3915 11224 c-110 -64 -204 -119 -209 -124 -4 -5 -5 -13 -2 -19 5 -7
21 -2 46 14 22 14 43 25 48 25 6 0 118 -363 247 -805 14 -50 13 -48 -270 240
-157 160 -298 305 -313 324 l-27 34 23 15 c24 16 29 32 9 32 -10 0 -192 -102
-206 -115 -1 -2 0 -8 4 -14 4 -8 15 -6 33 3 l28 14 404 -419 405 -420 118
-392 c90 -301 115 -394 105 -400 -7 -4 -30 -18 -50 -30 -24 -14 -35 -26 -30
-34 5 -9 38 5 110 48 93 54 121 79 91 79 -6 0 -29 -10 -50 -22 -21 -12 -40
-20 -42 -17 -2 2 -50 162 -107 354 -56 193 -105 357 -108 365 -5 13 77 -69
448 -453 l85 -88 -24 -18 c-13 -10 -21 -23 -17 -29 6 -10 53 15 205 107 8 5
11 14 6 20 -5 9 -13 8 -32 -5 -25 -16 -26 -15 -53 12 -15 16 -177 183 -360
372 l-333 343 -124 412 c-68 227 -130 433 -137 458 l-14 46 74 43 c43 25 79
39 84 34 4 -5 222 -380 484 -834 l476 -825 -25 -15 c-27 -16 -35 -46 -10 -36
8 3 58 31 111 62 63 37 92 60 86 66 -6 6 -18 6 -32 -2 -12 -7 -26 -8 -30 -3
-5 4 -216 368 -470 808 -254 440 -468 811 -477 824 -16 25 -16 25 27 51 10 6
12 12 5 19 -7 7 -75 -27 -210 -105z"/>
<path d="M8984 11149 c-4 -7 -3 -14 3 -16 6 -2 18 -9 27 -16 16 -11 -29 -93
-452 -827 -259 -448 -476 -824 -484 -834 -13 -18 -15 -18 -40 -2 -22 14 -26
15 -31 2 -8 -19 199 -141 210 -124 3 7 -3 18 -15 26 -12 8 -22 19 -22 23 0 5
214 381 476 835 366 633 481 824 493 821 9 -3 24 -8 34 -12 11 -5 17 -3 17 6
0 8 -44 39 -97 69 -118 67 -110 64 -119 49z"/>
<path d="M1836 9334 c-62 -105 -67 -119 -48 -119 7 0 23 18 35 39 12 21 26 39
30 38 8 -1 647 -602 647 -608 0 -1 -15 2 -32 7 -18 5 -208 59 -423 120 -214
61 -394 115 -398 119 -5 4 -3 17 4 29 10 15 10 24 2 32 -8 8 -27 -19 -72 -97
-46 -80 -59 -109 -49 -115 8 -5 17 0 26 17 10 19 19 24 35 20 12 -3 265 -75
561 -160 398 -115 546 -161 565 -178 47 -43 571 -540 571 -543 0 -1 -12 -24
-26 -49 -18 -32 -23 -51 -17 -57 7 -7 31 26 73 96 43 74 59 110 52 117 -8 8
-19 -3 -39 -36 -15 -25 -31 -45 -35 -44 -12 5 -548 518 -541 518 12 0 717
-202 723 -207 2 -2 -2 -13 -9 -25 -9 -14 -10 -23 -2 -31 6 -6 12 -9 14 -6 12
13 117 202 117 210 0 18 -29 9 -35 -11 -3 -11 -13 -20 -20 -20 -8 0 -235 63
-505 139 l-491 139 -187 179 c-103 98 -258 245 -344 327 l-158 148 25 42 c14
24 25 48 25 54 0 30 -23 4 -74 -84z"/>
<path d="M10957 9304 c-3 -3 1 -17 10 -30 9 -14 13 -27 10 -31 -4 -3 -379
-221 -834 -484 l-828 -478 -15 25 c-14 22 -40 33 -40 16 0 -16 238 -416 250
-420 13 -5 11 11 -4 48 -5 12 188 127 826 496 l833 481 15 -24 c14 -22 40 -32
40 -15 0 13 -237 416 -247 419 -5 2 -12 1 -16 -3z m120 -218 l31 -54 -835
-483 c-656 -378 -837 -479 -845 -468 -29 44 -49 92 -40 101 9 9 1643 956 1652
957 3 0 19 -24 37 -53z"/>
<path d="M980 6775 c0 -97 3 -126 13 -123 7 3 13 26 15 56 2 29 5 52 7 52 2 0
91 -21 197 -46 482 -115 595 -142 626 -149 18 -4 31 -9 29 -12 -3 -3 -197 -53
-431 -113 l-425 -108 -3 31 c-5 52 -25 43 -30 -14 -9 -94 4 -450 16 -446 6 2
12 18 14 35 l3 32 959 0 959 0 3 -32 c2 -17 9 -33 16 -36 9 -3 12 26 12 123 0
97 -3 126 -12 123 -7 -3 -14 -17 -16 -31 l-3 -27 -960 0 -959 0 0 60 0 59 38
10 c20 6 274 69 564 142 l528 131 397 -94 398 -95 3 -56 c2 -42 7 -57 17 -57
12 0 15 22 15 120 0 100 -2 120 -15 120 -11 0 -15 -12 -15 -50 0 -43 -3 -50
-19 -50 -11 0 -129 27 -263 59 -133 32 -286 69 -338 81 -52 13 -101 26 -109
30 -10 5 694 190 724 190 3 0 5 -13 5 -30 0 -20 5 -30 15 -30 13 0 15 18 13
122 -2 82 -7 123 -15 125 -7 3 -13 -9 -15 -28 l-3 -32 -490 -123 c-269 -68
-500 -124 -513 -124 -12 0 -172 36 -355 79 -182 43 -385 91 -449 106 l-117 28
-3 55 c-2 33 -8 57 -15 60 -10 3 -13 -26 -13 -123z"/>
<path d="M9833 6403 c1 -282 5 -367 15 -371 8 -2 12 7 12 27 l0 31 965 0 965
0 0 -30 c0 -20 5 -30 15 -30 13 0 15 48 15 370 0 322 -2 370 -15 370 -10 0
-15 -10 -15 -30 l0 -30 -965 0 -965 0 0 30 c0 20 -5 30 -15 30 -13 0 -14 -48
-12 -367z m1957 122 l0 -65 -965 0 -965 0 0 58 c0 32 3 62 7 65 3 4 438 7 965
7 l958 0 0 -65z m0 -250 l0 -65 -962 2 -963 3 -3 63 -3 62 966 0 965 0 0 -65z"/>
<path d="M9582 5043 c-270 -465 -452 -783 -452 -788 0 -14 31 -3 40 15 6 11
14 20 19 20 7 0 1650 -946 1660 -956 3 -3 0 -14 -7 -24 -7 -11 -12 -24 -12
-30 0 -42 55 44 267 413 175 303 240 424 232 432 -8 7 -13 7 -16 -1 -2 -6 -9
-19 -16 -29 -12 -15 -88 26 -833 456 -450 259 -825 478 -832 484 -11 10 -11
17 -2 35 8 15 8 26 2 32 -7 7 -23 -13 -50 -59z m803 -583 c451 -260 824 -476
829 -481 9 -8 -42 -109 -55 -109 -7 0 -1577 903 -1646 946 l-22 14 32 54 c18
30 34 53 37 51 3 -1 374 -215 825 -475z m-138 -206 c445 -256 818 -472 831
-481 l23 -14 -30 -52 c-17 -29 -35 -51 -40 -50 -11 3 -1642 943 -1654 953 -5
5 -2 20 7 34 9 14 23 37 31 51 9 14 18 25 20 25 3 0 368 -210 812 -466z m-89
-233 l820 -474 -29 -51 c-16 -28 -33 -51 -39 -51 -18 0 -1659 950 -1660 961 0
5 14 31 30 57 21 34 34 46 43 40 8 -4 383 -221 835 -482z"/>
<path d="M3060 5030 c-125 -38 -198 -60 -775 -230 -170 -50 -461 -136 -645
-191 -184 -55 -342 -102 -351 -105 -13 -3 -21 8 -35 46 -10 27 -24 50 -31 50
-7 0 -13 -4 -13 -9 0 -21 79 -216 89 -219 15 -5 14 22 -4 65 -8 20 -14 38 -12
40 2 1 118 37 258 79 140 41 403 120 584 174 182 54 454 135 605 180 151 45
288 85 304 91 16 5 30 8 32 6 3 -3 -1326 -1291 -1337 -1295 -4 -2 -10 6 -14
17 -6 21 -35 30 -35 12 0 -5 15 -35 33 -68 56 -98 449 -778 453 -782 1 -1 7 0
13 4 8 4 6 15 -4 35 l-15 28 698 403 c383 221 758 437 832 481 l135 78 20 -25
c23 -27 35 -32 35 -12 0 6 -81 152 -179 322 -159 275 -202 339 -193 289 1 -8
3 -21 5 -30 1 -11 -241 -155 -828 -494 -456 -264 -832 -476 -836 -472 -3 4
-18 28 -32 53 l-26 46 167 164 c92 91 418 407 725 703 307 296 556 541 555
545 -2 3 -10 18 -17 34 -8 15 -19 27 -25 26 -6 0 -67 -18 -136 -39z m555 -734
c16 -30 27 -57 25 -59 -8 -8 -1636 -946 -1651 -952 -15 -6 -73 79 -66 98 2 8
1640 962 1657 966 3 1 19 -23 35 -53z m125 -217 c17 -28 30 -52 28 -54 -2 -1
-367 -213 -813 -470 -445 -257 -820 -473 -832 -481 -21 -13 -24 -12 -53 38
-16 29 -30 55 -30 58 0 3 69 44 153 92 83 48 456 263 827 477 371 215 678 391
682 391 3 0 20 -23 38 -51z"/>
<path d="M3863 3023 c-296 -313 -608 -641 -692 -731 l-154 -162 -43 35 c-28
23 -45 31 -50 24 -3 -6 2 -19 12 -28 11 -10 49 -46 87 -81 48 -45 71 -60 78
-53 8 8 -1 22 -30 49 l-40 39 642 677 c353 372 642 676 643 675 3 -2 -507
-1790 -511 -1795 -2 -2 -12 2 -24 10 -14 9 -24 9 -31 2 -7 -7 85 -65 302 -190
171 -98 318 -180 325 -182 24 -6 13 25 -13 37 l-25 11 19 33 c11 17 228 392
482 832 254 440 463 801 465 804 3 2 16 -4 29 -13 17 -11 27 -12 32 -5 3 6 2
14 -2 19 -13 11 -396 231 -407 233 -22 4 -16 -23 7 -35 l25 -13 -480 -830
c-300 -519 -485 -830 -494 -829 -8 1 -34 13 -58 27 l-44 26 122 428 c68 235
191 664 274 953 84 289 153 533 154 543 1 10 -11 26 -29 37 l-32 20 -539 -567z
m1286 101 c25 -15 48 -28 50 -30 1 -1 -214 -379 -479 -838 l-482 -835 -47 26
c-25 14 -50 29 -54 33 -6 5 844 1496 939 1648 18 28 18 28 73 -4z"/>
<path d="M8082 3409 c-21 -14 -31 -27 -28 -38 2 -9 16 -54 30 -101 13 -47 89
-301 167 -565 119 -405 346 -1167 365 -1228 4 -14 -6 -22 -46 -39 -28 -11 -49
-25 -48 -30 5 -15 13 -13 128 32 75 29 107 47 103 56 -4 10 -15 9 -55 -7 -28
-11 -53 -18 -55 -15 -6 6 -44 131 -378 1256 -53 179 -110 367 -126 419 -16 52
-27 96 -25 98 2 2 268 -270 591 -604 324 -334 615 -636 648 -670 l60 -62 -26
-12 c-15 -7 -23 -17 -20 -26 4 -10 23 -4 82 28 110 60 145 86 131 94 -7 4 -23
1 -36 -6 -30 -15 53 -97 -744 731 -320 333 -606 628 -634 657 l-51 52 -33 -20z"/>
<path d="M6196 2953 c-5 -16 -60 -246 -261 -1083 -36 -151 -93 -390 -126 -530
-33 -140 -64 -272 -70 -292 l-9 -37 -53 2 c-100 4 -60 -18 62 -34 93 -12 121
-12 121 -3 0 15 -23 24 -64 24 -18 0 -35 2 -38 5 -3 3 4 47 16 98 13 51 110
458 216 906 129 537 197 807 202 795 7 -18 448 -1778 448 -1789 0 -3 -11 -5
-25 -5 -16 0 -25 -6 -25 -15 0 -13 34 -15 245 -15 211 0 245 2 245 15 0 10
-11 15 -35 15 l-35 0 2 963 3 962 33 3 c20 2 32 8 29 15 -5 17 -239 17 -244 0
-3 -9 6 -13 26 -13 l31 0 0 -965 0 -966 -62 3 -63 3 -244 978 -243 977 -38 0
c-28 0 -40 -5 -44 -17z"/>
</g>
</svg>
