<?xml version="1.0" standalone="no"?>
<!DOCTYPE svg PUBLIC "-//W3C//DTD SVG 20010904//EN"
 "http://www.w3.org/TR/2001/REC-SVG-20010904/DTD/svg10.dtd">
<svg version="1.0" xmlns="http://www.w3.org/2000/svg"
 width="1280.000000pt" height="1280.000000pt" viewBox="0 0 1280.000000 1280.000000"
 preserveAspectRatio="xMidYMid meet">
<metadata>
Created by potrace 1.15, written by Peter Selinger 2001-2017
</metadata>
<g transform="translate(0.000000,1280.000000) scale(0.100000,-0.100000)"
fill="#2196f3" stroke="none">
<path d="M6190 12310 c-259 -26 -555 -133 -780 -280 -371 -244 -614 -588 -702
-992 -32 -150 -32 -428 1 -578 99 -458 370 -822 791 -1061 145 -82 376 -169
530 -199 54 -11 272 -40 297 -40 9 0 13 -16 13 -49 l0 -49 -67 -6 c-38 -3
-111 -8 -163 -11 -487 -31 -1034 -166 -1517 -375 -949 -412 -1744 -1155 -2208
-2065 -285 -558 -434 -1120 -464 -1747 -48 -987 247 -1950 842 -2758 127 -172
258 -323 431 -495 332 -332 643 -565 1055 -790 136 -74 422 -208 504 -234 22
-8 34 -17 31 -23 -4 -7 -2 -8 4 -4 16 10 63 -4 55 -17 -3 -6 -1 -7 6 -3 6 4
18 3 25 -4 8 -6 22 -13 32 -15 11 -2 71 -20 136 -40 232 -71 706 -168 765
-157 14 3 23 1 20 -4 -3 -5 27 -9 66 -10 40 -1 208 -5 374 -9 310 -8 486 -1
736 31 162 21 288 42 295 49 4 3 -405 5 -908 5 -829 -2 -922 0 -990 15 -701
159 -1363 491 -1925 964 -121 102 -357 334 -463 454 -519 591 -869 1305 -1011
2062 -85 453 -94 953 -26 1410 168 1127 782 2143 1720 2847 739 553 1642 871
2577 907 718 27 1408 -98 2038 -371 1309 -566 2268 -1693 2584 -3038 167 -710
144 -1479 -65 -2185 -236 -798 -735 -1558 -1362 -2074 -81 -67 -107 -96 -35
-39 171 134 435 383 523 493 26 33 52 59 56 57 5 -1 8 4 7 10 -2 7 3 12 10 10
8 -1 10 2 7 8 -8 13 24 52 35 45 4 -3 14 3 21 12 10 12 10 14 2 9 -7 -4 -13
-3 -13 2 0 12 35 43 42 37 3 -3 11 3 19 12 13 16 12 17 -3 4 -32 -25 -19 0 46
88 651 878 940 1995 800 3086 -154 1201 -810 2277 -1831 3006 -337 240 -791
471 -1185 602 -461 154 -999 246 -1440 247 l-88 0 0 48 0 48 121 13 c208 21
313 46 494 116 453 174 800 510 969 938 94 238 120 560 65 814 -177 819 -991
1364 -1899 1273z m483 -281 c382 -77 693 -281 894 -586 396 -602 147 -1409
-537 -1735 -431 -205 -966 -182 -1373 60 -588 349 -787 1077 -448 1640 188
313 512 536 896 617 154 32 420 35 568 4z"/>
<path d="M5768 9243 c6 -2 18 -2 25 0 6 3 1 5 -13 5 -14 0 -19 -2 -12 -5z"/>
<path d="M5708 9233 c7 -3 16 -2 19 1 4 3 -2 6 -13 5 -11 0 -14 -3 -6 -6z"/>
<path d="M7038 9233 c7 -3 16 -2 19 1 4 3 -2 6 -13 5 -11 0 -14 -3 -6 -6z"/>
<path d="M5618 9223 c7 -3 16 -2 19 1 4 3 -2 6 -13 5 -11 0 -14 -3 -6 -6z"/>
<path d="M7128 9223 c7 -3 16 -2 19 1 4 3 -2 6 -13 5 -11 0 -14 -3 -6 -6z"/>
<path d="M5498 9203 c7 -3 16 -2 19 1 4 3 -2 6 -13 5 -11 0 -14 -3 -6 -6z"/>
<path d="M6447 8763 c18 -2 50 -2 70 0 21 2 7 4 -32 4 -38 0 -55 -2 -38 -4z"/>
<path d="M6705 8750 c311 -30 533 -67 779 -130 755 -194 1419 -571 1956 -1109
321 -322 550 -638 746 -1031 211 -423 337 -858 386 -1330 16 -156 16 -567 0
-720 -51 -486 -177 -916 -393 -1345 -84 -168 -197 -361 -205 -352 -3 3 21 51
52 108 270 493 425 1070 450 1676 4 89 11 160 16 157 4 -3 8 11 8 31 0 20 -4
34 -9 30 -10 -6 -17 46 -26 200 -22 377 -130 818 -297 1209 -70 165 -98 221
-190 384 -49 87 -67 127 -60 134 8 8 6 20 -4 40 -12 23 -18 27 -29 18 -10 -8
-27 10 -81 87 -348 500 -790 908 -1327 1222 -91 54 -106 66 -95 78 10 12 8 18
-12 34 -27 20 -40 24 -40 12 0 -5 -4 -14 -9 -21 -6 -11 -30 -3 -108 36 -282
142 -675 275 -1003 341 -242 48 -456 72 -782 87 -127 6 -128 6 -128 30 0 20
-5 24 -30 24 -27 0 -30 -3 -30 -30 l0 -30 -87 0 c-286 -1 -774 -87 -1128 -200
-173 -55 -403 -150 -593 -245 -177 -89 -183 -91 -194 -71 -6 12 -12 22 -13 24
-4 5 -55 -21 -55 -27 0 -4 7 -16 15 -28 14 -20 11 -22 -48 -58 -522 -318 -970
-752 -1299 -1257 -50 -77 -88 -126 -95 -123 -42 16 -48 17 -33 6 13 -9 13 -14
2 -32 -10 -15 -11 -24 -3 -29 8 -4 -14 -56 -63 -151 -405 -782 -525 -1639
-355 -2519 38 -193 66 -299 124 -470 79 -231 188 -471 315 -698 22 -39 37 -72
33 -72 -4 0 -14 -4 -21 -9 -12 -7 -11 -14 2 -40 14 -27 20 -30 37 -21 10 6 23
9 27 6 4 -2 34 -48 67 -100 86 -137 204 -298 215 -291 5 3 12 0 16 -6 4 -8 3
-9 -4 -5 -91 56 342 -410 533 -573 1016 -873 2368 -1224 3698 -960 670 132
1318 435 1856 867 754 606 1275 1470 1456 2412 74 385 85 885 29 1290 -152
1100 -764 2094 -1697 2757 -590 420 -1257 674 -2007 767 -69 8 -179 18 -245
20 l-120 5 100 -9z m-465 -297 c0 -60 3 -125 6 -145 6 -34 10 -38 36 -38 l30
0 -4 146 -4 147 206 -6 c350 -11 644 -56 982 -151 259 -73 520 -172 720 -272
l88 -44 -38 -63 c-56 -90 -116 -206 -94 -178 16 19 22 22 39 12 25 -13 23 -15
93 107 29 50 54 92 56 92 2 0 47 -25 101 -56 517 -297 963 -706 1307 -1198 69
-99 74 -110 59 -121 -10 -7 -55 -33 -100 -59 -72 -42 -82 -50 -73 -66 6 -11
15 -22 20 -25 6 -4 54 19 107 49 53 31 97 55 98 54 22 -29 105 -180 170 -311
165 -331 273 -654 339 -1019 30 -160 56 -397 56 -501 l0 -73 -237 -3 c-131 -1
-240 -5 -242 -7 -2 -2 53 -4 122 -4 120 0 127 -1 127 -20 0 -15 -7 -20 -26
-20 -14 0 -23 4 -19 10 4 7 -99 9 -302 8 l-308 -2 230 -7 c127 -4 326 -10 444
-14 l214 -6 -2 -127 c-8 -539 -144 -1087 -393 -1587 -39 -77 -79 -155 -90
-172 l-20 -33 -112 60 -113 60 -11 -25 c-7 -14 -12 -28 -12 -30 0 -2 47 -29
105 -60 58 -31 105 -61 105 -67 0 -12 -111 -184 -183 -283 -234 -320 -501
-577 -850 -817 -172 -118 -406 -258 -431 -258 -2 0 -28 38 -57 85 -29 47 -56
88 -60 91 -5 3 -20 -1 -33 -8 l-25 -13 59 -95 59 -95 -67 -34 c-109 -55 -328
-145 -488 -201 -405 -140 -818 -218 -1254 -237 l-150 -6 0 114 0 114 -31 -1
-31 -1 1 -111 2 -112 -83 0 c-175 0 -497 33 -698 71 -130 25 -469 109 -570
142 -156 50 -418 155 -537 215 l-62 32 65 111 c82 141 98 173 84 164 -14 -9
-42 14 -33 28 3 5 1 7 -4 4 -6 -4 -46 -67 -89 -142 -44 -74 -81 -135 -84 -135
-3 0 -61 32 -130 71 -222 126 -439 276 -640 443 -111 91 -406 386 -501 501
-114 137 -221 283 -215 293 3 5 87 56 186 112 l180 102 -15 28 -15 29 -188
-107 c-104 -59 -193 -108 -199 -109 -5 -1 -10 3 -10 10 0 7 -24 50 -55 97
-248 387 -426 934 -483 1485 -8 77 -15 175 -15 218 l0 77 225 0 225 0 0 36 0
35 -227 -7 -226 -7 6 189 c15 419 97 810 262 1234 38 100 203 443 227 472 12
15 29 8 198 -84 102 -55 190 -102 196 -104 10 -5 39 44 31 52 -2 2 -87 49
-188 103 -101 55 -185 103 -186 108 -4 10 82 146 170 271 186 262 487 580 747
788 194 155 495 354 509 338 4 -5 47 -73 95 -152 49 -78 91 -144 95 -146 4 -3
17 3 30 13 l23 17 -97 154 c-71 114 -92 156 -83 162 42 28 284 145 404 196
446 191 1041 325 1467 331 l87 1 0 -107z m3700 -5781 c0 -5 -7 -17 -15 -28
-14 -18 -14 -17 -4 9 12 27 19 34 19 19z m-6779 -489 c13 -16 12 -17 -3 -4
-17 13 -22 21 -14 21 2 0 10 -8 17 -17z m6399 -47 c0 -2 -8 -10 -17 -17 -16
-13 -17 -12 -4 4 13 16 21 21 21 13z m-6339 -23 c13 -16 12 -17 -3 -4 -17 13
-22 21 -14 21 2 0 10 -8 17 -17z m5 -75 l29 -33 -32 29 c-31 28 -38 36 -30 36
2 0 16 -15 33 -32z m6264 18 c0 -2 -8 -10 -17 -17 -16 -13 -17 -12 -4 4 13 16
21 21 21 13z m-6154 -68 l29 -33 -32 29 c-31 28 -38 36 -30 36 2 0 16 -15 33
-32z m104 -103 c35 -36 62 -65 59 -65 -2 0 -34 29 -69 65 -35 36 -62 65 -59
65 2 0 34 -29 69 -65z m61 -122 c13 -16 12 -17 -3 -4 -17 13 -22 21 -14 21 2
0 10 -8 17 -17z m80 -10 c13 -16 12 -17 -3 -4 -17 13 -22 21 -14 21 2 0 10 -8
17 -17z m5619 14 c0 -2 -10 -12 -22 -23 l-23 -19 19 23 c18 21 26 27 26 19z
m-5609 -84 c13 -16 12 -17 -3 -4 -17 13 -22 21 -14 21 2 0 10 -8 17 -17z
m5529 13 c0 -2 -8 -10 -17 -17 -16 -13 -17 -12 -4 4 13 16 21 21 21 13z
m-3303 -942 c-3 -3 -12 -4 -19 -1 -8 3 -5 6 6 6 11 1 17 -2 13 -5z m206 -21
c-7 -2 -21 -2 -30 0 -10 3 -4 5 12 5 17 0 24 -2 18 -5z m670 0 c-7 -2 -19 -2
-25 0 -7 3 -2 5 12 5 14 0 19 -2 13 -5z m-350 -10 c-7 -2 -21 -2 -30 0 -10 3
-4 5 12 5 17 0 24 -2 18 -5z m684 1 c-3 -3 -12 -4 -19 -1 -8 3 -5 6 6 6 11 1
17 -2 13 -5z m-1190 -20 c-3 -3 -12 -4 -19 -1 -8 3 -5 6 6 6 11 1 17 -2 13 -5z
m1040 0 c-3 -3 -12 -4 -19 -1 -8 3 -5 6 6 6 11 1 17 -2 13 -5z m-824 -21 c-7
-2 -21 -2 -30 0 -10 3 -4 5 12 5 17 0 24 -2 18 -5z m620 0 c-7 -2 -19 -2 -25
0 -7 3 -2 5 12 5 14 0 19 -2 13 -5z"/>
<path d="M6253 8195 c0 -38 2 -53 4 -32 2 20 2 52 0 70 -2 17 -4 1 -4 -38z"/>
<path d="M6327 8033 c4 -183 2 -213 -10 -213 -23 0 -75 -65 -86 -107 -27 -95
1 -198 60 -228 92 -48 200 40 175 141 -17 65 -92 95 -145 57 l-24 -16 6 34
c11 53 41 72 105 66 l52 -6 -2 242 -3 242 -2 -208 -3 -208 -53 3 -52 3 -7 175
c-11 255 -17 268 -11 23z m57 -409 c17 -45 0 -94 -33 -94 -40 0 -68 69 -39 98
17 17 65 15 72 -4z"/>
<path d="M6567 8031 c-7 -201 -8 -210 -33 -256 -22 -38 -27 -61 -28 -119 -1
-91 17 -142 58 -167 47 -29 99 -25 139 11 71 62 77 231 10 302 l-25 27 14 198
c14 183 15 214 4 202 -2 -2 -10 -93 -17 -201 l-13 -198 -37 0 c-21 0 -45 -3
-53 -6 -14 -6 -16 2 -11 62 11 155 15 354 7 354 -5 0 -12 -94 -15 -209z m94
-278 c20 -23 19 -184 0 -207 -24 -29 -54 -16 -69 29 -15 44 -11 139 7 174 14
25 43 27 62 4z"/>
<path d="M6190 8208 c0 -43 30 -442 35 -453 2 -5 4 13 4 40 1 69 -27 426 -33
433 -4 3 -6 -6 -6 -20z"/>
<path d="M6060 8210 c0 -30 51 -465 55 -469 9 -8 4 53 -19 262 -13 114 -26
210 -30 214 -3 3 -6 1 -6 -7z"/>
<path d="M6830 8203 c0 -10 -11 -119 -25 -242 -14 -123 -23 -226 -21 -229 8
-8 14 36 36 248 11 113 22 213 24 223 2 9 0 17 -5 17 -5 0 -9 -8 -9 -17z"/>
<path d="M5930 8204 c1 -35 70 -468 76 -473 8 -7 5 16 -34 281 -15 103 -31
190 -35 194 -4 4 -7 3 -7 -2z"/>
<path d="M6961 8203 c-1 -6 -17 -116 -36 -244 -30 -202 -35 -256 -22 -238 8
10 69 469 64 481 -4 8 -6 9 -6 1z"/>
<path d="M5804 8170 c3 -14 22 -110 41 -215 40 -221 44 -239 50 -233 8 7 -76
452 -86 463 -7 7 -9 2 -5 -15z"/>
<path d="M7081 8138 c-39 -196 -81 -432 -76 -436 2 -3 7 1 9 9 11 30 87 471
83 476 -3 2 -10 -19 -16 -49z"/>
<path d="M5680 8151 c0 -12 88 -416 96 -440 2 -8 7 -12 9 -9 3 3 -17 105 -45
228 -45 202 -60 256 -60 221z"/>
<path d="M7167 7940 c-27 -120 -51 -229 -54 -242 -4 -15 -2 -20 4 -13 5 6 31
109 58 230 26 121 50 226 52 233 3 6 1 12 -3 12 -5 0 -31 -99 -57 -220z"/>
<path d="M5550 8136 c0 -7 103 -406 116 -449 3 -10 8 -16 11 -14 6 6 -108 449
-119 462 -4 5 -8 5 -8 1z"/>
<path d="M7281 7901 c-34 -134 -60 -245 -57 -248 2 -3 9 12 15 33 91 347 113
434 109 446 -2 6 -32 -98 -67 -231z"/>
<path d="M7466 8099 c-28 -81 -137 -462 -134 -471 2 -6 37 98 76 232 40 133
70 245 68 248 -3 3 -8 -1 -10 -9z"/>
<path d="M5430 8092 c0 -10 104 -364 126 -431 2 -8 7 -11 10 -8 5 5 -121 435
-131 445 -3 3 -5 0 -5 -6z"/>
<path d="M5300 8069 c0 -8 151 -443 155 -448 3 -2 5 0 5 6 0 18 -141 428 -150
437 -6 6 -10 8 -10 5z"/>
<path d="M7534 7898 c-31 -95 -68 -202 -80 -237 -13 -36 -21 -67 -19 -70 3 -2
7 -2 9 0 9 10 157 471 153 475 -3 3 -31 -73 -63 -168z"/>
<path d="M5180 8027 c0 -17 162 -433 172 -442 13 -12 20 -31 -79 230 -68 177
-93 235 -93 212z"/>
<path d="M7626 7799 c-49 -121 -86 -222 -84 -224 2 -3 44 94 92 216 49 121 86
222 84 224 -2 3 -44 -94 -92 -216z"/>
<path d="M5060 7985 c0 -17 184 -448 187 -438 2 5 -34 100 -81 211 -85 201
-105 246 -106 227z"/>
<path d="M7736 7749 c-54 -127 -96 -233 -93 -235 3 -3 46 93 97 213 51 120 97
226 102 236 5 10 5 17 0 17 -5 0 -53 -104 -106 -231z"/>
<path d="M4940 7937 c0 -6 58 -134 160 -351 22 -48 43 -86 46 -84 3 3 -39 99
-92 214 -88 190 -114 240 -114 221z"/>
<path d="M7846 7705 c-60 -130 -107 -238 -104 -240 7 -7 220 454 216 465 -2 5
-52 -96 -112 -225z"/>
<path d="M4927 7670 c59 -115 112 -210 116 -210 5 0 -40 94 -100 210 -59 115
-112 210 -116 210 -4 0 41 -94 100 -210z"/>
<path d="M7955 7655 c-64 -124 -115 -228 -112 -231 3 -3 57 97 121 222 65 124
115 228 113 231 -3 2 -58 -97 -122 -222z"/>
<path d="M4710 7825 c0 -7 216 -402 226 -414 2 -2 6 -2 8 0 4 4 -215 403 -228
416 -3 4 -6 3 -6 -2z"/>
<path d="M8159 7782 c-178 -327 -205 -372 -221 -372 -11 0 -21 -13 -27 -37 -6
-21 -17 -60 -26 -88 -8 -27 -15 -56 -15 -62 0 -18 59 -16 90 2 53 30 168 11
184 -30 19 -51 -1 -101 -49 -121 -65 -27 -146 -8 -160 36 -5 15 -15 20 -41 20
-43 0 -45 -21 -6 -60 76 -75 262 -60 318 26 9 13 16 40 17 61 1 32 25 72 155
256 84 120 152 221 149 223 -2 3 -73 -92 -156 -211 l-153 -216 -33 28 c-18 15
-34 32 -34 36 -1 5 60 101 134 214 74 114 133 209 130 211 -6 6 6 24 -110
-155 -54 -84 -101 -149 -105 -144 -3 6 -26 11 -52 13 l-47 3 105 173 c58 96
103 176 101 179 -3 2 -54 -77 -114 -176 l-108 -181 -58 0 -58 0 29 53 c53 94
108 190 156 272 25 44 46 83 46 88 0 20 -18 2 -41 -41z m-113 -427 c-18 -44
-18 -50 -1 -30 9 11 20 26 24 33 5 9 25 12 64 10 l57 -3 -31 -47 c-29 -44 -32
-46 -61 -37 -34 9 -101 3 -132 -14 -17 -8 -18 -6 -13 19 14 70 24 84 63 84 28
0 35 -3 30 -15z"/>
<path d="M4608 7738 c134 -219 199 -334 191 -336 -5 -2 -9 -48 -9 -102 l0 -99
51 1 c42 1 55 -3 70 -20 46 -57 -31 -103 -113 -67 -15 6 -18 2 -18 -24 0 -25
6 -34 26 -41 60 -23 147 -3 178 41 9 14 16 43 16 72 0 38 -5 53 -25 71 -26 24
-87 42 -105 31 -6 -4 -10 11 -10 35 l0 41 63 -2 62 -3 3 32 3 32 -83 0 -83 1
-110 184 c-60 102 -114 185 -118 185 -5 0 0 -15 11 -32z"/>
<path d="M8087 7723 c-10 -9 -9 -23 1 -23 5 0 9 7 9 15 0 17 -1 18 -10 8z"/>
<path d="M4612 7500 c72 -110 133 -198 136 -196 6 7 -248 396 -259 396 -4 0
51 -90 123 -200z"/>
<path d="M4476 7667 c3 -10 9 -15 12 -12 3 3 0 11 -7 18 -10 9 -11 8 -5 -6z"/>
<path d="M4383 7627 c9 -23 256 -375 270 -384 15 -9 8 1 -136 207 -140 200
-143 204 -134 177z"/>
<path d="M4270 7566 c0 -6 146 -203 277 -373 7 -9 15 -15 17 -12 3 2 -58 87
-135 189 -149 196 -159 208 -159 196z"/>
<path d="M8468 7358 c-158 -208 -186 -248 -150 -213 32 32 313 407 309 412 -3
2 -74 -87 -159 -199z"/>
<path d="M4170 7485 c0 -11 302 -376 307 -371 4 4 -295 376 -303 376 -2 0 -4
-2 -4 -5z"/>
<path d="M8561 7286 c-91 -111 -167 -209 -169 -217 -3 -9 -1 -11 5 -4 8 8 302
370 336 413 5 6 6 12 1 12 -5 -1 -83 -92 -173 -204z"/>
<path d="M4076 7400 c4 -8 71 -87 148 -175 174 -200 166 -191 166 -180 0 6
-61 80 -136 165 -138 158 -193 217 -178 190z"/>
<path d="M8650 7209 c-96 -110 -177 -206 -179 -212 -5 -17 20 9 179 193 79 91
155 177 169 193 13 15 21 27 15 27 -5 0 -88 -91 -184 -201z"/>
<path d="M5080 7301 l0 -100 51 1 c42 1 55 -3 70 -20 46 -57 -31 -103 -113
-67 -15 6 -18 2 -18 -24 0 -25 6 -34 26 -41 60 -23 147 -3 178 41 9 14 16 43
16 72 0 60 -31 93 -96 103 -42 6 -44 8 -44 40 l0 34 65 0 65 0 0 30 0 30 -100
0 -100 0 0 -99z"/>
<path d="M3991 7303 c90 -102 313 -332 317 -328 6 5 -319 353 -332 354 -5 1 1
-11 15 -26z"/>
<path d="M8740 7134 c-102 -108 -186 -202 -188 -208 -3 -11 56 49 267 273 68
72 119 131 114 131 -4 0 -92 -88 -193 -196z"/>
<path d="M4040 7075 c96 -96 179 -175 185 -175 5 0 -69 79 -165 175 -96 96
-179 175 -185 175 -5 0 69 -79 165 -175z"/>
<path d="M8825 7048 l-200 -201 203 193 c172 165 215 210 199 210 -1 0 -92
-91 -202 -202z"/>
<path d="M6320 7156 c0 -8 -10 -17 -22 -19 l-23 -4 23 -2 c20 -1 22 -6 22 -65
0 -36 4 -67 9 -71 9 -5 20 138 13 163 -6 17 -22 15 -22 -2z"/>
<path d="M3800 7137 c80 -80 344 -316 349 -312 3 4 1 9 -5 13 -6 4 -86 77
-178 162 -93 85 -173 157 -179 159 -7 2 -1 -8 13 -22z"/>
<path d="M8912 6974 c-111 -102 -202 -190 -202 -196 0 -5 64 50 143 123 230
214 268 251 264 255 -2 2 -94 -80 -205 -182z"/>
<path d="M6413 7143 c31 -2 83 -2 115 0 31 2 5 3 -58 3 -63 0 -89 -1 -57 -3z"/>
<path d="M6603 7133 c9 -2 25 -2 35 0 9 3 1 5 -18 5 -19 0 -27 -2 -17 -5z"/>
<path d="M6233 7123 c9 -2 23 -2 30 0 6 3 -1 5 -18 5 -16 0 -22 -2 -12 -5z"/>
<path d="M6700 7118 c141 -41 180 -54 213 -70 22 -11 41 -17 44 -15 12 13
-234 99 -276 96 -9 -1 0 -6 19 -11z"/>
<path d="M6122 7099 c-35 -11 -62 -22 -60 -24 2 -2 37 7 78 20 41 13 68 23 60
24 -8 0 -44 -9 -78 -20z"/>
<path d="M3700 7057 c8 -8 67 -58 130 -113 63 -54 144 -123 179 -154 35 -30
62 -50 60 -43 -5 15 -361 323 -374 323 -5 0 -3 -6 5 -13z"/>
<path d="M5993 7050 c-24 -11 -43 -21 -43 -24 0 -5 91 31 99 40 9 9 -16 2 -56
-16z"/>
<path d="M8991 6888 c-116 -99 -211 -185 -211 -190 0 -8 415 346 426 363 14
23 -19 -4 -215 -173z"/>
<path d="M6773 6975 c-45 -78 -48 -85 -35 -85 8 0 92 141 92 154 0 21 -20 -4
-57 -69z"/>
<path d="M5845 7023 c17 -41 15 -49 -13 -65 -50 -30 -180 -157 -234 -229 -28
-38 -54 -69 -57 -69 -4 0 -16 7 -28 15 -12 8 -24 11 -27 7 -5 -9 50 -62 58
-55 2 3 25 -7 51 -22 46 -27 46 -27 39 -71 -7 -47 1 -54 35 -33 48 30 97 -22
72 -77 -14 -31 -65 -34 -81 -4 -11 21 -40 28 -40 10 0 -6 11 -22 25 -35 51
-52 135 -15 135 58 0 52 -29 82 -77 81 -38 -1 -39 0 -35 27 4 27 7 29 53 29
37 0 49 4 49 15 0 12 -13 15 -59 15 -36 0 -61 -5 -63 -11 -4 -13 -88 30 -88
44 0 35 175 225 261 285 51 34 53 34 83 -26 9 -18 21 -30 26 -27 6 4 -2 26
-17 52 -16 27 -23 48 -16 50 5 2 19 11 29 19 16 13 14 12 -14 -1 -31 -15 -32
-15 -44 10 -13 28 -34 35 -23 8z"/>
<path d="M6984 7018 c10 -7 46 -31 80 -53 173 -112 284 -244 372 -441 20 -44
33 -65 29 -49 -11 50 -83 187 -135 257 -83 110 -227 233 -330 282 -19 9 -27
11 -16 4z"/>
<path d="M3611 6974 c0 -13 381 -316 387 -309 3 3 3 6 1 8 -2 2 -85 68 -184
147 -221 176 -205 164 -204 154z"/>
<path d="M9070 6804 c-118 -96 -217 -180 -219 -186 -2 -6 96 69 218 167 121
98 221 182 221 186 0 5 -1 9 -2 8 -2 0 -100 -79 -218 -175z"/>
<path d="M6218 6954 c-53 -28 -63 -161 -16 -211 47 -51 128 -14 128 58 0 64
-68 102 -112 62 -22 -20 -23 -5 -4 42 12 27 21 35 40 35 14 0 31 -9 38 -19 9
-13 19 -17 27 -11 11 6 8 14 -12 34 -29 29 -50 32 -89 10z m70 -116 c26 -26 4
-98 -30 -98 -21 0 -48 33 -48 60 0 31 17 50 45 50 12 0 26 -5 33 -12z"/>
<path d="M6403 6955 c-71 -50 -42 -235 37 -235 50 0 73 29 78 98 5 75 -2 105
-30 132 -26 24 -56 26 -85 5z m77 -34 c5 -11 10 -47 10 -80 0 -48 -4 -65 -20
-81 -25 -25 -32 -25 -55 0 -21 23 -25 141 -5 165 18 21 57 19 70 -4z"/>
<path d="M3530 6875 c0 -9 390 -298 395 -293 5 5 -379 298 -390 298 -3 0 -5
-2 -5 -5z"/>
<path d="M9137 6708 c-125 -94 -226 -173 -223 -175 3 -4 433 311 461 338 6 6
6 9 0 9 -6 0 -113 -78 -238 -172z"/>
<path d="M6681 6789 c-5 -13 -54 -117 -109 -231 -84 -173 -104 -208 -122 -208
-29 0 -77 -26 -90 -49 -15 -29 -12 -93 5 -118 15 -21 13 -27 -15 -84 -34 -65
-33 -92 1 -87 16 2 27 19 44 63 21 56 24 60 62 68 51 10 83 44 90 94 4 32 0
45 -21 70 l-26 31 29 74 c16 40 61 145 100 232 39 87 69 161 66 164 -2 3 -9
-6 -14 -19z"/>
<path d="M3456 6771 c5 -5 86 -61 179 -126 94 -65 182 -127 198 -137 15 -11
27 -16 27 -11 0 9 -393 283 -406 283 -4 0 -4 -4 2 -9z"/>
<path d="M9211 6619 c-128 -89 -230 -163 -228 -166 5 -4 428 286 457 313 34
33 -9 5 -229 -147z"/>
<path d="M7100 6649 c-36 -21 -75 -39 -87 -39 -57 0 -83 -40 -83 -125 0 -98
48 -148 109 -114 50 28 65 146 26 205 -14 22 -13 24 50 59 36 20 67 41 71 46
11 19 -23 6 -86 -32z m-61 -83 c7 -8 12 -44 12 -81 0 -72 -11 -95 -47 -95 -31
0 -44 27 -44 95 0 31 5 65 10 76 12 22 52 25 69 5z"/>
<path d="M3390 6668 c23 -24 391 -259 401 -256 4 2 -69 53 -163 113 -202 130
-258 164 -238 143z"/>
<path d="M9288 6532 c-207 -134 -293 -195 -232 -164 27 14 456 291 469 303 34
32 -39 -11 -237 -139z"/>
<path d="M5841 6597 c-44 -48 -37 -178 12 -212 55 -38 108 3 115 89 2 30 1 67
-2 81 -16 63 -83 85 -125 42z m90 -34 c13 -34 11 -107 -3 -138 -12 -27 -48
-34 -66 -12 -32 38 -20 172 16 179 27 6 43 -3 53 -29z"/>
<path d="M5506 6583 c-22 -44 -66 -173 -65 -191 0 -9 11 15 23 53 13 39 33 91
44 118 23 51 22 65 -2 20z"/>
<path d="M6798 6576 c-44 -38 -53 -68 -13 -42 13 9 27 16 30 16 3 0 5 -43 5
-95 0 -78 3 -95 15 -95 13 0 15 21 15 125 0 69 -3 125 -7 125 -5 -1 -25 -16
-45 -34z"/>
<path d="M3310 6573 c0 -10 404 -253 422 -253 7 0 -70 50 -172 111 -102 61
-200 120 -217 131 -18 11 -33 16 -33 11z"/>
<path d="M9342 6428 c-139 -83 -250 -153 -248 -155 3 -4 483 275 505 294 2 1
2 5 0 8 -3 2 -118 -64 -257 -147z"/>
<path d="M3246 6461 c17 -16 428 -240 433 -235 6 6 19 -2 -216 127 -197 109
-242 131 -217 108z"/>
<path d="M9465 6363 c-187 -104 -191 -106 -250 -104 -71 2 -106 -18 -130 -76
-19 -45 -19 -163 -1 -207 43 -104 180 -100 220 6 l17 43 236 110 c129 60 231
111 226 112 -5 2 -101 -40 -214 -93 -279 -131 -249 -124 -249 -61 l0 52 205
104 c113 58 203 106 201 108 -2 2 -94 -41 -205 -96 -110 -56 -203 -101 -206
-101 -3 0 -5 8 -5 18 0 9 -9 28 -19 41 l-19 25 194 107 c107 59 198 109 201
113 21 21 -34 -7 -202 -101z m-237 -188 c17 -37 15 -50 -10 -69 l-23 -17 23 6
c21 6 22 3 22 -42 0 -51 -21 -93 -45 -93 -29 0 -45 42 -45 120 0 81 16 120 49
120 10 0 23 -11 29 -25z"/>
<path d="M7472 6430 c0 -8 4 -26 8 -40 6 -20 8 -21 8 -5 0 11 -3 29 -8 40 -5
12 -8 14 -8 5z"/>
<path d="M9456 6426 c7 -19 20 -21 30 -3 4 6 4 9 -1 5 -4 -4 -14 -3 -22 4 -11
8 -12 7 -7 -6z"/>
<path d="M5426 6333 c-3 -21 -5 -58 -5 -83 1 -32 4 -22 10 34 9 84 6 113 -5
49z"/>
<path d="M3184 6353 c4 -5 101 -55 214 -113 l207 -105 3 -68 3 -67 37 5 c70
11 116 -41 76 -86 -19 -21 -58 -25 -98 -9 -25 9 -26 8 -26 -24 0 -32 3 -35 40
-41 22 -4 58 -4 80 0 80 13 127 112 84 174 -18 26 -71 51 -106 51 -19 0 -23 5
-22 32 l1 33 65 3 64 3 -4 29 -4 30 -94 0 c-94 0 -94 0 -94 -25 0 -14 -2 -25
-4 -25 -2 0 -96 47 -208 105 -189 97 -233 117 -214 98z"/>
<path d="M7495 6190 c0 -96 3 -161 6 -144 4 16 7 81 7 144 0 63 -3 128 -7 144
-3 17 -6 -48 -6 -144z"/>
<path d="M8860 6246 c-52 -11 -55 -13 -58 -44 -2 -17 -2 -32 0 -32 2 0 18 4
36 9 l32 10 0 -110 0 -109 -35 0 c-32 0 -35 -2 -35 -29 l0 -30 110 -3 110 -3
0 33 c0 30 -2 32 -35 32 l-35 0 0 145 c0 164 8 152 -90 131z"/>
<path d="M3126 6242 c5 -5 50 -27 99 -49 50 -23 147 -69 218 -102 70 -33 127
-57 127 -52 0 7 -430 211 -446 211 -4 0 -4 -4 2 -8z"/>
<path d="M3966 6200 c-66 -20 -96 -76 -96 -180 0 -112 33 -167 108 -177 57 -8
99 18 124 74 28 64 22 195 -10 241 -29 40 -77 56 -126 42z m65 -87 c12 -32 12
-145 -1 -178 -14 -37 -39 -43 -62 -14 -17 20 -19 36 -16 112 2 72 6 91 21 102
24 17 46 9 58 -22z"/>
<path d="M7140 6200 c0 -6 37 -10 90 -10 53 0 90 4 90 10 0 6 -37 10 -90 10
-53 0 -90 -4 -90 -10z"/>
<path d="M5355 6191 c-3 -5 9 -11 27 -13 32 -3 33 -4 39 -63 l6 -60 1 63 2 62
56 0 c34 0 53 4 49 10 -8 13 -172 13 -180 1z"/>
<path d="M9877 6143 c-4 -3 -19 -7 -34 -8 -46 -3 -556 -226 -544 -238 6 -6
104 31 298 113 158 67 295 126 303 131 13 7 13 8 -1 9 -9 0 -19 -3 -22 -7z"/>
<path d="M3075 6132 c14 -15 436 -193 447 -190 6 2 -90 46 -213 98 -257 110
-247 106 -234 92z"/>
<path d="M5432 6030 c0 -14 3 -34 8 -45 l9 -20 -1 20 c0 11 -4 31 -8 45 l-8
25 0 -25z"/>
<path d="M6864 6036 c-28 -13 -44 -33 -44 -57 0 -18 25 -8 35 14 11 25 49 34
71 17 26 -23 15 -54 -37 -105 -28 -28 -57 -62 -65 -77 l-15 -28 87 0 c64 0 85
3 82 13 -3 7 -29 14 -62 17 l-57 5 56 55 c43 43 55 61 55 86 0 53 -52 83 -106
60z"/>
<path d="M7063 6040 c-41 -17 -56 -53 -51 -129 4 -83 23 -111 74 -111 65 0
100 83 74 175 -17 61 -51 83 -97 65z m57 -35 c13 -16 17 -117 6 -152 -11 -33
-46 -40 -68 -13 -23 29 -25 126 -2 158 17 25 46 29 64 7z"/>
<path d="M9938 6035 c-3 -3 -18 -7 -34 -9 -32 -4 -554 -203 -567 -216 -29 -27
42 -5 308 98 165 63 302 117 304 118 2 2 2 6 -1 9 -2 3 -7 3 -10 0z"/>
<path d="M3020 6021 c0 -4 96 -44 213 -89 256 -98 255 -98 242 -85 -5 6 -95
43 -200 83 -104 40 -205 78 -222 86 -18 7 -33 10 -33 5z"/>
<path d="M5692 5968 c-93 -128 -95 -138 -22 -138 49 0 50 -1 50 -30 0 -20 5
-30 15 -30 10 0 15 10 15 29 0 20 6 30 20 34 11 3 20 10 20 16 0 6 -9 11 -20
11 -18 0 -20 7 -20 80 0 45 -4 80 -10 80 -5 0 -27 -24 -48 -52z m25 -105 c-3
-2 -19 -3 -36 -1 l-31 3 33 50 32 49 3 -48 c2 -26 1 -50 -1 -53z"/>
<path d="M5849 6001 c-22 -18 -24 -27 -24 -106 0 -79 2 -88 24 -106 52 -42
109 -11 121 65 19 125 -48 206 -121 147z m79 -23 c7 -7 12 -40 12 -80 0 -55
-4 -72 -20 -88 -22 -22 -52 -15 -64 16 -10 25 -7 124 4 145 12 21 50 25 68 7z"/>
<path d="M7476 5974 c-4 -14 -5 -29 -2 -31 3 -3 8 7 12 21 3 15 4 29 1 32 -2
3 -8 -7 -11 -22z"/>
<path d="M8203 5983 c15 -2 37 -2 50 0 12 2 0 4 -28 4 -27 0 -38 -2 -22 -4z"/>
<path d="M5455 5935 c3 -16 22 -68 42 -114 l37 -83 -25 -18 c-30 -23 -19 -38
13 -16 21 15 24 14 46 -12 l24 -27 -17 29 c-20 33 -20 33 46 69 17 10 29 20
25 24 -3 3 -28 -6 -55 -20 l-48 -27 -27 61 c-15 33 -36 83 -47 112 -11 29 -17
39 -14 22z"/>
<path d="M7447 5883 c-9 -25 -15 -48 -13 -50 2 -2 12 16 21 42 10 25 16 47 13
50 -2 2 -12 -17 -21 -42z"/>
<path d="M9952 5913 c-13 -3 -108 -34 -210 -70 -103 -36 -229 -79 -279 -96
-82 -28 -116 -47 -82 -47 17 0 593 202 604 211 10 9 7 10 -33 2z"/>
<path d="M2976 5902 c13 -12 455 -165 460 -159 6 6 -14 13 -254 97 -207 72
-223 76 -206 62z"/>
<path d="M7410 5800 c-6 -12 -9 -24 -7 -27 3 -2 11 5 17 17 6 12 9 24 7 27 -3
2 -11 -5 -17 -17z"/>
<path d="M7030 5793 c0 -5 32 -26 71 -48 85 -48 89 -50 89 -37 0 10 -138 92
-154 92 -3 0 -6 -3 -6 -7z"/>
<path d="M9950 5784 c-83 -22 -533 -164 -539 -169 -19 -20 43 -4 300 76 284
88 343 109 309 108 -8 0 -40 -7 -70 -15z"/>
<path d="M2931 5786 c9 -10 460 -147 470 -144 11 4 -447 149 -465 148 -5 0 -7
-2 -5 -4z"/>
<path d="M7347 5687 c-79 -120 -203 -233 -346 -314 -42 -24 -71 -43 -66 -43
17 0 140 75 202 123 86 66 181 169 238 260 32 50 8 28 -28 -26z"/>
<path d="M6183 5684 c-20 -20 -23 -28 -13 -37 9 -9 15 -7 27 11 29 42 97 17
73 -27 -6 -12 -20 -21 -30 -21 -11 0 -20 -7 -20 -15 0 -9 9 -15 25 -15 32 0
52 -38 36 -67 -17 -32 -50 -35 -78 -7 -25 25 -43 31 -43 14 0 -23 50 -60 80
-60 63 0 103 77 62 118 -16 16 -17 22 -5 37 19 27 16 43 -12 70 -31 32 -69 32
-102 -1z"/>
<path d="M6381 5686 c-42 -44 -41 -167 1 -206 30 -27 70 -25 98 5 36 39 41
137 8 185 -31 46 -73 52 -107 16z m86 -36 c28 -56 8 -152 -34 -158 -45 -7 -68
81 -42 157 9 27 16 32 37 29 16 -2 31 -13 39 -28z"/>
<path d="M2890 5671 c0 -4 53 -22 118 -39 64 -18 172 -47 240 -66 67 -18 122
-30 122 -26 0 3 -78 28 -172 53 -95 26 -203 55 -240 66 -38 11 -68 16 -68 12z"/>
<path d="M9900 5640 c-74 -21 -205 -57 -290 -80 -85 -23 -159 -47 -165 -52 -7
-7 -3 -8 10 -4 11 3 146 40 300 82 261 71 335 94 295 93 -8 -1 -76 -18 -150
-39z"/>
<path d="M5608 5634 c32 -46 139 -151 202 -197 30 -22 56 -41 58 -43 2 -1 -4
-14 -13 -28 -15 -23 -15 -26 -2 -26 9 0 19 9 22 20 3 11 11 20 17 20 6 0 9 3
5 6 -3 3 8 28 23 55 16 26 25 51 21 54 -5 3 -21 -15 -35 -40 -15 -25 -30 -45
-35 -45 -19 0 -143 104 -211 177 -40 43 -64 64 -52 47z"/>
<path d="M2860 5550 c0 -3 100 -30 223 -60 252 -60 279 -66 257 -52 -8 5 -85
26 -170 46 -85 20 -190 44 -232 55 -43 10 -78 15 -78 11z"/>
<path d="M9761 5488 c-268 -64 -300 -73 -290 -81 5 -5 608 139 616 147 13 13
-50 0 -326 -66z"/>
<path d="M6740 5493 c0 -17 84 -152 91 -147 5 3 -5 28 -22 57 -16 29 -35 62
-41 75 -11 21 -28 30 -28 15z"/>
<path d="M2830 5429 c0 -5 4 -9 9 -9 5 0 108 -20 229 -45 190 -39 282 -54 247
-39 -33 13 -485 100 -485 93z"/>
<path d="M9785 5377 c-159 -33 -292 -61 -294 -63 -2 -2 -2 -6 0 -8 6 -5 606
117 614 126 12 12 -19 6 -320 -55z"/>
<path d="M6460 5315 l0 -75 -72 -2 -73 -2 65 -3 c36 -2 69 -8 75 -14 20 -20
25 -5 25 81 0 53 -4 90 -10 90 -6 0 -10 -32 -10 -75z"/>
<path d="M5910 5374 c0 -7 150 -77 155 -72 2 2 -32 20 -75 40 -44 20 -80 34
-80 32z"/>
<path d="M6855 5305 c-25 -12 -26 -14 -5 -9 28 7 60 23 45 23 -5 0 -23 -6 -40
-14z"/>
<path d="M9818 5266 c-163 -28 -300 -55 -305 -60 -4 -5 5 -6 22 -2 17 3 154
26 305 52 259 43 289 49 279 57 -2 2 -138 -19 -301 -47z"/>
<path d="M2801 5306 c7 -7 491 -87 496 -82 7 7 -11 10 -250 51 -195 33 -256
41 -246 31z"/>
<path d="M6090 5290 c8 -5 22 -10 30 -10 13 0 13 1 0 10 -8 5 -22 10 -30 10
-13 0 -13 -1 0 -10z"/>
<path d="M6780 5280 c-13 -9 -13 -10 0 -10 8 0 22 5 30 10 13 9 13 10 0 10 -8
0 -22 -5 -30 -10z"/>
<path d="M6180 5265 c25 -9 65 -18 90 -20 39 -4 37 -3 -15 9 -99 23 -122 27
-75 11z"/>
<path d="M6695 5260 l-20 -9 20 1 c11 0 31 4 45 8 l25 8 -25 0 c-14 0 -34 -3
-45 -8z"/>
<path d="M6623 5243 c9 -2 25 -2 35 0 9 3 1 5 -18 5 -19 0 -27 -2 -17 -5z"/>
<path d="M6518 5233 c18 -2 45 -2 60 0 15 2 0 4 -33 4 -33 0 -45 -2 -27 -4z"/>
<path d="M2781 5185 c3 -2 104 -18 225 -35 120 -16 231 -32 247 -35 15 -2 27
-1 27 3 0 5 -109 23 -242 40 -255 34 -264 35 -257 27z"/>
<path d="M9808 5151 c-147 -20 -271 -40 -274 -44 -4 -4 -5 -7 -3 -7 24 0 603
81 607 85 11 10 -70 2 -330 -34z"/>
<path d="M2785 5061 c11 -5 117 -19 235 -30 226 -22 257 -24 248 -16 -3 3 -95
14 -204 25 -109 11 -221 22 -249 25 -35 3 -44 2 -30 -4z"/>
<path d="M9830 5039 c-146 -15 -271 -28 -279 -28 -8 -1 -12 -4 -8 -7 8 -8 566
45 592 56 17 7 15 9 -10 8 -16 0 -149 -13 -295 -29z"/>
<path d="M9840 4927 c-157 -11 -287 -21 -289 -23 -11 -10 21 -9 254 7 138 10
271 18 298 18 26 1 47 6 47 11 0 6 -6 9 -12 9 -7 -1 -141 -11 -298 -22z"/>
<path d="M2831 4926 c2 -2 81 -9 174 -15 94 -7 199 -14 235 -18 36 -3 62 -2
58 2 -4 4 -87 13 -185 21 -178 13 -290 17 -282 10z"/>
<path d="M9877 4814 c-239 -14 -318 -27 -112 -19 220 9 510 26 514 31 7 7
-173 2 -402 -12z"/>
<path d="M2850 4811 c147 -12 388 -16 396 -8 4 4 -28 7 -72 7 -43 0 -158 2
-254 4 -143 4 -156 3 -70 -3z"/>
<path d="M3443 4686 c-43 -67 -73 -124 -73 -140 0 -26 1 -26 75 -26 l75 0 0
-35 c0 -33 2 -35 35 -35 33 0 35 2 35 34 0 28 4 35 23 38 16 2 22 10 22 28 0
18 -6 26 -22 28 -22 3 -23 7 -23 113 l0 109 -37 0 c-37 0 -39 -2 -110 -114z
m77 -41 l0 -65 -41 0 c-22 0 -39 3 -37 8 5 13 73 121 76 122 1 0 2 -29 2 -65z"/>
<path d="M3700 4702 l0 -98 48 0 c55 1 82 -15 82 -49 0 -48 -59 -68 -122 -40
-15 6 -18 2 -18 -28 0 -35 1 -36 45 -43 68 -10 109 2 144 42 62 70 27 165 -68
180 -39 6 -41 9 -41 40 l0 34 63 0 64 0 -5 30 -4 30 -94 0 -94 0 0 -98z"/>
<path d="M9087 4765 c-67 -14 -70 -17 -72 -51 -1 -24 1 -25 37 -19 l38 7 0
-111 0 -111 -35 0 c-32 0 -35 -2 -35 -30 l0 -30 110 0 110 0 0 30 c0 28 -3 30
-35 30 l-35 0 0 150 c0 114 -3 150 -12 149 -7 -1 -39 -7 -71 -14z"/>
<path d="M9320 4680 l0 -100 48 0 c70 0 106 -45 66 -84 -18 -18 -76 -21 -105
-6 -17 10 -19 7 -19 -24 0 -40 11 -46 82 -46 33 0 62 7 83 20 32 20 36 20 306
5 263 -14 395 -18 374 -10 -9 4 -570 35 -621 35 -20 0 -20 3 -11 39 20 74 -27
131 -108 131 -33 0 -35 2 -35 35 l0 35 65 0 65 0 0 35 0 35 -95 0 -95 0 0
-100z"/>
<path d="M2873 4693 c71 -2 183 -2 250 0 67 1 10 3 -128 3 -137 0 -192 -2
-122 -3z"/>
<path d="M6430 4688 c-53 -28 -49 -107 7 -129 77 -29 146 50 96 110 -23 27
-71 35 -103 19z"/>
<path d="M9560 4589 c0 -4 107 -10 238 -13 130 -4 265 -9 300 -12 41 -4 62 -2
62 5 0 7 -41 11 -117 12 -65 1 -200 4 -301 8 -100 3 -182 3 -182 0z"/>
<path d="M2893 4583 c-73 -2 -133 -7 -133 -12 0 -9 282 -3 410 9 l85 7 -115
-1 c-63 0 -175 -2 -247 -3z"/>
<path d="M2932 4465 c-95 -7 -176 -15 -179 -19 -4 -3 1 -6 10 -6 38 0 473 31
482 35 20 7 -145 2 -313 -10z"/>
<path d="M9550 4382 c0 -7 515 -63 574 -62 60 0 -18 11 -249 34 -143 15 -275
29 -292 32 -18 3 -33 1 -33 -4z"/>
<path d="M3016 4354 c-120 -13 -226 -25 -235 -27 -38 -11 58 -5 234 13 105 11
200 20 213 20 12 0 22 5 22 10 0 6 -3 9 -7 9 -5 -1 -107 -12 -227 -25z"/>
<path d="M9541 4276 c2 -3 124 -21 269 -40 146 -20 278 -38 295 -41 17 -3 25
-2 20 3 -6 5 -131 26 -280 46 -264 35 -313 40 -304 32z"/>
<path d="M3008 4236 c-126 -17 -228 -34 -228 -39 0 -4 10 -5 23 -3 12 3 119
17 237 32 118 15 219 31 225 36 13 11 2 10 -257 -26z"/>
<path d="M9523 4173 c9 -8 580 -104 586 -98 7 8 -18 13 -301 59 -301 50 -294
49 -285 39z"/>
<path d="M3170 4144 c-41 -7 -133 -23 -205 -35 -71 -13 -124 -24 -117 -27 15
-5 390 56 417 68 l20 9 -20 -1 c-11 0 -54 -6 -95 -14z"/>
<path d="M9510 4071 c0 -4 118 -31 263 -60 144 -29 273 -55 287 -58 14 -3 21
-2 17 3 -11 11 -567 124 -567 115z"/>
<path d="M3068 4011 c-124 -25 -230 -50 -235 -54 -10 -10 13 -7 267 45 184 37
209 43 199 51 -2 2 -106 -17 -231 -42z"/>
<path d="M9492 3965 c8 -8 551 -136 556 -130 7 6 6 7 -280 74 -248 59 -287 67
-276 56z"/>
<path d="M3085 3896 c-213 -53 -273 -71 -200 -60 69 9 430 96 440 105 16 16
-24 8 -240 -45z"/>
<path d="M9462 3864 c5 -5 98 -31 442 -125 60 -16 111 -27 114 -25 6 7 19 3
-281 85 -250 69 -287 77 -275 65z"/>
<path d="M3148 3787 c-103 -29 -190 -56 -195 -61 -4 -5 1 -6 12 -3 11 3 99 27
195 53 96 26 179 51 185 55 14 14 3 11 -197 -44z"/>
<path d="M9432 3765 c10 -10 541 -175 547 -169 7 7 6 7 -259 89 -292 89 -298
91 -288 80z"/>
<path d="M3150 3673 c-223 -69 -226 -70 -219 -77 6 -6 120 25 297 80 79 24
145 44 148 44 2 0 4 5 4 10 0 14 8 16 -230 -57z"/>
<path d="M9405 3663 c6 -5 53 -25 105 -43 52 -17 170 -58 263 -91 92 -32 167
-55 167 -51 0 4 -116 47 -257 96 -314 109 -290 101 -278 89z"/>
<path d="M3188 3563 c-120 -42 -218 -80 -218 -85 0 -4 11 -3 25 2 14 5 112 40
218 76 169 59 234 86 202 83 -6 0 -108 -35 -227 -76z"/>
<path d="M9370 3561 c17 -10 510 -201 518 -201 25 0 -48 32 -264 114 -230 88
-294 110 -254 87z"/>
<path d="M3325 3490 c-66 -26 -164 -64 -218 -84 -54 -21 -96 -40 -93 -43 4 -5
425 153 435 163 16 15 -19 5 -124 -36z"/>
<path d="M9321 3466 c12 -11 504 -216 512 -213 10 3 -486 217 -505 217 -6 0
-9 -2 -7 -4z"/>
<path d="M3277 3348 c-114 -50 -205 -93 -203 -96 7 -7 416 170 416 180 0 4 -1
8 -2 7 -2 0 -97 -42 -211 -91z"/>
<path d="M9280 3372 c0 -4 111 -59 247 -122 273 -127 272 -127 258 -112 -6 6
-98 52 -205 103 -263 123 -300 139 -300 131z"/>
<path d="M3330 3242 c-223 -104 -215 -100 -209 -106 3 -4 407 180 418 190 22
20 -35 -3 -209 -84z"/>
<path d="M3883 3186 c-44 -67 -73 -124 -73 -140 0 -26 1 -26 75 -26 l75 0 0
-35 c0 -33 2 -35 35 -35 33 0 35 2 35 35 0 31 3 35 26 35 22 0 25 4 22 28 -2
19 -9 28 -25 30 -22 3 -23 7 -23 113 l0 109 -37 0 c-37 -1 -39 -3 -110 -114z
m74 -103 c-3 -2 -21 -3 -41 -1 l-36 3 38 62 37 61 3 -60 c2 -33 1 -62 -1 -65z"/>
<path d="M4165 3278 c-39 -30 -55 -77 -55 -158 0 -112 33 -167 108 -177 86
-12 141 56 142 173 0 87 -9 120 -40 154 -24 26 -36 30 -78 30 -35 0 -57 -6
-77 -22z m106 -65 c12 -32 12 -145 -1 -178 -14 -37 -39 -43 -62 -14 -17 20
-19 36 -16 112 2 72 6 91 21 102 24 17 46 9 58 -22z"/>
<path d="M9245 3270 c9 -14 485 -252 485 -242 0 4 -111 62 -246 130 -135 68
-243 118 -239 112z"/>
<path d="M8793 3256 c-27 -12 -33 -21 -33 -46 0 -34 4 -35 40 -15 31 18 72 19
88 3 7 -7 12 -25 12 -41 0 -23 -16 -46 -75 -106 -61 -63 -75 -83 -75 -109 l0
-32 115 0 115 0 0 35 0 35 -72 0 -72 0 44 37 c98 84 126 162 77 219 -19 22
-34 28 -78 31 -33 2 -66 -2 -86 -11z"/>
<path d="M9094 3251 c-41 -25 -64 -85 -64 -166 0 -75 22 -137 55 -159 14 -9
46 -16 71 -16 43 0 62 -9 202 -100 85 -56 158 -100 163 -98 5 2 -61 48 -146
102 -85 54 -155 102 -155 107 0 4 5 11 11 15 6 3 18 19 28 34 l17 28 157 -95
c87 -52 161 -93 163 -90 3 3 -67 48 -155 102 l-161 96 0 55 c0 30 2 54 3 54 2
0 86 -45 186 -101 100 -55 185 -99 187 -96 3 2 -79 51 -182 108 l-187 104 -19
53 c-14 37 -28 57 -48 67 -39 20 -89 19 -126 -4z m94 -66 c7 -14 12 -48 12
-76 l0 -50 -31 16 c-17 9 -33 15 -35 12 -2 -2 12 -12 31 -23 37 -20 41 -28 25
-68 -14 -37 -57 -36 -71 2 -14 37 -8 175 10 195 20 25 46 21 59 -8z"/>
<path d="M3378 3137 c-109 -56 -198 -106 -198 -110 0 -8 366 175 397 199 40
30 -12 7 -199 -89z"/>
<path d="M3440 3035 c-102 -57 -189 -106 -195 -108 -5 -2 -8 -7 -5 -10 5 -5
380 199 396 216 21 21 -28 -4 -196 -98z"/>
<path d="M3530 2954 c-85 -52 -170 -104 -189 -115 -18 -11 -31 -22 -29 -25 6
-5 353 199 378 222 33 31 -13 7 -160 -82z"/>
<path d="M9540 2955 c0 -2 18 -14 40 -25 22 -11 40 -18 40 -15 0 2 -18 14 -40
25 -22 11 -40 18 -40 15z"/>
<path d="M3564 2835 c-98 -63 -181 -120 -182 -125 -2 -6 81 44 185 111 207
134 200 129 186 129 -5 0 -90 -52 -189 -115z"/>
<path d="M9495 2931 c-3 -6 5 -15 17 -21 21 -10 21 -10 6 3 -10 8 -15 17 -11
20 3 4 4 7 0 7 -3 0 -8 -4 -12 -9z"/>
<path d="M9030 2897 c27 -27 420 -296 420 -288 0 8 -402 292 -424 300 -6 2 -4
-3 4 -12z"/>
<path d="M3640 2744 c-91 -63 -172 -119 -180 -124 -8 -5 -12 -11 -9 -14 3 -3
85 50 183 118 189 132 194 136 180 136 -5 -1 -83 -53 -174 -116z"/>
<path d="M9620 2856 c0 -3 9 -10 20 -16 11 -6 20 -8 20 -6 0 3 -9 10 -20 16
-11 6 -20 8 -20 6z"/>
<path d="M9155 2665 c115 -85 213 -155 219 -155 5 0 -84 70 -197 155 -114 85
-212 155 -219 155 -7 0 82 -70 197 -155z"/>
<path d="M3700 2644 c-91 -69 -167 -130 -169 -136 -3 -9 118 77 298 214 35 26
58 48 50 47 -8 0 -88 -57 -179 -125z"/>
<path d="M8891 2733 c0 -11 399 -327 404 -321 3 2 -79 72 -182 154 -214 171
-223 178 -222 167z"/>
<path d="M3777 2553 c-92 -75 -166 -138 -163 -140 4 -5 346 265 346 273 0 12
-31 -10 -183 -133z"/>
<path d="M8820 2653 c0 -10 379 -337 385 -331 3 2 -53 53 -122 114 -70 60
-158 135 -195 167 -37 33 -68 55 -68 50z"/>
<path d="M3857 2464 c-87 -75 -156 -139 -153 -141 2 -3 73 55 158 127 186 161
174 150 163 150 -6 0 -81 -61 -168 -136z"/>
<path d="M8750 2566 c0 -8 361 -338 365 -334 5 5 -350 338 -359 338 -3 0 -6
-2 -6 -4z"/>
<path d="M3937 2375 c-86 -80 -153 -145 -147 -145 9 0 302 268 308 282 2 4 2
8 0 8 -3 0 -75 -65 -161 -145z"/>
<path d="M8780 2374 c63 -63 147 -143 185 -176 39 -34 -9 18 -105 115 -96 97
-179 177 -185 177 -5 0 42 -52 105 -116z"/>
<path d="M4020 2290 c-85 -82 -150 -149 -145 -150 6 0 78 68 160 150 82 83
148 150 145 150 -3 -1 -75 -68 -160 -150z"/>
<path d="M7745 2415 c-22 -8 -41 -15 -42 -15 -2 0 -3 -16 -3 -35 l0 -36 30 16
c48 25 95 18 100 -15 6 -43 -6 -65 -75 -140 -62 -66 -75 -85 -72 -108 l4 -27
111 -3 112 -3 0 36 0 35 -72 0 -73 0 47 43 c88 79 116 147 87 210 -21 47 -90
66 -154 42z"/>
<path d="M7990 2320 l0 -100 41 0 c59 0 79 -14 79 -55 0 -38 -20 -55 -65 -55
-14 0 -35 5 -46 10 -17 10 -19 7 -19 -24 0 -39 11 -46 76 -46 85 0 134 47 134
129 0 57 -32 91 -93 98 -46 5 -47 7 -47 39 l0 33 63 3 c62 3 62 3 65 36 l3 32
-95 0 -96 0 0 -100z"/>
<path d="M8611 2393 c115 -127 323 -342 327 -338 6 5 -330 362 -342 364 -6 1
1 -11 15 -26z"/>
<path d="M4115 2217 c-77 -82 -141 -154 -143 -160 -2 -7 46 40 107 103 121
125 186 199 180 203 -2 2 -67 -64 -144 -146z"/>
<path d="M8572 2268 c35 -40 108 -124 162 -186 55 -62 101 -110 103 -108 6 6
-310 366 -321 366 -4 0 20 -33 56 -72z"/>
<path d="M4287 2232 c-27 -31 -87 -101 -134 -155 -47 -54 -84 -100 -81 -102 4
-4 217 234 261 291 37 48 1 21 -46 -34z"/>
<path d="M4923 2270 c-16 -7 -23 -18 -23 -38 0 -29 0 -29 40 -18 46 12 73 1
78 -30 4 -31 -12 -45 -57 -51 -38 -5 -42 -8 -39 -32 3 -22 9 -27 43 -31 22 -3
46 -9 53 -13 17 -11 15 -52 -3 -67 -18 -15 -76 -16 -104 -1 -19 11 -21 9 -21
-23 0 -40 11 -46 86 -46 86 0 133 35 134 98 0 33 -36 82 -61 82 -6 0 3 13 20
29 38 36 41 78 8 117 -19 22 -34 28 -78 30 -30 2 -64 0 -76 -6z"/>
<path d="M5190 2176 l0 -94 56 -4 c33 -3 60 -11 65 -19 16 -26 10 -58 -16 -75
-24 -15 -40 -15 -98 2 -16 5 -18 1 -15 -27 3 -31 7 -34 47 -42 92 -18 171 35
171 114 0 22 -5 49 -11 61 -12 23 -66 48 -104 48 -22 0 -25 4 -25 35 l0 35 65
0 65 0 0 30 0 30 -100 0 -100 0 0 -94z"/>
<path d="M8437 2257 c20 -35 297 -367 301 -362 3 3 -2 13 -10 22 -8 10 -77 93
-152 186 -123 150 -163 194 -139 154z"/>
<path d="M4300 2066 c-68 -85 -126 -160 -128 -167 -6 -19 0 -12 104 116 156
191 167 205 158 205 -5 0 -65 -70 -134 -154z"/>
<path d="M8357 2176 c10 -14 74 -99 143 -190 69 -91 129 -166 133 -166 5 0 0
11 -10 24 -10 14 -74 99 -143 190 -69 91 -129 166 -133 166 -5 0 0 -11 10 -24z"/>
<path d="M4400 1999 c-120 -158 -140 -186 -123 -176 17 10 255 327 246 327 -4
0 -60 -68 -123 -151z"/>
<path d="M8250 2138 c0 -12 272 -390 276 -385 3 2 -52 85 -121 183 -122 173
-155 216 -155 202z"/>
<path d="M4495 1925 c-65 -91 -115 -168 -113 -171 3 -2 58 71 122 162 64 91
115 168 113 171 -3 2 -58 -71 -122 -162z"/>
<path d="M8167 2057 c49 -82 247 -376 251 -373 6 7 -240 386 -251 386 -4 0 -4
-6 0 -13z"/>
<path d="M4603 1871 c-56 -86 -105 -165 -108 -176 -4 -11 43 56 105 148 61 93
110 172 108 177 -2 4 -49 -63 -105 -149z"/>
<path d="M8070 2008 c0 -6 176 -301 215 -361 10 -15 20 -26 22 -23 4 4 -210
362 -228 381 -5 5 -9 6 -9 3z"/>
<path d="M4701 1799 c-57 -94 -101 -172 -98 -175 2 -2 50 72 107 166 57 94
101 173 98 175 -3 3 -51 -72 -107 -166z"/>
<path d="M7972 1950 c10 -28 214 -389 221 -390 4 0 1 13 -8 30 -18 35 -19 44
-3 34 7 -4 8 -3 4 5 -4 6 -11 9 -15 6 -5 -2 -50 69 -100 160 -51 91 -95 165
-98 165 -2 0 -3 -4 -1 -10z"/>
<path d="M6260 1920 c-49 -8 -60 -17 -60 -47 0 -23 3 -24 28 -17 42 12 75 7
89 -12 20 -27 -5 -58 -51 -62 -33 -3 -36 -6 -36 -33 0 -22 5 -29 19 -29 10 0
32 -5 49 -11 65 -23 35 -96 -37 -86 -20 3 -44 8 -54 12 -16 7 -18 3 -15 -26 3
-30 8 -35 39 -43 54 -13 123 1 153 31 20 19 26 36 26 68 0 43 -15 64 -55 79
-20 8 -19 8 2 16 45 18 60 102 24 134 -25 23 -77 34 -121 26z"/>
<path d="M6534 1908 c-12 -5 -32 -29 -45 -51 -19 -34 -24 -56 -24 -122 0 -119
39 -174 123 -175 66 0 105 38 123 119 19 93 -4 191 -53 225 -25 18 -92 20
-124 4z m87 -65 c10 -11 14 -44 14 -103 0 -91 -11 -120 -45 -120 -34 0 -45 29
-45 120 0 91 11 120 45 120 10 0 24 -7 31 -17z"/>
<path d="M4877 1868 c-88 -154 -167 -302 -163 -305 5 -5 19 19 126 211 39 70
69 130 66 133 -2 2 -15 -15 -29 -39z"/>
<path d="M7971 1701 c57 -110 105 -198 107 -196 6 6 -192 395 -201 395 -5 0
38 -90 94 -199z"/>
<path d="M4911 1681 c-50 -100 -88 -181 -83 -181 9 0 185 351 178 357 -3 3
-46 -76 -95 -176z"/>
<path d="M7778 1833 c5 -10 46 -100 92 -200 47 -101 88 -183 92 -183 4 0 -13
44 -38 98 -25 53 -66 143 -92 199 -26 56 -51 103 -55 103 -4 0 -4 -8 1 -17z"/>
<path d="M5025 1638 c-90 -193 -92 -197 -77 -183 15 14 172 355 164 355 -4 0
-43 -77 -87 -172z"/>
<path d="M7670 1803 c0 -9 159 -392 167 -402 1 -2 5 -2 7 0 4 4 -158 397 -168
407 -4 3 -6 1 -6 -5z"/>
<path d="M5141 1599 c-87 -205 -87 -207 -73 -194 14 14 153 346 149 358 -2 6
-36 -68 -76 -164z"/>
<path d="M7573 1728 c8 -18 42 -108 77 -200 35 -93 67 -168 71 -168 4 0 -27
90 -69 200 -42 110 -79 200 -84 200 -5 0 -2 -15 5 -32z"/>
<path d="M7460 1716 c0 -11 129 -388 135 -395 12 -11 1 26 -54 191 -54 161
-80 227 -81 204z"/>
<path d="M5426 1682 c-13 -22 -124 -362 -118 -362 8 0 134 362 128 367 -2 3
-7 0 -10 -5z"/>
<path d="M7350 1686 c0 -7 99 -347 116 -395 2 -8 7 -12 9 -9 3 3 -20 90 -51
194 -51 172 -73 234 -74 210z"/>
<path d="M5535 1649 c-2 -8 -27 -89 -55 -181 -47 -157 -57 -198 -45 -186 9 9
115 372 110 376 -3 3 -7 -1 -10 -9z"/>
<path d="M7241 1657 c-2 -18 103 -407 109 -407 4 0 -15 84 -41 188 -44 168
-66 242 -68 219z"/>
<path d="M5280 1624 c-6 -16 -36 -93 -66 -172 -31 -79 -54 -145 -52 -147 2 -3
34 73 71 168 36 94 64 173 62 176 -3 2 -9 -9 -15 -25z"/>
<path d="M5646 1619 c-3 -8 -23 -86 -46 -174 -23 -88 -43 -168 -46 -177 -3
-10 -1 -18 5 -18 6 0 11 6 11 14 0 8 20 91 45 186 25 95 43 175 41 178 -3 3
-8 -1 -10 -9z"/>
<path d="M7130 1624 c0 -10 79 -372 86 -393 2 -8 7 -12 9 -9 6 5 -80 397 -89
405 -3 4 -6 2 -6 -3z"/>
<path d="M5761 1607 c0 -4 -19 -88 -41 -187 -39 -177 -45 -208 -35 -198 9 9
85 363 81 378 -2 8 -4 12 -5 7z"/>
<path d="M4567 1585 c3 -8 9 -12 14 -9 12 7 11 11 -5 17 -10 4 -13 1 -9 -8z"/>
<path d="M7020 1593 c0 -21 69 -386 74 -391 11 -10 6 22 -29 207 -30 159 -45
221 -45 184z"/>
<path d="M5838 1393 c-32 -170 -36 -205 -24 -192 8 9 73 379 66 379 -3 0 -22
-84 -42 -187z"/>
<path d="M6931 1393 c16 -104 29 -194 29 -200 0 -7 4 -13 8 -13 5 0 1 51 -8
113 -10 61 -23 151 -30 200 -7 48 -15 87 -19 87 -4 0 5 -84 20 -187z"/>
<path d="M5986 1549 c-3 -13 -15 -89 -26 -169 -11 -80 -23 -157 -26 -172 -3
-16 -2 -28 3 -28 8 0 66 380 58 388 -2 2 -6 -6 -9 -19z"/>
<path d="M6793 1535 c3 -22 13 -113 23 -202 10 -90 21 -163 26 -163 5 0 7 8 4
18 -2 9 -12 96 -22 192 -9 96 -22 180 -27 185 -6 6 -8 -4 -4 -30z"/>
<path d="M6101 1548 c0 -10 -10 -99 -22 -199 -11 -100 -18 -183 -16 -186 7 -7
14 37 32 203 9 84 15 163 12 175 -2 15 -5 17 -6 7z"/>
<path d="M6680 1534 c-1 -83 24 -370 32 -379 6 -6 8 10 4 45 -3 30 -11 122
-17 205 -9 138 -19 200 -19 129z"/>
<path d="M6216 1529 c-8 -41 -28 -370 -23 -376 7 -7 14 53 27 236 10 140 8
200 -4 140z"/>
<path d="M6564 1485 c3 -38 6 -130 6 -202 0 -80 4 -133 10 -133 13 0 1 382
-13 395 -6 7 -7 -13 -3 -60z"/>
<path d="M6325 1350 c-4 -105 -5 -193 -2 -196 4 -5 11 102 20 314 1 39 0 72
-4 72 -4 0 -10 -86 -14 -190z"/>
<path d="M6454 1340 c0 -113 2 -159 3 -102 2 56 2 148 0 205 -1 56 -3 10 -3
-103z"/>
<path d="M6361 1074 c0 -11 3 -14 6 -6 3 7 2 16 -1 19 -3 4 -6 -2 -5 -13z"/>
<path d="M5838 8733 c6 -2 18 -2 25 0 6 3 1 5 -13 5 -14 0 -19 -2 -12 -5z"/>
<path d="M5748 8723 c7 -3 16 -2 19 1 4 3 -2 6 -13 5 -11 0 -14 -3 -6 -6z"/>
<path d="M5628 8703 c7 -3 16 -2 19 1 4 3 -2 6 -13 5 -11 0 -14 -3 -6 -6z"/>
<path d="M5578 8693 c7 -3 16 -2 19 1 4 3 -2 6 -13 5 -11 0 -14 -3 -6 -6z"/>
<path d="M8903 8507 c-37 -65 -40 -73 -25 -84 9 -7 19 -13 23 -13 4 0 26 32
49 72 39 67 40 73 24 85 -10 7 -20 13 -23 13 -3 0 -25 -33 -48 -73z"/>
<path d="M3329 8243 c-13 -16 -12 -17 4 -4 9 7 17 15 17 17 0 8 -8 3 -21 -13z"/>
<path d="M9420 8246 c0 -2 8 -10 18 -17 15 -13 16 -12 3 4 -13 16 -21 21 -21
13z"/>
<path d="M3279 8203 c-13 -16 -12 -17 4 -4 9 7 17 15 17 17 0 8 -8 3 -21 -13z"/>
<path d="M9470 8206 c0 -2 8 -10 18 -17 15 -13 16 -12 3 4 -13 16 -21 21 -21
13z"/>
<path d="M3219 8153 c-13 -16 -12 -17 4 -4 9 7 17 15 17 17 0 8 -8 3 -21 -13z"/>
<path d="M9530 8156 c0 -2 8 -10 18 -17 15 -13 16 -12 3 4 -13 16 -21 21 -21
13z"/>
<path d="M3159 8103 l-24 -28 28 24 c25 23 32 31 24 31 -2 0 -14 -12 -28 -27z"/>
<path d="M9600 8095 c13 -14 26 -25 28 -25 3 0 -5 11 -18 25 -13 14 -26 25
-28 25 -3 0 5 -11 18 -25z"/>
<path d="M3064 8018 l-29 -33 33 29 c30 28 37 36 29 36 -2 0 -16 -15 -33 -32z"/>
<path d="M9680 8027 c0 -2 15 -16 33 -33 l32 -29 -29 33 c-28 30 -36 37 -36
29z"/>
<path d="M2890 7853 l-55 -58 58 55 c31 30 57 56 57 57 0 8 -10 -1 -60 -54z"/>
<path d="M3689 7853 c-13 -16 -12 -17 4 -4 9 7 17 15 17 17 0 8 -8 3 -21 -13z"/>
<path d="M3639 7813 c-13 -16 -12 -17 4 -4 16 13 21 21 13 21 -2 0 -10 -8 -17
-17z"/>
<path d="M3579 7763 c-13 -16 -12 -17 4 -4 16 13 21 21 13 21 -2 0 -10 -8 -17
-17z"/>
<path d="M9970 7735 c19 -19 36 -35 39 -35 3 0 -10 16 -29 35 -19 19 -36 35
-39 35 -3 0 10 -16 29 -35z"/>
<path d="M2749 7703 l-34 -38 38 34 c20 19 37 36 37 38 0 8 -8 0 -41 -34z"/>
<path d="M3509 7703 l-24 -28 28 24 c25 23 32 31 24 31 -2 0 -14 -12 -28 -27z"/>
<path d="M3400 7605 c-24 -25 -42 -45 -39 -45 3 0 25 20 49 45 24 25 42 45 39
45 -3 0 -25 -20 -49 -45z"/>
<path d="M10065 7630 c10 -11 20 -20 23 -20 3 0 -3 9 -13 20 -10 11 -20 20
-23 20 -3 0 3 -9 13 -20z"/>
<path d="M2669 7613 c-13 -16 -12 -17 4 -4 9 7 17 15 17 17 0 8 -8 3 -21 -13z"/>
<path d="M2624 7558 l-19 -23 23 19 c21 18 27 26 19 26 -2 0 -12 -10 -23 -22z"/>
<path d="M10110 7576 c0 -2 8 -10 18 -17 15 -13 16 -12 3 4 -13 16 -21 21 -21
13z"/>
<path d="M10150 7526 c0 -2 8 -10 18 -17 15 -13 16 -12 3 4 -13 16 -21 21 -21
13z"/>
<path d="M2569 7493 c-13 -16 -12 -17 4 -4 9 7 17 15 17 17 0 8 -8 3 -21 -13z"/>
<path d="M3209 7413 l-34 -38 38 34 c20 19 37 36 37 38 0 8 -8 0 -41 -34z"/>
<path d="M3114 7308 l-19 -23 23 19 c21 18 27 26 19 26 -2 0 -12 -10 -23 -22z"/>
<path d="M3059 7243 c-13 -16 -12 -17 4 -4 16 13 21 21 13 21 -2 0 -10 -8 -17
-17z"/>
<path d="M3009 7183 c-13 -16 -12 -17 4 -4 9 7 17 15 17 17 0 8 -8 3 -21 -13z"/>
<path d="M1691 5604 c0 -11 3 -14 6 -6 3 7 2 16 -1 19 -3 4 -6 -2 -5 -13z"/>
<path d="M2221 5464 c0 -11 3 -14 6 -6 3 7 2 16 -1 19 -3 4 -6 -2 -5 -13z"/>
<path d="M1652 5360 c0 -14 2 -19 5 -12 2 6 2 18 0 25 -3 6 -5 1 -5 -13z"/>
<path d="M2201 5344 c0 -11 3 -14 6 -6 3 7 2 16 -1 19 -3 4 -6 -2 -5 -13z"/>
<path d="M11101 5344 c0 -11 3 -14 6 -6 3 7 2 16 -1 19 -3 4 -6 -2 -5 -13z"/>
<path d="M11111 5254 c0 -11 3 -14 6 -6 3 7 2 16 -1 19 -3 4 -6 -2 -5 -13z"/>
<path d="M1632 5185 c0 -16 2 -22 5 -12 2 9 2 23 0 30 -3 6 -5 -1 -5 -18z"/>
<path d="M2181 5194 c0 -11 3 -14 6 -6 3 7 2 16 -1 19 -3 4 -6 -2 -5 -13z"/>
<path d="M11122 5160 c0 -19 2 -27 5 -17 2 9 2 25 0 35 -3 9 -5 1 -5 -18z"/>
<path d="M2172 5100 c0 -14 2 -19 5 -12 2 6 2 18 0 25 -3 6 -5 1 -5 -13z"/>
<path d="M1621 5034 c0 -11 3 -14 6 -6 3 7 2 16 -1 19 -3 4 -6 -2 -5 -13z"/>
<path d="M11133 4990 c0 -25 2 -35 4 -22 2 12 2 32 0 45 -2 12 -4 2 -4 -23z"/>
<path d="M2164 4795 c0 -88 2 -123 3 -77 2 46 2 118 0 160 -1 42 -3 5 -3 -83z"/>
<path d="M1613 4790 c0 -36 2 -50 4 -32 2 17 2 47 0 65 -2 17 -4 3 -4 -33z"/>
<path d="M2156 4622 c-9 -14 0 -66 13 -70 7 -2 11 10 11 32 0 34 -13 55 -24
38z"/>
<path d="M11133 4585 c0 -22 2 -30 4 -17 2 12 2 30 0 40 -3 9 -5 -1 -4 -23z"/>
<path d="M1622 4540 c0 -14 2 -19 5 -12 2 6 2 18 0 25 -3 6 -5 1 -5 -13z"/>
<path d="M2171 4474 c0 -11 3 -14 6 -6 3 7 2 16 -1 19 -3 4 -6 -2 -5 -13z"/>
<path d="M11122 4415 c0 -16 2 -22 5 -12 2 9 2 23 0 30 -3 6 -5 -1 -5 -18z"/>
<path d="M1632 4395 c0 -16 2 -22 5 -12 2 9 2 23 0 30 -3 6 -5 -1 -5 -18z"/>
<path d="M2182 4380 c0 -14 2 -19 5 -12 2 6 2 18 0 25 -3 6 -5 1 -5 -13z"/>
<path d="M2202 4230 c0 -14 2 -19 5 -12 2 6 2 18 0 25 -3 6 -5 1 -5 -13z"/>
<path d="M11101 4234 c0 -11 3 -14 6 -6 3 7 2 16 -1 19 -3 4 -6 -2 -5 -13z"/>
<path d="M1651 4214 c0 -11 3 -14 6 -6 3 7 2 16 -1 19 -3 4 -6 -2 -5 -13z"/>
<path d="M2232 4060 c0 -14 2 -19 5 -12 2 6 2 18 0 25 -3 6 -5 1 -5 -13z"/>
<path d="M2241 4004 c0 -11 3 -14 6 -6 3 7 2 16 -1 19 -3 4 -6 -2 -5 -13z"/>
<path d="M11061 3984 c0 -11 3 -14 6 -6 3 7 2 16 -1 19 -3 4 -6 -2 -5 -13z"/>
<path d="M1691 3974 c0 -11 3 -14 6 -6 3 7 2 16 -1 19 -3 4 -6 -2 -5 -13z"/>
<path d="M2251 3954 c0 -11 3 -14 6 -6 3 7 2 16 -1 19 -3 4 -6 -2 -5 -13z"/>
<path d="M2261 3914 c0 -11 3 -14 6 -6 3 7 2 16 -1 19 -3 4 -6 -2 -5 -13z"/>
<path d="M2520 2146 c0 -2 8 -10 18 -17 15 -13 16 -12 3 4 -13 16 -21 21 -21
13z"/>
<path d="M2550 2106 c0 -2 8 -10 18 -17 15 -13 16 -12 3 4 -13 16 -21 21 -21
13z"/>
<path d="M10179 2083 c-13 -16 -12 -17 4 -4 16 13 21 21 13 21 -2 0 -10 -8
-17 -17z"/>
<path d="M2600 2046 c0 -2 8 -10 18 -17 15 -13 16 -12 3 4 -13 16 -21 21 -21
13z"/>
<path d="M2650 1986 c0 -2 8 -10 18 -17 15 -13 16 -12 3 4 -13 16 -21 21 -21
13z"/>
<path d="M2730 1895 c19 -19 36 -35 39 -35 3 0 -10 16 -29 35 -19 19 -36 35
-39 35 -3 0 10 -16 29 -35z"/>
<path d="M2915 1700 c60 -60 112 -110 115 -110 2 0 -45 50 -105 110 -60 61
-112 110 -115 110 -2 0 45 -49 105 -110z"/>
<path d="M3090 1535 c19 -19 36 -35 39 -35 3 0 -10 16 -29 35 -19 19 -36 35
-39 35 -3 0 10 -16 29 -35z"/>
<path d="M3170 1466 c0 -2 8 -10 18 -17 15 -13 16 -12 3 4 -13 16 -21 21 -21
13z"/>
<path d="M3235 1410 c10 -11 20 -20 23 -20 3 0 -3 9 -13 20 -10 11 -20 20 -23
20 -3 0 3 -9 13 -20z"/>
<path d="M3280 1376 c0 -2 8 -10 18 -17 15 -13 16 -12 3 4 -13 16 -21 21 -21
13z"/>
<path d="M3330 1336 c0 -2 8 -10 18 -17 15 -13 16 -12 3 4 -13 16 -21 21 -21
13z"/>
<path d="M7368 393 c7 -3 16 -2 19 1 4 3 -2 6 -13 5 -11 0 -14 -3 -6 -6z"/>
<path d="M7390 360 c-10 -7 -1 -8 30 -4 56 8 64 14 19 14 -19 0 -41 -5 -49
-10z"/>
<path d="M7323 343 c9 -2 23 -2 30 0 6 3 -1 5 -18 5 -16 0 -22 -2 -12 -5z"/>
<path d="M7268 333 c6 -2 18 -2 25 0 6 3 1 5 -13 5 -14 0 -19 -2 -12 -5z"/>
<path d="M7208 323 c6 -2 18 -2 25 0 6 3 1 5 -13 5 -14 0 -19 -2 -12 -5z"/>
<path d="M7143 313 c9 -2 25 -2 35 0 9 3 1 5 -18 5 -19 0 -27 -2 -17 -5z"/>
<path d="M7068 303 c12 -2 30 -2 40 0 9 3 -1 5 -23 4 -22 0 -30 -2 -17 -4z"/>
<path d="M6983 293 c9 -2 25 -2 35 0 9 3 1 5 -18 5 -19 0 -27 -2 -17 -5z"/>
<path d="M5998 283 c12 -2 30 -2 40 0 9 3 -1 5 -23 4 -22 0 -30 -2 -17 -4z"/>
<path d="M6883 283 c15 -2 37 -2 50 0 12 2 0 4 -28 4 -27 0 -38 -2 -22 -4z"/>
<path d="M6118 273 c17 -2 47 -2 65 0 17 2 3 4 -33 4 -36 0 -50 -2 -32 -4z"/>
<path d="M6748 273 c18 -2 45 -2 60 0 15 2 0 4 -33 4 -33 0 -45 -2 -27 -4z"/>
<path d="M6352 263 c59 -2 158 -2 220 0 62 1 14 3 -107 3 -121 0 -172 -2 -113
-3z"/>
</g>
</svg>
